<?xml version="1.0" encoding="UTF-8"?>
<!DOCTYPE svg PUBLIC "-//W3C//DTD SVG 1.1//EN" "http://www.w3.org/Graphics/SVG/1.1/DTD/svg11.dtd">
<!-- Creator: CorelDRAW Standard 2021 (64-Bit Versión de evaluación) -->
<svg xmlns="http://www.w3.org/2000/svg" xml:space="preserve" width="86.012mm" height="29mm" version="1.1" style="shape-rendering:geometricPrecision; text-rendering:geometricPrecision; image-rendering:optimizeQuality; fill-rule:evenodd; clip-rule:evenodd"
viewBox="0 0 8601.2 2900"
 xmlns:xlink="http://www.w3.org/1999/xlink"
 xmlns:xodm="http://www.corel.com/coreldraw/odm/2003">
 <defs>
  <style type="text/css">
   <![CDATA[
    .fil1 {fill:#FEFEFE}
    .fil0 {fill:#FEFEFE;fill-rule:nonzero}
    .fil2 {fill:#201E1E;fill-rule:nonzero}
   ]]>
  </style>
 </defs>
 <g id="Capa_x0020_1">
  <metadata id="CorelCorpID_0Corel-Layer"/>
  <g id="_1172742010000">
   <path class="fil0" d="M2672.79 1596.54l67.34 0c63.06,0 110.13,-12.39 141.21,-37.39 31.3,-24.77 46.84,-61.03 46.84,-108.55 0,-47.97 -13.06,-83.33 -39.19,-106.3 -26.12,-22.74 -67.11,-34.23 -123.19,-34.23l-93.01 0 0 286.47zm461.91 -153.14c0,103.82 -32.43,183.32 -97.29,238.27 -64.86,54.95 -157.2,82.43 -276.79,82.43l-87.83 0 0 343.22 -204.49 0 0 -964.81 308.09 0c117.11,0 206.07,25.23 267.1,75.45 60.81,50.45 91.21,125.67 91.21,225.44zm271.55 211.79l55.61 0c54.47,0 94.71,-9.11 120.53,-27.33 26,-18.03 38.91,-46.69 38.91,-85.6 0,-38.54 -13.29,-66.06 -39.67,-82.38 -26.57,-16.33 -67.57,-24.49 -123.19,-24.49l-52.19 0 0 219.8zm0 140.08l0 312.05 -172.35 0 0 -813.15 236.88 0c110.47,0 192.09,20.12 245.05,60.36 53.14,40.24 79.53,101.36 79.53,183.17 0,47.83 -13.1,90.35 -39.48,127.74 -26.2,37.21 -63.4,66.44 -111.61,87.5 122.23,182.79 201.95,301.04 238.97,354.38l-191.33 0 -193.99 -312.05 -91.67 0zm1263.6 -95.47c0,134.76 -33.22,238.21 -100.03,310.53 -66.81,72.31 -162.48,108.38 -286.99,108.38 -124.52,0 -220.18,-36.07 -287,-108.38 -66.81,-72.32 -100.03,-176.15 -100.03,-311.48 0,-135.34 33.41,-238.78 100.41,-310.15 66.82,-71.37 162.86,-107.05 287.76,-107.05 124.89,0 220.55,35.87 286.61,107.81 66.24,71.94 99.27,175.38 99.27,310.34zm-593.35 0c0,90.92 17.28,159.25 51.63,205.37 34.55,45.94 86.17,68.9 154.7,68.9 137.61,0 206.32,-91.49 206.32,-274.27 0,-183.17 -68.33,-274.66 -205.18,-274.66 -68.72,0 -120.34,23.16 -155.27,69.28 -34.73,46.13 -52.2,114.65 -52.2,205.38zm949.65 -70.8l169.69 -334.83 185.64 0 -269.72 496.74 0 316.41 -171.21 0 0 -310.91 -269.72 -502.24 186.77 0 168.55 334.83zm872.03 478.32l-468.26 0 0 -813.15 468.26 0 0 141.22 -295.91 0 0 178.8 275.22 0 0 141.22 -275.22 0 0 209.55 295.91 0 0 142.36zm460.89 -681.04c-64.91,0 -115.02,24.3 -150.71,73.08 -35.49,48.78 -53.33,116.73 -53.33,203.85 0,181.27 67.95,272 204.04,272 56.94,0 126.23,-14.23 207.27,-42.89l0 144.63c-66.62,27.9 -141.21,41.76 -223.4,41.76 -118.25,0 -208.6,-35.88 -271.24,-107.62 -62.64,-71.75 -93.96,-174.82 -93.96,-309.01 0,-84.47 15.38,-158.5 46.13,-222.08 30.75,-63.59 74.97,-112.37 132.48,-146.35 57.71,-33.97 125.28,-50.86 202.72,-50.86 78.96,0 158.11,19.17 237.83,57.32l-55.61 140.08c-30.37,-14.43 -60.93,-26.96 -91.68,-37.77 -30.75,-10.82 -60.93,-16.14 -90.54,-16.14zm640.07 681.04l-172.34 0 0 -669.65 -220.75 0 0 -143.5 613.84 0 0 143.5 -220.75 0 0 669.65zm1007.36 -407.52c0,134.76 -33.22,238.21 -100.03,310.53 -66.81,72.31 -162.48,108.38 -286.99,108.38 -124.52,0 -220.18,-36.07 -287,-108.38 -66.81,-72.32 -100.03,-176.15 -100.03,-311.48 0,-135.34 33.41,-238.78 100.41,-310.15 66.82,-71.37 162.86,-107.05 287.76,-107.05 124.89,0 220.55,35.87 286.61,107.81 66.24,71.94 99.27,175.38 99.27,310.34zm-593.35 0c0,90.92 17.28,159.25 51.63,205.37 34.55,45.94 86.17,68.9 154.7,68.9 137.61,0 206.32,-91.49 206.32,-274.27 0,-183.17 -68.33,-274.66 -205.18,-274.66 -68.72,0 -120.34,23.16 -155.27,69.28 -34.73,46.13 -52.2,114.65 -52.2,205.38zm1188.06 182.03c0,73.45 -26.58,131.15 -79.34,173.48 -52.77,42.33 -126.42,63.4 -220.56,63.4 -86.75,0 -163.62,-16.33 -230.24,-48.97l0 -160.2c54.85,24.48 101.36,41.76 139.32,51.82 37.96,10.06 72.7,14.99 104.2,14.99 37.97,0 67.01,-7.21 87.13,-21.64 20.31,-14.42 30.37,-36.06 30.37,-64.53 0,-15.95 -4.37,-30.18 -13.29,-42.52 -8.92,-12.53 -22.02,-24.49 -39.29,-35.87 -17.27,-11.58 -52.39,-29.99 -105.35,-55.05 -49.73,-23.54 -87.12,-45.93 -111.98,-67.38 -24.87,-21.45 -44.61,-46.51 -59.41,-75.17 -15,-28.47 -22.4,-61.87 -22.4,-100.03 0,-71.93 24.48,-128.5 73.26,-169.69 48.79,-41.19 116.17,-61.68 202.15,-61.68 42.33,0 82.57,4.93 121.1,14.99 38.34,10.06 78.39,24.11 120.34,42.33l-55.61 134c-43.47,-17.84 -79.34,-30.18 -107.63,-37.2 -28.47,-7.02 -56.37,-10.63 -83.7,-10.63 -32.65,0 -57.7,7.59 -75.17,22.78 -17.46,15.18 -26.19,35.11 -26.19,59.6 0,15.18 3.61,28.47 10.63,39.67 7.02,11.39 18.22,22.21 33.6,32.84 15.37,10.63 51.81,29.61 109.33,56.94 76.11,36.44 128.12,72.89 156.4,109.33 28.09,36.63 42.33,81.24 42.33,134.39z"/>
   <path class="fil0" d="M3099.72 2520.45c0,110.78 -31.43,195.64 -94.44,254.56 -63.17,58.93 -154.15,88.47 -273.26,88.47l-190.45 0 0 -673.17 211.19 0c109.84,0 195.16,29.07 255.97,87.05 60.66,57.98 90.99,139.07 90.99,243.09zm-148.18 3.61c0,-144.56 -63.8,-216.84 -191.4,-216.84l-75.89 0 0 438.41 61.28 0c137.34,0 206.01,-73.86 206.01,-221.57zm630.92 339.42l-387.65 0 0 -673.17 387.65 0 0 116.91 -244.97 0 0 148.02 227.84 0 0 116.91 -227.84 0 0 173.48 244.97 0 0 117.85zm340.71 0l0 -673.17 142.68 0 0 673.17 -142.68 0zm864.59 0l-181.34 0 -292.9 -509.28 -4.09 0c5.82,90.04 8.8,154.15 8.8,192.49l0 316.79 -127.59 0 0 -673.17 180.08 0 292.27 504.25 3.3 0c-4.71,-87.53 -6.91,-149.44 -6.91,-185.58l0 -318.67 128.38 0 0 673.17zm508.83 -673.17l144.09 0 -228.79 673.17 -155.72 0 -228.32 -673.17 144.09 0 126.66 400.54c7.07,23.73 14.3,51.22 21.84,82.65 7.54,31.59 12.26,53.43 14.14,65.68 3.3,-28.28 14.77,-77.62 34.41,-148.33l127.6 -400.54zm571.69 673.17l-387.65 0 0 -673.17 387.65 0 0 116.91 -244.97 0 0 148.02 227.84 0 0 116.91 -227.84 0 0 173.48 244.97 0 0 117.85zm238.41 -374.3l46.04 0c45.1,0 78.41,-7.54 99.78,-22.63 21.53,-14.93 32.21,-38.65 32.21,-70.87 0,-31.89 -11,-54.68 -32.84,-68.19 -22,-13.52 -55.94,-20.27 -101.98,-20.27l-43.21 0 0 181.96zm0 115.97l0 258.33 -142.68 0 0 -673.17 196.1 0c91.46,0 159.03,16.65 202.87,49.97 43.99,33.31 65.84,83.91 65.84,151.63 0,39.6 -10.85,74.8 -32.69,105.76 -21.68,30.79 -52.48,54.99 -92.39,72.44 101.19,151.32 167.19,249.21 197.83,293.37l-158.39 0 -160.6 -258.33 -75.89 0zm832.69 71.65c0,60.81 -22,108.58 -65.68,143.62 -43.68,35.05 -104.65,52.49 -182.59,52.49 -71.81,0 -135.46,-13.52 -190.61,-40.54l0 -132.63c45.41,20.27 83.91,34.57 115.34,42.9 31.43,8.33 60.18,12.42 86.27,12.42 31.42,0 55.47,-5.98 72.12,-17.92 16.82,-11.94 25.14,-29.85 25.14,-53.42 0,-13.2 -3.61,-24.99 -11,-35.2 -7.38,-10.37 -18.22,-20.27 -32.52,-29.7 -14.3,-9.59 -43.37,-24.83 -87.21,-45.57 -41.17,-19.49 -72.13,-38.03 -92.71,-55.78 -20.59,-17.76 -36.93,-38.5 -49.19,-62.23 -12.41,-23.57 -18.54,-51.23 -18.54,-82.81 0,-59.56 20.27,-106.38 60.65,-140.48 40.39,-34.1 96.17,-51.07 167.35,-51.07 35.05,0 68.36,4.08 100.26,12.41 31.74,8.33 64.9,19.96 99.62,35.04l-46.04 110.94c-35.98,-14.77 -65.68,-24.98 -89.09,-30.8 -23.58,-5.81 -46.67,-8.8 -69.3,-8.8 -27.03,0 -47.77,6.29 -62.23,18.86 -14.45,12.57 -21.68,29.07 -21.68,49.34 0,12.57 2.98,23.57 8.8,32.84 5.81,9.43 15.08,18.39 27.81,27.19 12.73,8.8 42.9,24.51 90.51,47.14 63.01,30.17 106.07,60.34 129.48,90.51 23.26,30.33 35.04,67.25 35.04,111.25zm77.19 186.68l0 -673.17 142.68 0 0 673.17 -142.68 0zm878.41 -337.37c0,111.56 -27.49,197.2 -82.81,257.07 -55.31,59.87 -134.51,89.73 -237.59,89.73 -103.08,0 -182.28,-29.86 -237.59,-89.73 -55.31,-59.87 -82.81,-145.82 -82.81,-257.86 0,-112.04 27.66,-197.68 83.13,-256.76 55.31,-59.08 134.82,-88.62 238.22,-88.62 103.39,0 182.59,29.69 237.27,89.25 54.84,59.55 82.18,145.19 82.18,256.92zm-491.21 0c0,75.27 14.3,131.84 42.75,170.02 28.59,38.03 71.34,57.04 128.06,57.04 113.93,0 170.81,-75.74 170.81,-227.06 0,-151.64 -56.57,-227.38 -169.86,-227.38 -56.89,0 -99.63,19.17 -128.54,57.36 -28.76,38.18 -43.22,94.91 -43.22,170.02zm98.37 -389.54l0 -12.42c52.8,-61.28 88.78,-107.48 108.11,-138.44l157.45 0 0 9.59c-15.87,16.03 -43.21,39.76 -81.71,71.18 -38.5,31.43 -68.67,54.69 -90.35,70.09l-93.5 0zm1084.75 726.91l-181.34 0 -292.9 -509.28 -4.09 0c5.82,90.04 8.8,154.15 8.8,192.49l0 316.79 -127.59 0 0 -673.17 180.08 0 292.27 504.25 3.3 0c-4.71,-87.53 -6.91,-149.44 -6.91,-185.58l0 -318.67 128.38 0 0 673.17z"/>
   <path class="fil1" d="M6799.22 1364.87l201.19 -87.93 148.17 -409.28 662.34 363.64 389.14 -867.55 95.78 124.99 5.02 -461.64 -383.23 311.21c5.64,0.18 12.73,0.15 18.13,0.09 2.91,-0.04 146.73,-7.72 155.93,-9.01l-354.6 720.27 -636.72 -378.06 -301.15 693.27z"/>
   <path class="fil1" d="M650.36 2511.63c137.43,4.43 170.73,94.87 789.03,93.92 297.58,-0.47 595.16,-0.91 892.73,-1.1l1.06 -1214.21 -465.3 -1.91c-113.03,134.34 -170.17,228.84 -428.51,257.94 -370.07,41.69 -486.82,-81.55 -482.86,203.79l836.83 -1.02 -0.3 319.77 -1236.41 -2.17c-12.95,-122.45 -8.41,-294.34 -3.5,-418.75 14.99,-380.43 388.78,-451.99 698.64,-449.35 89.81,0.77 158.41,18.34 149.91,-81.43 -87.52,-62.95 -311.07,-21 -447.54,-33.01l1.35 -346.15c123.13,-17.55 372.99,-14.01 499.37,2.38 216.48,28.1 314.47,112.08 413.01,261.97l436.3 -65.2 385.66 -464.9c-51.97,-45.47 -1201.69,-2.99 -1267.58,-3.08 -457.38,-0.57 -745.59,24.76 -1062.29,270.61 -564.3,438.06 -435.89,1271.66 181.39,1600.3l78.57 43.49c24.19,18.26 12.32,6.84 30.44,28.11z"/>
   <path class="fil2" d="M7500.87 2138.97l0 -12.6c53.55,-62.14 90.05,-108.99 109.65,-140.39l159.69 0 0 9.72c-16.1,16.25 -43.84,40.32 -82.87,72.19 -39.05,31.87 -69.65,55.46 -91.65,71.08l-94.82 0z"/>
  </g>
 </g>
</svg>
