<?xml version="1.0" encoding="UTF-8"?>
<!DOCTYPE svg PUBLIC "-//W3C//DTD SVG 1.1//EN" "http://www.w3.org/Graphics/SVG/1.1/DTD/svg11.dtd">
<!-- Creator: CorelDRAW Standard 2021 (64-Bit Versión de evaluación) -->
<svg xmlns="http://www.w3.org/2000/svg" xml:space="preserve" width="215.9mm" height="279.4mm" version="1.1" style="shape-rendering:geometricPrecision; text-rendering:geometricPrecision; image-rendering:optimizeQuality; fill-rule:evenodd; clip-rule:evenodd"
viewBox="0 0 21590 27940"
 xmlns:xlink="http://www.w3.org/1999/xlink"
 xmlns:xodm="http://www.corel.com/coreldraw/odm/2003">
 <defs>
  <style type="text/css">
   <![CDATA[
    .str0 {stroke:#0C527F;stroke-width:7.62;stroke-miterlimit:22.9256}
    .fil2 {fill:#0C527F}
    .fil3 {fill:#FEFEFE;fill-rule:nonzero}
    .fil1 {fill:#727376;fill-rule:nonzero}
    .fil0 {fill:#0C527F;fill-rule:nonzero}
   ]]>
  </style>
 </defs>
 <g id="Capa_x0020_1">
  <metadata id="CorelCorpID_0Corel-Layer"/>
  <g id="_1173797347136">
   <path class="fil0" d="M8703.01 15209.99l49.22 0c46.09,0 80.5,-9.06 103.22,-27.33 22.88,-18.11 34.24,-44.61 34.24,-79.35 0,-35.06 -9.55,-60.91 -28.65,-77.7 -19.09,-16.63 -49.05,-25.02 -90.04,-25.02l-67.99 0 0 209.4zm337.64 -111.94c0,75.89 -23.71,134 -71.12,174.17 -47.41,40.16 -114.91,60.25 -202.32,60.25l-64.2 0 0 250.88 -149.48 0 0 -705.24 225.2 0c85.61,0 150.63,18.44 195.24,55.15 44.45,36.87 66.68,91.86 66.68,164.79zm198.48 154.81l40.66 0c39.82,0 69.23,-6.66 88.1,-19.98 19.01,-13.18 28.44,-34.13 28.44,-62.57 0,-28.17 -9.71,-48.29 -29,-60.22 -19.42,-11.93 -49.39,-17.9 -90.04,-17.9l-38.16 0 0 160.67zm0 102.39l0 228.1 -125.98 0 0 -594.38 173.16 0c80.75,0 140.41,14.7 179.12,44.12 38.85,29.41 58.13,74.09 58.13,133.89 0,34.96 -9.57,66.04 -28.86,93.37 -19.14,27.2 -46.34,48.56 -81.58,63.96 89.35,133.61 147.62,220.05 174.68,259.04l-139.85 0 -141.8 -228.1 -67.02 0zm923.65 -69.79c0,98.51 -24.28,174.13 -73.11,226.99 -48.84,52.86 -118.77,79.22 -209.79,79.22 -91.01,0 -160.94,-26.36 -209.78,-79.22 -48.84,-52.86 -73.12,-128.75 -73.12,-227.68 0,-98.92 24.42,-174.54 73.4,-226.71 48.84,-52.17 119.04,-78.25 210.34,-78.25 91.29,0 161.22,26.22 209.5,78.81 48.42,52.58 72.56,128.2 72.56,226.84zm-433.71 0c0,66.46 12.62,116.41 37.74,150.13 25.25,33.57 62.99,50.36 113.07,50.36 100.59,0 150.82,-66.87 150.82,-200.49 0,-133.88 -49.95,-200.76 -149.98,-200.76 -50.23,0 -87.97,16.93 -113.5,50.64 -25.39,33.72 -38.15,83.8 -38.15,150.12zm694.16 -51.75l124.04 -244.74 135.69 0 -197.16 363.09 0 231.29 -125.14 0 0 -227.26 -197.16 -367.12 136.53 0 123.2 244.74zm637.42 349.64l-342.29 0 0 -594.38 342.29 0 0 103.22 -216.31 0 0 130.7 201.18 0 0 103.23 -201.18 0 0 153.17 216.31 0 0 104.06zm336.89 -497.82c-47.45,0 -84.08,17.76 -110.16,53.42 -25.95,35.66 -38.99,85.33 -38.99,149.01 0,132.5 49.67,198.82 149.15,198.82 41.62,0 92.27,-10.4 151.51,-31.35l0 105.72c-48.7,20.4 -103.23,30.52 -163.3,30.52 -86.44,0 -152.48,-26.22 -198.27,-78.66 -45.79,-52.45 -68.68,-127.79 -68.68,-225.88 0,-61.74 11.24,-115.85 33.72,-162.33 22.47,-46.48 54.8,-82.14 96.84,-106.97 42.18,-24.84 91.57,-37.19 148.18,-37.19 57.72,0 115.58,14.01 173.85,41.9l-40.65 102.4c-22.2,-10.55 -44.54,-19.71 -67.02,-27.61 -22.47,-7.91 -44.54,-11.8 -66.18,-11.8zm467.87 497.82l-125.98 0 0 -489.49 -161.36 0 0 -104.89 448.7 0 0 104.89 -161.36 0 0 489.49zm736.34 -297.89c0,98.51 -24.28,174.13 -73.11,226.99 -48.84,52.86 -118.77,79.22 -209.79,79.22 -91.01,0 -160.94,-26.36 -209.78,-79.22 -48.84,-52.86 -73.12,-128.75 -73.12,-227.68 0,-98.92 24.42,-174.54 73.4,-226.71 48.84,-52.17 119.04,-78.25 210.34,-78.25 91.29,0 161.22,26.22 209.5,78.81 48.42,52.58 72.56,128.2 72.56,226.84zm-433.71 0c0,66.46 12.62,116.41 37.74,150.13 25.25,33.57 62.99,50.36 113.07,50.36 100.59,0 150.82,-66.87 150.82,-200.49 0,-133.88 -49.95,-200.76 -149.98,-200.76 -50.23,0 -87.97,16.93 -113.5,50.64 -25.39,33.72 -38.15,83.8 -38.15,150.12zm868.43 133.06c0,53.7 -19.43,95.87 -58,126.81 -38.57,30.94 -92.4,46.34 -161.22,46.34 -63.41,0 -119.6,-11.93 -168.3,-35.79l0 -117.1c40.1,17.9 74.09,30.52 101.84,37.88 27.75,7.35 53.14,10.96 76.17,10.96 27.75,0 48.98,-5.28 63.69,-15.82 14.84,-10.55 22.2,-26.36 22.2,-47.17 0,-11.66 -3.19,-22.06 -9.72,-31.08 -6.52,-9.16 -16.09,-17.9 -28.72,-26.23 -12.62,-8.46 -38.29,-21.92 -77,-40.23 -36.35,-17.21 -63.68,-33.58 -81.86,-49.26 -18.17,-15.67 -32.6,-33.99 -43.43,-54.94 -10.96,-20.81 -16.37,-45.23 -16.37,-73.12 0,-52.58 17.9,-93.93 53.56,-124.04 35.66,-30.1 84.91,-45.09 147.76,-45.09 30.94,0 60.36,3.61 88.52,10.96 28.03,7.36 57.3,17.62 87.96,30.94l-40.65 97.96c-31.77,-13.05 -57.99,-22.06 -78.67,-27.2 -20.81,-5.13 -41.2,-7.77 -61.18,-7.77 -23.87,0 -42.18,5.55 -54.95,16.65 -12.76,11.1 -19.14,25.67 -19.14,43.57 0,11.1 2.63,20.81 7.77,29 5.13,8.32 13.32,16.23 24.56,24 11.23,7.77 37.87,21.64 79.91,41.62 55.64,26.64 93.66,53.28 114.33,79.92 20.53,26.78 30.94,59.38 30.94,98.23z"/>
   <path class="fil1" d="M9015.08 15885.34c0,80.97 -22.97,143 -69.03,186.07 -46.18,43.08 -112.68,64.67 -199.75,64.67l-139.21 0 0 -492.07 154.37 0c80.29,0 142.66,21.25 187.11,63.64 44.34,42.38 66.51,101.65 66.51,177.69zm-108.32 2.64c0,-105.67 -46.63,-158.51 -139.9,-158.51l-55.48 0 0 320.46 44.8 0c100.39,0 150.58,-53.98 150.58,-161.95zm461.19 248.1l-283.36 0 0 -492.07 283.36 0 0 85.46 -179.07 0 0 108.2 166.55 0 0 85.46 -166.55 0 0 126.8 179.07 0 0 86.15zm249.05 0l0 -492.07 104.29 0 0 492.07 -104.29 0zm631.99 0l-132.55 0 -214.1 -372.27 -2.98 0c4.25,65.82 6.43,112.68 6.43,140.71l0 231.56 -93.27 0 0 -492.07 131.63 0 213.64 368.59 2.42 0c-3.45,-63.97 -5.06,-109.23 -5.06,-135.65l0 -232.94 93.84 0 0 492.07zm371.95 -492.07l105.33 0 -167.24 492.07 -113.83 0 -166.89 -492.07 105.33 0 92.58 292.79c5.17,17.34 10.45,37.44 15.96,60.41 5.52,23.09 8.96,39.06 10.34,48.01 2.41,-20.67 10.8,-56.74 25.15,-108.42l93.27 -292.79zm417.89 492.07l-283.36 0 0 -492.07 283.36 0 0 85.46 -179.07 0 0 108.2 166.55 0 0 85.46 -166.55 0 0 126.8 179.07 0 0 86.15zm174.27 -273.6l33.66 0c32.96,0 57.32,-5.51 72.94,-16.54 15.73,-10.91 23.54,-28.26 23.54,-51.8 0,-23.32 -8.04,-39.98 -24,-49.85 -16.08,-9.88 -40.89,-14.82 -74.55,-14.82l-31.59 0 0 133.01zm0 84.77l0 188.83 -104.29 0 0 -492.07 143.35 0c66.85,0 116.24,12.18 148.28,36.53 32.17,24.35 48.13,61.33 48.13,110.84 0,28.95 -7.92,54.67 -23.89,77.3 -15.85,22.51 -38.36,40.2 -67.54,52.95 73.97,110.62 122.21,182.17 144.61,214.45l-115.78 0 -117.39 -188.83 -55.48 0zm608.68 52.37c0,44.46 -16.08,79.37 -48.01,104.99 -31.93,25.61 -76.5,38.36 -133.47,38.36 -52.49,0 -99.01,-9.88 -139.33,-29.63l0 -96.95c33.2,14.82 61.34,25.27 84.31,31.36 22.97,6.09 43.99,9.08 63.06,9.08 22.97,0 40.55,-4.37 52.72,-13.1 12.29,-8.73 18.38,-21.82 18.38,-39.05 0,-9.65 -2.64,-18.26 -8.04,-25.73 -5.4,-7.58 -13.33,-14.82 -23.78,-21.71 -10.45,-7.01 -31.7,-18.15 -63.75,-33.31 -30.09,-14.24 -52.72,-27.8 -67.76,-40.78 -15.05,-12.97 -27,-28.14 -35.96,-45.48 -9.07,-17.23 -13.55,-37.45 -13.55,-60.53 0,-43.54 14.82,-77.76 44.34,-102.69 29.52,-24.92 70.29,-37.33 122.32,-37.33 25.62,0 49.97,2.99 73.29,9.07 23.2,6.09 47.43,14.59 72.82,25.62l-33.66 81.09c-26.3,-10.8 -48.01,-18.26 -65.12,-22.51 -17.23,-4.25 -34.12,-6.43 -50.66,-6.43 -19.75,0 -34.91,4.59 -45.48,13.78 -10.57,9.19 -15.85,21.25 -15.85,36.07 0,9.19 2.18,17.23 6.43,24 4.25,6.89 11.03,13.44 20.33,19.87 9.3,6.44 31.36,17.92 66.16,34.46 46.06,22.06 77.53,44.11 94.65,66.16 17,22.17 25.61,49.16 25.61,81.32zm56.42 136.46l0 -492.07 104.29 0 0 492.07 -104.29 0zm642.1 -246.61c0,81.55 -20.1,144.15 -60.53,187.92 -40.43,43.76 -98.32,65.58 -173.67,65.58 -75.35,0 -133.24,-21.82 -173.67,-65.58 -40.43,-43.77 -60.53,-106.6 -60.53,-188.49 0,-81.9 20.21,-144.5 60.76,-187.69 40.43,-43.18 98.55,-64.78 174.13,-64.78 75.58,0 133.47,21.71 173.44,65.24 40.09,43.54 60.07,106.14 60.07,187.8zm-359.05 0c0,55.02 10.45,96.37 31.24,124.28 20.9,27.8 52.14,41.7 93.61,41.7 83.27,0 124.85,-55.37 124.85,-165.98 0,-110.84 -41.35,-166.2 -124.16,-166.2 -41.58,0 -72.82,14.01 -93.96,41.92 -21.02,27.91 -31.58,69.38 -31.58,124.28zm71.9 -284.74l0 -9.07c38.59,-44.8 64.9,-78.57 79.02,-101.2l115.09 0 0 7.01c-11.6,11.72 -31.58,29.06 -59.72,52.03 -28.14,22.97 -50.2,39.97 -66.05,51.23l-68.34 0zm792.9 531.35l-132.55 0 -214.1 -372.27 -2.98 0c4.25,65.82 6.43,112.68 6.43,140.71l0 231.56 -93.27 0 0 -492.07 131.63 0 213.64 368.59 2.42 0c-3.45,-63.97 -5.06,-109.23 -5.06,-135.65l0 -232.94 93.84 0 0 492.07z"/>
   <path class="fil2" d="M11719.33 15040.64l147.07 -64.28 108.3 -299.17 484.16 265.81 284.45 -634.16 70.02 91.37 3.66 -337.45 -280.13 227.49c4.12,0.13 9.3,0.11 13.25,0.06 2.13,-0.03 107.26,-5.64 113.99,-6.58l-259.21 526.49 -465.43 -276.35 -220.13 506.77z"/>
   <path class="fil3" d="M12206.83 15591.51l0 -9.08c38.6,-44.79 64.91,-78.56 79.03,-101.19l115.1 0 0 7.01c-11.6,11.71 -31.59,29.06 -59.73,52.03 -28.14,22.97 -50.19,39.97 -66.05,51.23l-68.35 0z"/>
   <path class="fil2 str0" d="M9797.34 14330.03c177.55,5.73 220.59,122.57 1019.46,121.34 384.48,-0.59 768.97,-1.16 1153.45,-1.41l1.37 -1568.82 -601.19 -2.46c-146.04,173.56 -219.87,295.66 -553.65,333.26 -478.16,53.87 -629,-105.37 -623.89,263.31l1081.23 -1.31 -0.38 413.15 -1597.51 -2.8c-16.74,-158.22 -10.87,-380.3 -4.53,-541.05 19.38,-491.53 502.33,-583.99 902.68,-580.58 116.05,0.99 204.68,23.7 193.69,-105.21 -113.07,-81.33 -401.91,-27.13 -578.24,-42.65l1.75 -447.25c159.08,-22.67 481.92,-18.1 645.2,3.08 279.71,36.3 406.32,144.81 533.64,338.47l563.72 -84.24 498.29 -600.66c-67.15,-58.76 -1552.65,-3.88 -1637.77,-3.98 -590.96,-0.74 -963.34,31.98 -1372.54,349.64 -729.1,566 -563.19,1643.04 234.36,2067.65l101.52 56.2c31.25,23.59 15.92,8.84 39.34,36.32z"/>
  </g>
 </g>
</svg>
