<?xml version="1.0" encoding="UTF-8"?>
<!DOCTYPE svg PUBLIC "-//W3C//DTD SVG 1.1//EN" "http://www.w3.org/Graphics/SVG/1.1/DTD/svg11.dtd">
<!-- Creator: CorelDRAW Standard 2021 (64-Bit Versión de evaluación) -->
<svg xmlns="http://www.w3.org/2000/svg" xml:space="preserve" width="215.9mm" height="279.4mm" version="1.1" style="shape-rendering:geometricPrecision; text-rendering:geometricPrecision; image-rendering:optimizeQuality; fill-rule:evenodd; clip-rule:evenodd"
viewBox="0 0 21590 27940"
 xmlns:xlink="http://www.w3.org/1999/xlink"
 xmlns:xodm="http://www.corel.com/coreldraw/odm/2003">
 <defs>
  <style type="text/css">
   <![CDATA[
    .fil1 {fill:#373435}
    .fil0 {fill:#373435;fill-rule:nonzero}
   ]]>
  </style>
 </defs>
 <g id="Capa_x0020_1">
  <metadata id="CorelCorpID_0Corel-Layer"/>
  <g id="_1173788937264">
   <path class="fil0" d="M7054.55 18206.37c0,165.16 -46.88,291.71 -140.82,379.57 -94.21,87.91 -229.93,131.97 -407.53,131.97l-284.01 0 0 -1003.93 314.92 0c163.84,0 291.04,43.35 381.72,129.82 90.48,86.48 135.72,207.39 135.72,362.57zm-221.01 5.36c0,-215.57 -95.13,-323.37 -285.4,-323.37l-113.21 0 0 653.81 91.44 0c204.79,0 307.17,-110.14 307.17,-330.44zm940.89 506.18l-578.07 0 0 -1003.93 578.07 0 0 174.38 -365.33 0 0 220.76 339.84 0 0 174.33 -339.84 0 0 258.72 365.33 0 0 175.74zm508.1 0l0 -1003.93 212.8 0 0 1003.93 -212.8 0zm1289.38 0l-270.42 0 -436.8 -759.51 -6.09 0c8.66,134.3 13.12,229.89 13.12,287.06l0 472.45 -190.27 0 0 -1003.93 268.53 0 435.9 752.01 4.88 0c-7.02,-130.5 -10.3,-222.84 -10.3,-276.74l0 -475.27 191.45 0 0 1003.93zm758.81 -1003.93l214.92 0 -341.19 1003.93 -232.26 0 -340.45 -1003.93 214.88 0 188.86 597.34c10.55,35.39 21.32,76.37 32.55,123.28 11.28,47.07 18.27,79.64 21.12,97.92 4.94,-42.16 22.03,-115.72 51.33,-221.2l190.24 -597.34zm852.56 1003.93l-578.11 0 0 -1003.93 578.11 0 0 174.38 -365.3 0 0 220.76 339.8 0 0 174.33 -339.8 0 0 258.72 365.3 0 0 175.74zm355.57 -558.22l68.67 0c67.24,0 116.91,-11.25 148.81,-33.7 32.07,-22.31 48.03,-57.65 48.03,-105.71 0,-47.58 -16.44,-81.54 -49.02,-101.68 -32.8,-20.17 -83.4,-30.24 -152.05,-30.24l-64.44 0 0 271.33zm0 172.95l0 385.27 -212.8 0 0 -1003.93 292.44 0c136.43,0 237.15,24.87 302.58,74.51 65.57,49.73 98.15,125.17 98.15,226.17 0,59.03 -16.13,111.55 -48.71,157.72 -32.35,45.92 -78.27,82.02 -137.8,108.02 150.92,225.67 249.35,371.65 295.04,437.51l-236.21 0 -239.54 -385.27 -113.15 0zm1241.77 106.89c0,90.68 -32.77,161.89 -97.95,214.13 -65.15,52.29 -156.06,78.29 -272.29,78.29 -107.09,0 -202.02,-20.16 -284.27,-60.44l0 -197.8c67.72,30.24 125.17,51.56 172.05,63.97 46.82,12.41 89.75,18.53 128.64,18.53 46.87,0 82.72,-8.91 107.54,-26.74 25.07,-17.79 37.48,-44.53 37.48,-79.67 0,-19.66 -5.35,-37.23 -16.38,-52.46 -11.03,-15.46 -27.16,-30.27 -48.51,-44.28 -21.33,-14.33 -64.7,-37.03 -130.08,-68 -61.4,-29.05 -107.52,-56.69 -138.23,-83.15 -30.69,-26.48 -55.05,-57.45 -73.33,-92.79 -18.53,-35.17 -27.7,-76.41 -27.7,-123.51 0,-88.81 30.27,-158.65 90.48,-209.53 60.25,-50.85 143.42,-76.12 249.58,-76.12 52.24,0 101.9,6.09 149.48,18.47 47.36,12.44 96.8,29.79 148.55,52.3l-68.62 165.44c-53.7,-22.03 -97.95,-37.28 -132.87,-45.97 -35.14,-8.63 -69.6,-13.09 -103.36,-13.09 -40.28,0 -71.25,9.34 -92.8,28.09 -21.54,18.76 -32.35,43.38 -32.35,73.62 0,18.75 4.46,35.14 13.12,48.96 8.69,14.04 22.51,27.44 41.49,40.56 19.01,13.11 63.99,36.55 135.01,70.28 93.95,45.01 158.14,89.97 193.09,134.96 34.66,45.24 52.23,100.29 52.23,165.95zm115.1 278.38l0 -1003.93 212.8 0 0 1003.93 -212.8 0zm1310 -503.14c0,166.41 -40.98,294.09 -123.5,383.38 -82.45,89.27 -200.59,133.8 -354.31,133.8 -153.71,0 -271.83,-44.53 -354.3,-133.8 -82.49,-89.29 -123.47,-217.45 -123.47,-384.56 0,-167.06 41.23,-294.79 123.95,-382.87 82.44,-88.11 201.04,-132.17 355.23,-132.17 154.2,0 272.32,44.25 353.85,133.07 81.77,88.84 122.55,216.52 122.55,383.15zm-732.52 0c0,112.23 21.32,196.61 63.72,253.56 42.64,56.69 106.41,85.03 190.99,85.03 169.91,0 254.72,-112.93 254.72,-338.59 0,-226.11 -84.33,-339.1 -253.31,-339.1 -84.81,0 -148.57,28.63 -191.7,85.57 -42.87,56.95 -64.42,141.53 -64.42,253.53zm1764.37 503.14l-270.45 0 -436.8 -759.51 -6.06 0c8.63,134.3 13.11,229.89 13.11,287.06l0 472.45 -190.29 0 0 -1003.93 268.53 0 435.9 752.01 4.91 0c-7.05,-130.5 -10.33,-222.84 -10.33,-276.74l0 -475.27 191.48 0 0 1003.93z"/>
   <path class="fil1" d="M12572.3 16482.78l300.04 -131.15 221.01 -610.42 987.82 542.34 580.42 -1293.9 142.82 186.4 7.48 -688.46 -571.56 464.15c8.4,0.23 18.98,0.2 27.07,0.09 4.32,-0.06 218.84,-11.51 232.55,-13.4l-528.86 1074.24 -949.66 -563.88 -449.13 1033.99z"/>
   <path class="fil1" d="M9071.73 14609.62c378.66,12.2 470.39,261.33 2173.95,258.74 819.92,-1.28 1639.84,-2.52 2459.73,-3l2.87 -3345.48 -1281.95 -5.25c-311.46,370.09 -468.87,630.46 -1180.69,710.65 -1019.65,114.91 -1341.27,-224.64 -1330.39,561.56l2305.68 -2.87 -0.79 881.08 -3406.66 -6.02c-35.69,-337.37 -23.15,-810.94 -9.68,-1153.77 41.33,-1048.12 1071.2,-1245.29 1924.95,-1238.03 247.48,2.14 436.46,50.54 413.04,-224.37 -241.12,-173.4 -857.07,-57.87 -1233.1,-90.93l3.73 -953.77c339.27,-48.33 1027.7,-38.62 1375.89,6.57 596.46,77.42 866.43,308.8 1137.98,721.8l1202.11 -179.66 1062.59 -1280.88c-143.24,-125.31 -3310.99,-8.29 -3492.54,-8.53 -1260.15,-1.52 -2054.27,68.27 -2926.88,745.64 -1554.75,1206.95 -1200.96,3503.75 499.79,4409.18l216.45 119.88c66.65,50.31 34,18.83 83.92,77.46z"/>
   <path class="fil0" d="M6525.92 16806.73l100.43 0c94.06,0 164.24,-18.47 210.6,-55.76 46.71,-36.91 69.84,-90.98 69.84,-161.89 0,-71.5 -19.46,-124.24 -58.41,-158.51 -38.98,-33.92 -100.1,-51.02 -183.73,-51.02l-138.73 0 0 427.18zm688.86 -228.39c0,154.84 -48.32,273.41 -145.06,355.37 -96.77,81.93 -234.46,122.91 -412.77,122.91l-131.03 0 0 511.85 -304.92 0 0 -1438.81 459.42 0c174.67,0 307.31,37.57 398.36,112.48 90.67,75.22 136,187.42 136,336.2zm404.98 315.86l82.98 0c81.23,0 141.24,-13.6 179.74,-40.76 38.78,-26.91 58.02,-69.61 58.02,-127.65 0,-57.45 -19.8,-98.52 -59.15,-122.89 -39.68,-24.31 -100.8,-36.49 -183.72,-36.49l-77.87 0 0 327.79zm0 208.93l0 465.34 -257 0 0 -1212.64 353.26 0c164.71,0 286.44,30.01 365.42,89.98 79.31,60.01 118.65,151.2 118.65,273.18 0,71.33 -19.57,134.76 -58.92,190.52 -39.06,55.48 -94.54,99.08 -166.4,130.5 182.25,272.59 301.13,448.96 356.39,528.46l-285.37 0 -289.3 -465.34 -136.73 0zm1884.52 -142.4c0,201.01 -49.58,355.26 -149.23,463.08 -99.59,107.86 -242.3,161.67 -427.97,161.67 -185.72,0 -328.35,-53.81 -428,-161.67 -99.67,-107.82 -149.17,-262.69 -149.17,-464.49 0,-201.86 49.81,-356.11 149.74,-462.55 99.61,-106.44 242.86,-159.66 429.12,-159.66 186.26,0 328.92,53.53 427.44,160.82 98.8,107.29 148.07,261.53 148.07,462.8zm-884.91 0c0,135.58 25.78,237.48 76.97,306.3 51.53,68.48 128.56,102.72 230.74,102.72 205.22,0 307.71,-136.43 307.71,-409.02 0,-273.16 -101.93,-409.58 -306.02,-409.58 -102.46,0 -179.46,34.49 -231.55,103.28 -51.79,68.82 -77.85,171 -77.85,306.3zm1416.25 -105.6l253.1 -499.3 276.86 0 -402.25 740.79 0 471.85 -255.33 0 0 -463.65 -402.28 -748.99 278.54 0 251.36 499.3zm1300.55 713.34l-698.33 0 0 -1212.64 698.33 0 0 210.58 -441.34 0 0 266.67 410.49 0 0 210.57 -410.49 0 0 312.56 441.34 0 0 212.26zm687.37 -1015.63c-96.83,0 -171.54,36.21 -224.76,108.98 -52.97,72.71 -79.54,174.08 -79.54,304.01 0,270.34 101.34,405.64 304.3,405.64 84.89,0 188.2,-21.21 309.11,-64l0 215.74c-99.39,41.62 -210.63,62.27 -333.2,62.27 -176.33,0 -311.07,-53.53 -404.48,-160.51 -93.44,-106.98 -140.14,-260.72 -140.14,-460.86 0,-125.93 22.95,-236.35 68.81,-331.2 45.86,-94.82 111.78,-167.53 197.55,-218.21 86.08,-50.66 186.82,-75.87 302.35,-75.87 117.75,0 235.78,28.6 354.66,85.46l-82.92 208.93c-45.32,-21.49 -90.87,-40.22 -136.76,-56.32 -45.83,-16.16 -90.85,-24.06 -134.98,-24.06zm954.57 1015.63l-257.03 0 0 -998.68 -329.23 0 0 -213.96 915.46 0 0 213.96 -329.2 0 0 998.68zm2390.89 -353.25c0,109.54 -39.62,195.62 -118.28,258.74 -78.72,63.09 -188.58,94.51 -328.98,94.51 -129.31,0 -243.96,-24.31 -343.36,-73.02l0 -238.92c81.85,36.56 151.18,62.31 207.78,77.31 56.61,14.98 108.45,22.37 155.41,22.37 56.6,0 99.93,-10.8 129.94,-32.3 30.32,-21.52 45.29,-53.78 45.29,-96.26 0,-23.74 -6.49,-45.01 -19.8,-63.4 -13.34,-18.64 -32.86,-36.52 -58.61,-53.47 -25.75,-17.27 -78.12,-44.76 -157.09,-82.08 -74.18,-35.11 -129.97,-68.51 -167,-100.52 -37.12,-31.95 -66.53,-69.32 -88.65,-112.11 -22.36,-42.45 -33.36,-92.28 -33.36,-149.14 0,-107.29 36.52,-191.65 109.23,-253.08 72.77,-61.43 173.26,-92.03 301.51,-92.03 63.12,0 123.11,7.39 180.56,22.39 57.17,15.01 116.93,35.94 179.46,63.12l-82.92 199.83c-64.84,-26.6 -118.31,-45.01 -160.51,-55.48 -42.47,-10.43 -84.07,-15.85 -124.83,-15.85 -48.68,0 -86.02,11.31 -112.11,33.96 -26.01,22.68 -39.06,52.38 -39.06,88.9 0,22.65 5.41,42.45 15.85,59.17 10.52,17.01 27.19,33.11 50.14,48.97 22.91,15.85 77.28,44.16 163.05,84.92 113.47,54.38 191.06,108.73 233.22,163.05 41.91,54.63 63.12,121.13 63.12,200.42z"/>
   <path class="fil1" d="M12572.3 16482.78l300.04 -131.15 221.01 -610.42 987.82 542.34 580.42 -1293.9 142.82 186.4 7.48 -688.46 -571.56 464.15c8.4,0.23 18.98,0.2 27.07,0.09 4.32,-0.06 218.84,-11.51 232.55,-13.4l-528.86 1074.24 -949.66 -563.88 -449.13 1033.99z"/>
   <path class="fil1" d="M9071.73 14609.62c378.66,12.2 470.39,261.33 2173.95,258.74 819.92,-1.28 1639.84,-2.52 2459.73,-3l2.87 -3345.48 -1281.95 -5.25c-311.46,370.09 -468.87,630.46 -1180.69,710.65 -1019.65,114.91 -1341.27,-224.64 -1330.39,561.56l2305.68 -2.87 -0.79 881.08 -3406.66 -6.02c-35.69,-337.37 -23.15,-810.94 -9.68,-1153.77 41.33,-1048.12 1071.2,-1245.29 1924.95,-1238.03 247.48,2.14 436.46,50.54 413.04,-224.37 -241.12,-173.4 -857.07,-57.87 -1233.1,-90.93l3.73 -953.77c339.27,-48.33 1027.7,-38.62 1375.89,6.57 596.46,77.42 866.43,308.8 1137.98,721.8l1202.11 -179.66 1062.59 -1280.88c-143.24,-125.31 -3310.99,-8.29 -3492.54,-8.53 -1260.15,-1.52 -2054.27,68.27 -2926.88,745.64 -1554.75,1206.95 -1200.96,3503.75 499.79,4409.18l216.45 119.88c66.65,50.31 34,18.83 83.92,77.46z"/>
   <path class="fil1" d="M14420.95 16947.53c0,200.98 -49.53,355.23 -149.15,463.11 -99.67,107.83 -242.33,161.61 -428.05,161.61 -25.1,0 -49.47,-0.96 -73.02,-2.96 32.91,-24.85 72.62,-56.21 119.08,-94.14 69.35,-56.61 118.62,-99.31 147.17,-128.16l0 -17.32 -55.71 0c113.52,-52.01 170.19,-179.41 170.19,-382.14 0,-273.19 -101.88,-409.64 -305.99,-409.64 -102.44,0 -179.46,34.58 -231.53,103.34 -51.81,68.79 -77.9,170.98 -77.9,306.3 0,135.61 25.78,237.48 77.03,306.27 33.19,44.17 76.99,74.12 131.37,89.8 -30.66,46.54 -79.28,109.43 -145.95,188.69 -71.78,-26.97 -132.68,-67.5 -182.71,-121.65 -201.1,-217.68 -202.82,-710.52 0.53,-927.07 99.65,-106.41 242.87,-159.64 429.16,-159.64 186.26,0 328.95,53.45 427.43,160.74 98.8,107.29 148.05,261.59 148.05,462.86z"/>
  </g>
 </g>
</svg>
