<?xml version="1.0" encoding="UTF-8"?>
<!DOCTYPE svg PUBLIC "-//W3C//DTD SVG 1.1//EN" "http://www.w3.org/Graphics/SVG/1.1/DTD/svg11.dtd">
<!-- Creator: CorelDRAW 2017 -->
<svg xmlns="http://www.w3.org/2000/svg" xml:space="preserve" width="9.3978mm" height="3.1326mm" version="1.1" style="shape-rendering:geometricPrecision; text-rendering:geometricPrecision; image-rendering:optimizeQuality; fill-rule:evenodd; clip-rule:evenodd"
viewBox="0 0 939.78 313.26"
 xmlns:xlink="http://www.w3.org/1999/xlink">
 <defs>
  <style type="text/css">
   <![CDATA[
    .fil6 {fill:#393185}
    .fil0 {fill:#393185;fill-rule:nonzero}
    .fil3 {fill:url(#id0)}
    .fil2 {fill:url(#id1)}
    .fil1 {fill:url(#id2)}
    .fil5 {fill:url(#id3)}
    .fil4 {fill:url(#id4)}
   ]]>
  </style>
  <linearGradient id="id0" gradientUnits="userSpaceOnUse" x1="554.22" y1="206.36" x2="750.07" y2="14.91">
   <stop offset="0" style="stop-opacity:1; stop-color:#393185"/>
   <stop offset="0.941176" style="stop-opacity:1; stop-color:#1D5FAB"/>
   <stop offset="1" style="stop-opacity:1; stop-color:#008DD2"/>
  </linearGradient>
  <linearGradient id="id1" gradientUnits="userSpaceOnUse" xlink:href="#id0" x1="770.86" y1="189.62" x2="935.71" y2="28.49">
  </linearGradient>
  <linearGradient id="id2" gradientUnits="userSpaceOnUse" xlink:href="#id0" x1="388.75" y1="196.81" x2="570.73" y2="18.92">
  </linearGradient>
  <radialGradient id="id3" gradientUnits="userSpaceOnUse" gradientTransform="matrix(1.93348 -0 -0 1.92137 -148 -110)" cx="158.4" cy="119.82" r="6412.85" fx="158.4" fy="119.82">
   <stop offset="0" style="stop-opacity:1; stop-color:#E31E24"/>
   <stop offset="0.909804" style="stop-opacity:1; stop-color:#E94F1F"/>
   <stop offset="1" style="stop-opacity:1; stop-color:#EF7F1A"/>
  </radialGradient>
  <radialGradient id="id4" gradientUnits="userSpaceOnUse" gradientTransform="matrix(2.03719 -0 -0 2.02451 -298 -65)" cx="287.59" cy="63.83" r="6123" fx="287.59" fy="63.83">
   <stop offset="0" style="stop-opacity:1; stop-color:#00A0E3"/>
   <stop offset="0.611765" style="stop-opacity:1; stop-color:#1D68B4"/>
   <stop offset="1" style="stop-opacity:1; stop-color:#393185"/>
  </radialGradient>
 </defs>
 <g id="Capa_x0020_1">
  <metadata id="CorelCorpID_0Corel-Layer"/>
  <g id="_1721028770416">
   <path class="fil0" d="M409.55 248.94l-9.76 0 -11.33 -18.24 -3.88 3.67 0 14.57 -8.35 0 0 -39.5 8.35 0 0 17.57 14.49 -17.57 9.85 0 -13.91 16.63 14.54 22.87zm11.54 -24.98c1.3,-1.42 2.7,-2.5 4.18,-3.19 1.49,-0.71 3.05,-1.06 4.67,-1.06 6.53,0 9.79,3.51 9.79,10.54l0 18.69 -8.24 0 0 -17.96c0,-1.66 -0.29,-2.94 -0.86,-3.84 -0.57,-0.9 -1.58,-1.35 -3.02,-1.35 -1.19,0 -2.29,0.34 -3.3,1.03 -1.01,0.67 -1.99,1.57 -2.95,2.67l0 19.45 -8.24 0 0 -28.57 7.97 0 0 3.59zm38.44 -4.25c2.23,0 4.23,0.33 6.02,0.97 1.78,0.64 3.3,1.6 4.57,2.87 1.25,1.26 2.22,2.82 2.89,4.68 0.68,1.85 1.02,3.99 1.02,6.41 0,2.41 -0.34,4.56 -1.02,6.42 -0.67,1.87 -1.64,3.44 -2.89,4.69 -1.27,1.25 -2.79,2.2 -4.57,2.85 -1.79,0.64 -3.79,0.97 -6.02,0.97 -2.21,0 -4.22,-0.33 -6,-0.97 -1.79,-0.65 -3.31,-1.6 -4.58,-2.85 -1.28,-1.25 -2.25,-2.82 -2.94,-4.69 -0.69,-1.86 -1.03,-4.01 -1.03,-6.42 0,-2.42 0.34,-4.56 1.03,-6.41 0.69,-1.86 1.66,-3.42 2.94,-4.68 1.27,-1.27 2.79,-2.23 4.58,-2.87 1.78,-0.64 3.79,-0.97 6,-0.97zm0 23.91c1.88,0 3.37,-0.73 4.47,-2.18 1.1,-1.45 1.65,-3.71 1.65,-6.8 0,-3.09 -0.55,-5.36 -1.65,-6.81 -1.1,-1.45 -2.59,-2.18 -4.47,-2.18 -1.9,0 -3.38,0.73 -4.47,2.18 -1.09,1.45 -1.63,3.72 -1.63,6.81 0,3.09 0.54,5.35 1.63,6.8 1.09,1.45 2.57,2.18 4.47,2.18zm59.13 -23.25l-8.27 28.57 -7.96 0 -5.05 -19.66 -5.09 19.66 -7.79 0 -8.31 -28.57 7.97 0 4.43 20.42 5.32 -20.42 7.24 0 5.16 20.42 4.7 -20.42 7.65 0zm12.03 28.57l-8.24 0 0 -39.5 8.24 0 0 39.5zm20.3 0.63c-2.38,0 -4.5,-0.34 -6.35,-1.03 -1.87,-0.67 -3.43,-1.65 -4.69,-2.93 -1.28,-1.28 -2.24,-2.84 -2.88,-4.66 -0.66,-1.84 -0.99,-3.92 -0.99,-6.24 0,-2.35 0.33,-4.45 1,-6.31 0.67,-1.85 1.61,-3.42 2.87,-4.72 1.24,-1.29 2.77,-2.26 4.56,-2.95 1.8,-0.68 3.84,-1.02 6.13,-1.02 2.23,0 4.22,0.33 6,0.97 1.77,0.64 3.27,1.58 4.51,2.83 1.23,1.24 2.18,2.79 2.85,4.62 0.67,1.82 1,3.92 1,6.31l0 1.99 -20.47 0c0.03,1.44 0.2,2.65 0.53,3.67 0.34,1.01 0.78,1.85 1.36,2.5 0.57,0.66 1.24,1.14 2,1.44 0.78,0.29 1.63,0.44 2.57,0.44 1.52,0 2.79,-0.31 3.77,-0.96 0.99,-0.65 1.66,-1.7 2,-3.15l7.69 0c-0.27,1.5 -0.8,2.82 -1.59,3.96 -0.77,1.15 -1.74,2.1 -2.92,2.87 -1.16,0.76 -2.5,1.35 -4,1.75 -1.52,0.42 -3.17,0.62 -4.95,0.62zm5.84 -17.98c-0.19,-2.44 -0.8,-4.24 -1.84,-5.4 -1.05,-1.17 -2.49,-1.74 -4.35,-1.74 -1.69,0 -3.1,0.63 -4.21,1.9 -1.1,1.26 -1.72,3.01 -1.83,5.24l12.23 0zm31.51 -3.65c-0.79,-0.75 -1.65,-1.31 -2.55,-1.7 -0.9,-0.39 -1.91,-0.59 -3.01,-0.59 -1.81,0 -3.19,0.77 -4.14,2.3 -0.95,1.53 -1.42,3.83 -1.42,6.9 0,5.85 1.74,8.77 5.22,8.77 1.12,0 2.16,-0.33 3.14,-1 0.97,-0.67 1.9,-1.6 2.76,-2.79l0 -11.89zm0.28 17.48c-1.14,1.33 -2.43,2.36 -3.85,3.07 -1.42,0.71 -2.95,1.08 -4.6,1.08 -1.85,0 -3.49,-0.34 -4.91,-1 -1.41,-0.68 -2.61,-1.64 -3.57,-2.91 -0.96,-1.27 -1.69,-2.81 -2.18,-4.63 -0.49,-1.82 -0.74,-3.88 -0.74,-6.18 0,-2.27 0.28,-4.33 0.82,-6.19 0.55,-1.87 1.35,-3.46 2.38,-4.78 1.02,-1.33 2.27,-2.36 3.75,-3.08 1.48,-0.73 3.14,-1.09 5.01,-1.09 1.64,0 3.08,0.22 4.3,0.66 1.23,0.43 2.33,1.14 3.31,2.11l0 -13.04 8.21 0 0 39.5 -7.93 0 0 -3.52zm41.06 1.69c0,4.63 -1.16,8.02 -3.48,10.2 -2.32,2.16 -5.82,3.24 -10.49,3.24 -2.18,0 -4.07,-0.21 -5.67,-0.65 -1.6,-0.44 -2.93,-1.06 -3.97,-1.85 -1.06,-0.79 -1.84,-1.75 -2.35,-2.86 -0.5,-1.09 -0.75,-2.31 -0.75,-3.62l7.8 0c0.07,1.29 0.5,2.24 1.32,2.87 0.81,0.62 2.09,0.93 3.82,0.93 1.17,0 2.13,-0.19 2.87,-0.55 0.75,-0.37 1.33,-0.91 1.75,-1.61 0.43,-0.71 0.71,-1.55 0.87,-2.56 0.14,-1 0.22,-2.13 0.22,-3.41l0 -1.97c-1.24,1.33 -2.54,2.32 -3.9,3 -1.36,0.67 -2.83,1.01 -4.41,1.01 -3.65,0 -6.46,-1.25 -8.43,-3.75 -1.98,-2.48 -2.98,-6.06 -2.98,-10.68 0,-2.15 0.26,-4.14 0.78,-6 0.51,-1.86 1.28,-3.46 2.3,-4.8 1.01,-1.35 2.27,-2.41 3.76,-3.18 1.49,-0.78 3.2,-1.16 5.12,-1.16 1.59,0 3.02,0.22 4.29,0.66 1.25,0.43 2.46,1.14 3.61,2.11l0 -2.11 7.92 0 0 26.74zm-8.2 -19.17c-1.65,-1.52 -3.51,-2.29 -5.57,-2.29 -1.69,0 -3.04,0.73 -4.04,2.19 -1.01,1.47 -1.52,3.8 -1.52,7.01 0,2.71 0.44,4.8 1.31,6.25 0.86,1.45 2.18,2.18 3.91,2.18 2.16,0 4.13,-1.27 5.91,-3.81l0 -11.53zm28.47 21.63c-2.38,0 -4.5,-0.34 -6.36,-1.03 -1.86,-0.67 -3.42,-1.65 -4.68,-2.93 -1.28,-1.28 -2.24,-2.84 -2.89,-4.66 -0.65,-1.84 -0.98,-3.92 -0.98,-6.24 0,-2.35 0.33,-4.45 0.99,-6.31 0.67,-1.85 1.62,-3.42 2.88,-4.72 1.24,-1.29 2.76,-2.26 4.56,-2.95 1.8,-0.68 3.84,-1.02 6.13,-1.02 2.22,0 4.22,0.33 6,0.97 1.77,0.64 3.27,1.58 4.51,2.83 1.23,1.24 2.18,2.79 2.85,4.62 0.67,1.82 0.99,3.92 0.99,6.31l0 1.99 -20.46 0c0.02,1.44 0.2,2.65 0.53,3.67 0.34,1.01 0.78,1.85 1.36,2.5 0.57,0.66 1.24,1.14 2,1.44 0.77,0.29 1.63,0.44 2.57,0.44 1.52,0 2.79,-0.31 3.77,-0.96 0.99,-0.65 1.65,-1.7 1.99,-3.15l7.69 0c-0.27,1.5 -0.79,2.82 -1.58,3.96 -0.77,1.15 -1.75,2.1 -2.92,2.87 -1.16,0.76 -2.51,1.35 -4.01,1.75 -1.51,0.42 -3.16,0.62 -4.94,0.62zm5.83 -17.98c-0.18,-2.44 -0.79,-4.24 -1.84,-5.4 -1.04,-1.17 -2.48,-1.74 -4.34,-1.74 -1.69,0 -3.1,0.63 -4.21,1.9 -1.1,1.26 -1.72,3.01 -1.83,5.24l12.22 0zm42.75 -11.88c2.23,0 4.23,0.33 6.01,0.97 1.78,0.64 3.31,1.6 4.57,2.87 1.26,1.26 2.23,2.82 2.9,4.68 0.68,1.85 1.02,3.99 1.02,6.41 0,2.41 -0.34,4.56 -1.02,6.42 -0.67,1.87 -1.64,3.44 -2.9,4.69 -1.26,1.25 -2.79,2.2 -4.57,2.85 -1.78,0.64 -3.78,0.97 -6.01,0.97 -2.22,0 -4.22,-0.33 -6,-0.97 -1.79,-0.65 -3.32,-1.6 -4.58,-2.85 -1.28,-1.25 -2.25,-2.82 -2.95,-4.69 -0.69,-1.86 -1.03,-4.01 -1.03,-6.42 0,-2.42 0.34,-4.56 1.03,-6.41 0.7,-1.86 1.67,-3.42 2.95,-4.68 1.26,-1.27 2.79,-2.23 4.58,-2.87 1.78,-0.64 3.78,-0.97 6,-0.97zm0 23.91c1.87,0 3.36,-0.73 4.46,-2.18 1.11,-1.45 1.66,-3.71 1.66,-6.8 0,-3.09 -0.55,-5.36 -1.66,-6.81 -1.1,-1.45 -2.59,-2.18 -4.46,-2.18 -1.9,0 -3.39,0.73 -4.48,2.18 -1.09,1.45 -1.63,3.72 -1.63,6.81 0,3.09 0.54,5.35 1.63,6.8 1.09,1.45 2.58,2.18 4.48,2.18zm28.98 -17.31l0 22.63 -8.24 0 0 -22.63 -4.09 0 0 -5.94 4.09 0 0 -2.01c0,-3.45 0.78,-5.98 2.34,-7.58 1.56,-1.61 3.94,-2.4 7.15,-2.4 1.01,0 1.91,0.05 2.73,0.16 0.81,0.1 1.57,0.24 2.27,0.42l0 6.02c-0.53,-0.07 -1.04,-0.13 -1.56,-0.19 -0.51,-0.06 -1.06,-0.09 -1.66,-0.09 -1.1,0 -1.88,0.3 -2.33,0.9 -0.46,0.6 -0.7,1.59 -0.7,2.97l0 1.8 4.99 0 0 5.94 -4.99 0zm55.67 22.63l-30.22 0 0 -39.5 29.33 0 0 7.02 -20.98 0 0 8.85 19.57 0 0 7.09 -19.57 0 0 9.45 21.87 0 0 7.09zm13.87 -24.98c1.3,-1.42 2.7,-2.5 4.19,-3.19 1.49,-0.71 3.04,-1.06 4.66,-1.06 6.53,0 9.79,3.51 9.79,10.54l0 18.69 -8.24 0 0 -17.96c0,-1.66 -0.28,-2.94 -0.86,-3.84 -0.57,-0.9 -1.58,-1.35 -3.02,-1.35 -1.18,0 -2.29,0.34 -3.29,1.03 -1.01,0.67 -2,1.57 -2.96,2.67l0 19.45 -8.24 0 0 -28.57 7.97 0 0 3.59zm51.67 23.15c0,4.63 -1.16,8.02 -3.48,10.2 -2.32,2.16 -5.83,3.24 -10.49,3.24 -2.18,0 -4.07,-0.21 -5.68,-0.65 -1.59,-0.44 -2.93,-1.06 -3.97,-1.85 -1.05,-0.79 -1.84,-1.75 -2.34,-2.86 -0.51,-1.09 -0.75,-2.31 -0.75,-3.62l7.79 0c0.07,1.29 0.5,2.24 1.33,2.87 0.8,0.62 2.08,0.93 3.82,0.93 1.17,0 2.13,-0.19 2.87,-0.55 0.75,-0.37 1.32,-0.91 1.74,-1.61 0.44,-0.71 0.72,-1.55 0.87,-2.56 0.14,-1 0.22,-2.13 0.22,-3.41l0 -1.97c-1.24,1.33 -2.54,2.32 -3.9,3 -1.36,0.67 -2.82,1.01 -4.41,1.01 -3.64,0 -6.45,-1.25 -8.42,-3.75 -1.98,-2.48 -2.98,-6.06 -2.98,-10.68 0,-2.15 0.26,-4.14 0.77,-6 0.52,-1.86 1.28,-3.46 2.3,-4.8 1.02,-1.35 2.27,-2.41 3.76,-3.18 1.49,-0.78 3.2,-1.16 5.13,-1.16 1.59,0 3.02,0.22 4.28,0.66 1.26,0.43 2.47,1.14 3.61,2.11l0 -2.11 7.93 0 0 26.74zm-8.21 -19.17c-1.65,-1.52 -3.5,-2.29 -5.56,-2.29 -1.69,0 -3.04,0.73 -4.05,2.19 -1.01,1.47 -1.51,3.8 -1.51,7.01 0,2.71 0.43,4.8 1.3,6.25 0.87,1.45 2.18,2.18 3.92,2.18 2.15,0 4.12,-1.27 5.9,-3.81l0 -11.53zm23.42 21l-8.24 0 0 -39.5 8.24 0 0 39.5zm15.25 0l-8.24 0 0 -28.57 8.24 0 0 28.57zm0 -33.2l-8.24 0 0 -6.57 8.24 0 0 6.57zm18.06 33.83c-2.17,0 -4.05,-0.19 -5.65,-0.58 -1.58,-0.38 -2.9,-0.94 -3.96,-1.71 -1.05,-0.75 -1.86,-1.71 -2.43,-2.87 -0.56,-1.14 -0.87,-2.5 -0.97,-4.04l7.51 0c0.07,1.45 0.54,2.56 1.4,3.32 0.85,0.76 2.23,1.14 4.1,1.14 1.58,0 2.79,-0.3 3.65,-0.9 0.84,-0.6 1.26,-1.45 1.26,-2.56 0,-0.57 -0.13,-1.04 -0.37,-1.39 -0.26,-0.37 -0.65,-0.67 -1.19,-0.93 -0.54,-0.27 -1.22,-0.52 -2.04,-0.75 -0.83,-0.23 -1.82,-0.48 -2.98,-0.76 -1.41,-0.34 -2.74,-0.72 -4.01,-1.12 -1.27,-0.4 -2.39,-0.93 -3.37,-1.59 -0.97,-0.65 -1.74,-1.49 -2.32,-2.51 -0.56,-1.01 -0.85,-2.31 -0.85,-3.9 0,-1.25 0.27,-2.4 0.79,-3.48 0.53,-1.06 1.29,-1.99 2.31,-2.76 1.02,-0.76 2.28,-1.38 3.75,-1.81 1.48,-0.44 3.18,-0.66 5.1,-0.66 4.05,0 7.06,0.71 9.03,2.14 1.97,1.43 2.99,3.5 3.06,6.22l-7.18 0c-0.04,-1.17 -0.49,-2.07 -1.35,-2.69 -0.84,-0.63 -2,-0.93 -3.49,-0.93 -1.29,0 -2.33,0.26 -3.14,0.77 -0.82,0.52 -1.22,1.28 -1.22,2.27 0,0.51 0.07,0.92 0.24,1.26 0.16,0.33 0.47,0.63 0.91,0.9 0.45,0.26 1.08,0.52 1.9,0.75 0.83,0.25 1.91,0.53 3.27,0.85 1.78,0.41 3.35,0.85 4.7,1.3 1.35,0.45 2.47,1 3.39,1.67 0.9,0.68 1.58,1.49 2.05,2.47 0.47,0.98 0.7,2.2 0.7,3.68 0,1.34 -0.25,2.57 -0.74,3.68 -0.49,1.12 -1.25,2.09 -2.27,2.91 -1.03,0.82 -2.35,1.45 -3.94,1.91 -1.59,0.46 -3.47,0.7 -5.65,0.7zm26.17 -25.68c1.15,-1.38 2.45,-2.43 3.93,-3.12 1.48,-0.71 3.04,-1.06 4.65,-1.06 6.53,0 9.79,3.51 9.79,10.54l0 18.69 -8.24 0 0 -17.96c0,-1.87 -0.3,-3.2 -0.9,-4 -0.61,-0.79 -1.61,-1.19 -2.98,-1.19 -2.11,0 -4.18,1.24 -6.25,3.7l0 19.45 -8.24 0 0 -39.5 8.24 0 0 14.45z"/>
   <polygon class="fil1" points="380.09,35.5 437.78,35.57 436.01,90.28 512.59,30.66 576.37,31.86 494.34,101.64 579.4,184.09 510.83,185.07 438.12,124.87 438.6,182.57 380.2,181.79 "/>
   <polygon class="fil2" points="769.51,32.78 937.07,33.78 936.37,65.5 834.06,65.39 833.91,89.22 935.32,89.76 935.38,121.36 833.48,119.32 833.79,148.43 934.1,148.49 934.21,185.32 769.51,184.34 "/>
   <path class="fil3" d="M652.15 30.39c61.3,0 110.99,35.93 110.99,80.25 0,44.32 -49.69,80.25 -110.99,80.25 -61.3,0 -111,-35.93 -111,-80.25 0,-44.32 49.7,-80.25 111,-80.25zm3.73 32.37c23.18,0 41.97,21.44 41.97,47.88 0,26.44 -18.79,47.88 -41.97,47.88 -23.18,0 -41.98,-21.44 -41.98,-47.88 0,-26.44 18.8,-47.88 41.98,-47.88z"/>
   <path class="fil4" d="M238.92 -0.3c67.2,0 121.68,55.21 121.68,123.32 0,68.11 -54.48,123.32 -121.68,123.32 -67.2,0 -121.68,-55.21 -121.68,-123.32 0,-68.11 54.48,-123.32 121.68,-123.32z"/>
   <path class="fil5" d="M81.4 145.83c3.39,-36.09 13.52,-69.78 27.15,-94.09 6.25,25.67 6.47,51.33 18.75,77 14.36,-14.96 46.72,-15.43 76.35,-18.1l-62.18 56.85c-8.76,8.01 22.65,15.89 34.44,97.44 -18.53,-25.2 -38.57,-47.56 -67.36,-53.57 -28.41,25.18 -58.6,62.27 -82.62,102.21 12.89,-39.22 17.56,-76.23 44.17,-117.11 -16.51,-12.75 -42.43,-12.86 -72.1,-7.94 27.43,-23.38 55.97,-37.01 83.4,-42.69z"/>
   <path class="fil6" d="M69.52 164.39c-2.33,3.26 -3.4,8 -1.98,11.73 -2.9,-0.45 -7.45,-10.7 1.98,-11.73z"/>
   <path class="fil6" d="M130.82 147.36c2.82,2.86 4.61,7.37 3.79,11.28 2.79,-0.9 5.69,-11.74 -3.79,-11.28z"/>
   <path class="fil6" d="M67.39 168.91c36.97,-8.37 30.31,28.09 66.67,-16.35 -24.88,71.57 -27.4,33.95 -66.67,16.35z"/>
  </g>
 </g>
</svg>
