<?xml version="1.0" encoding="UTF-8"?>
<!DOCTYPE svg PUBLIC "-//W3C//DTD SVG 1.1//EN" "http://www.w3.org/Graphics/SVG/1.1/DTD/svg11.dtd">
<!-- Creator: CorelDRAW Standard 2021 (64-Bit Versión de evaluación) -->
<svg xmlns="http://www.w3.org/2000/svg" xml:space="preserve" width="215.9mm" height="76.2mm" version="1.1" style="shape-rendering:geometricPrecision; text-rendering:geometricPrecision; image-rendering:optimizeQuality; fill-rule:evenodd; clip-rule:evenodd"
viewBox="0 0 21590 7620"
 xmlns:xlink="http://www.w3.org/1999/xlink"
 xmlns:xodm="http://www.corel.com/coreldraw/odm/2003">
 <defs>
  <style type="text/css">
   <![CDATA[
    .str1 {stroke:#FEFEFE;stroke-width:20;stroke-miterlimit:22.9256}
    .str0 {stroke:#373435;stroke-width:7.62;stroke-miterlimit:22.9256}
    .fil7 {fill:#FEFEFE}
    .fil9 {fill:white}
    .fil4 {fill:#D2D3D5;fill-rule:nonzero}
    .fil0 {fill:#373435;fill-rule:nonzero}
    .fil10 {fill:#201E1E;fill-rule:nonzero}
    .fil1 {fill:black;fill-rule:nonzero}
    .fil3 {fill:#005534;fill-rule:nonzero}
    .fil2 {fill:#014FA1;fill-rule:nonzero}
    .fil6 {fill:#606060;fill-rule:nonzero}
    .fil5 {fill:#A2231D;fill-rule:nonzero}
    .fil8 {fill:url(#id12);fill-rule:nonzero}
   ]]>
  </style>
     <mask id="id0">
  <linearGradient id="id1" gradientUnits="userSpaceOnUse" x1="11051.79" y1="1917.53" x2="1724.16" y2="8572.02">
   <stop offset="0" style="stop-opacity:1; stop-color:white"/>
   <stop offset="0.901961" style="stop-opacity:0.501961; stop-color:white"/>
   <stop offset="1" style="stop-opacity:0; stop-color:white"/>
  </linearGradient>
      <rect style="fill:url(#id1)" x="3177.21" y="2006.32" width="14844.43" height="3715.26"/>
     </mask>
     <mask id="id2">
  <linearGradient id="id3" gradientUnits="userSpaceOnUse" x1="11051.79" y1="1917.53" x2="1724.16" y2="8572.02">
   <stop offset="0" style="stop-opacity:1; stop-color:white"/>
   <stop offset="0.901961" style="stop-opacity:0.501961; stop-color:white"/>
   <stop offset="1" style="stop-opacity:0; stop-color:white"/>
  </linearGradient>
      <rect style="fill:url(#id3)" x="3177.21" y="2006.32" width="14844.43" height="3715.26"/>
     </mask>
     <mask id="id4">
  <linearGradient id="id5" gradientUnits="userSpaceOnUse" x1="11051.79" y1="1917.53" x2="1724.16" y2="8572.02">
   <stop offset="0" style="stop-opacity:1; stop-color:white"/>
   <stop offset="0.901961" style="stop-opacity:0.501961; stop-color:white"/>
   <stop offset="1" style="stop-opacity:0; stop-color:white"/>
  </linearGradient>
      <rect style="fill:url(#id5)" x="3177.21" y="2006.32" width="14844.43" height="3715.26"/>
     </mask>
     <mask id="id6">
  <linearGradient id="id7" gradientUnits="userSpaceOnUse" x1="11051.79" y1="1917.53" x2="1724.16" y2="8572.02">
   <stop offset="0" style="stop-opacity:1; stop-color:white"/>
   <stop offset="0.901961" style="stop-opacity:0.501961; stop-color:white"/>
   <stop offset="1" style="stop-opacity:0; stop-color:white"/>
  </linearGradient>
      <rect style="fill:url(#id7)" x="3177.21" y="2006.32" width="14844.43" height="3715.26"/>
     </mask>
    <mask id="id8">
  <linearGradient id="id9" gradientUnits="userSpaceOnUse" x1="11036.71" y1="1935.06" x2="1709.07" y2="8589.55">
   <stop offset="0" style="stop-opacity:1; stop-color:white"/>
   <stop offset="1" style="stop-opacity:0; stop-color:white"/>
  </linearGradient>
     <rect style="fill:url(#id9)" x="10455.08" y="2063.49" width="4100.39" height="3630.31"/>
    </mask>
    <mask id="id10">
  <linearGradient id="id11" gradientUnits="userSpaceOnUse" x1="9393.6" y1="4695.91" x2="9365.14" y2="5839.6">
   <stop offset="0" style="stop-opacity:1; stop-color:white"/>
   <stop offset="1" style="stop-opacity:0; stop-color:white"/>
  </linearGradient>
     <rect style="fill:url(#id11)" x="1735.91" y="4652.46" width="17785.74" height="1135.44"/>
    </mask>
  <linearGradient id="id12" gradientUnits="userSpaceOnUse" x1="11690.38" y1="2738.97" x2="9294.67" y2="7201.08">
   <stop offset="0" style="stop-opacity:1; stop-color:#E6E7E8"/>
   <stop offset="0.0705882" style="stop-opacity:1; stop-color:#F2F3F3"/>
   <stop offset="1" style="stop-opacity:1; stop-color:white"/>
  </linearGradient>
 </defs>
 <g id="Capa_x0020_1">
  <metadata id="CorelCorpID_0Corel-Layer"/>
  <g id="_1173785612720">
   <g>
    <path class="fil0 str0" d="M3317.22 3944.19c0,-537.09 177.46,-979.79 532.37,-1329.98 354.92,-349.25 775.91,-523.87 1262.02,-523.87 538.98,0 983.57,175.56 1335.65,526.7 352.08,352.08 528.59,795.73 528.59,1331.87 0,533.31 -174.62,976.01 -522.93,1328.09 -348.3,352.09 -787.23,528.6 -1315.82,528.6 -529.54,0 -964.69,-175.57 -1307.33,-525.76 -341.7,-350.2 -512.55,-795.73 -512.55,-1335.65zm1833.09 -1128.93c-304.88,-5.66 -550.3,99.12 -737.2,315.27 -186.89,216.16 -280.34,494.62 -280.34,835.37 0,322.82 95.34,589.95 286.01,802.33 189.72,212.38 430.42,318.1 721.15,318.1 304.89,0 551.25,-104.77 739.09,-314.32 187.84,-208.61 281.29,-485.18 281.29,-827.82 0,-337.92 -91.56,-608.83 -275.63,-813.66 -184.06,-204.83 -428.54,-309.6 -734.37,-315.27zm2247.57 -685.28l1239.36 0c529.54,0 955.25,167.07 1278.07,500.28 322.82,334.14 484.23,773.07 484.23,1318.65 0,547.47 -166.13,986.4 -499.33,1316.77 -333.21,329.42 -775.91,494.61 -1329.04,494.61l-1173.29 0 0 -3630.31zm781.56 685.28l0 2242.75 310.55 0c322.82,0 587.12,-87.78 794.78,-262.4 206.72,-175.57 310.55,-467.24 310.55,-876.9 0,-237.87 -50.03,-448.37 -150.08,-631.49 -100.06,-184.06 -244.48,-308.66 -434.21,-373.79 -189.72,-65.13 -370.96,-98.17 -542.75,-98.17l-288.84 0zm6742.6 -685.28l831.59 0 734.37 1106.27 747.58 -1106.27 812.71 0 -1149.69 1725.48 1262.96 1904.83 -811.77 0 -861.79 -1288.45 -858.97 1288.45 -825.93 0 1274.29 -1902 -1155.35 -1728.31z"/>
    <polygon class="fil1 str0" points="11055.65,2129.98 11987.3,2129.98 12668.81,4304.77 13351.26,2129.98 14248.93,2129.98 14710.5,5760.29 13967.64,5760.29 13648.6,3206.05 12847.21,5760.29 12491.35,5760.29 11672.03,3183.39 11368.09,5760.29 10610.12,5760.29 "/>
   </g>
   <g>
    <path class="fil2" style="mask:url(#id0)" d="M3177.21 3860.16c0,-537.09 177.46,-979.79 532.37,-1329.98 354.91,-349.25 775.91,-523.86 1262.02,-523.86 538.99,0 983.58,175.56 1335.65,526.7 352.09,352.07 528.6,795.71 528.6,1331.86 0,533.31 -174.61,976.01 -522.94,1328.1 -348.29,352.09 -787.22,528.6 -1315.82,528.6 -529.53,0 -964.68,-175.58 -1307.33,-525.78 -341.69,-350.17 -512.55,-795.71 -512.55,-1335.64zm1833.11 -1128.93c-304.9,-5.65 -550.32,99.11 -737.21,315.29 -186.9,216.15 -280.34,494.6 -280.34,835.36 0,322.83 95.34,589.94 286,802.32 189.72,212.39 430.44,318.12 721.17,318.12 304.88,0 551.24,-104.79 739.08,-314.35 187.85,-208.59 281.29,-485.16 281.29,-827.81 0,-337.92 -91.57,-608.82 -275.62,-813.64 -184.07,-204.84 -428.54,-309.63 -734.37,-315.29z"/>
    <path class="fil3" style="mask:url(#id2)" d="M7257.9 2045.96l1239.36 0c529.55,0 955.26,167.07 1278.07,500.27 322.83,334.14 484.24,773.07 484.24,1318.65 0,547.47 -166.15,986.39 -499.34,1316.77 -333.2,329.44 -775.89,494.62 -1329.03,494.62l-1173.3 0 0 -3630.31zm781.56 685.27l0 2242.75 310.55 0c322.83,0 587.12,-87.78 794.79,-262.39 206.71,-175.58 310.55,-467.24 310.55,-876.9 0,-237.87 -50.04,-448.36 -150.1,-631.49 -100.04,-184.07 -244.46,-308.67 -434.2,-373.78 -189.72,-65.14 -370.95,-98.19 -542.74,-98.19l-288.85 0z"/>
    <polygon class="fil4" style="mask:url(#id4)" points="10915.71,2045.96 11847.35,2045.96 12528.87,4220.74 13211.31,2045.96 14108.98,2045.96 14570.55,5676.27 13827.69,5676.27 13508.66,3122.02 12707.25,5676.27 12351.41,5676.27 11532.09,3099.37 11228.13,5676.27 10470.17,5676.27 "/>
    <polygon class="fil5" style="mask:url(#id6)" points="14782.1,2045.96 15613.69,2045.96 16348.06,3152.22 17095.65,2045.96 17908.37,2045.96 16758.67,3771.43 18021.64,5676.27 17209.87,5676.27 16348.06,4387.81 15489.1,5676.27 14663.16,5676.27 15937.47,3774.27 "/>
   </g>
   <g>
    <path class="fil6" d="M3198.6 6748.32l0 0 0 0 208.34 -543.67 30.42 0 77.56 0 222.79 543.67 -30.42 0 -82.12 0 -63.11 -164.24 -196.94 0 -60.07 164.24 -30.41 0 -76.04 0zm187.05 -223.55l153.6 0 -56.27 -150.56 -22.05 -64.63 -15.97 55.51 -59.31 159.68zm411.37 223.55l0 0 0 0 0 -543.67 30.42 0 241.04 1.52c3.04,0 5.83,0 8.36,0 2.53,0 5.32,0 8.36,0 2.54,0.51 5.07,0.76 7.61,0.76 2.53,0 4.81,0 6.84,0 2.54,0 4.82,0 6.85,0 2.02,0 4.05,0 6.08,0 2.03,0.51 4.05,0.76 6.08,0.76 2.03,0 3.8,0 5.32,0 3.55,0.51 6.97,0.89 10.27,1.14 3.29,0.25 6.46,0.89 9.5,1.9 1.52,0.51 3.05,0.89 4.57,1.14 1.52,0.26 3.04,0.38 4.56,0.38 1.52,0.51 3.04,0.89 4.56,1.14 1.52,0.26 3.04,0.64 4.56,1.14l3.04 1.52 4.57 1.52 3.04 1.53 4.56 0.76c6.59,2.53 12.8,5.57 18.63,9.12 5.83,3.55 11.28,7.35 16.35,11.41 5.07,4.56 9.88,9.37 14.45,14.44 4.56,5.07 8.61,10.65 12.16,16.73 4.06,6.08 7.48,12.42 10.27,19.01 2.78,6.59 5.19,13.43 7.22,20.53 2.03,6.59 3.55,13.56 4.56,20.91 1.02,7.35 1.52,14.83 1.52,22.43 0,10.65 -0.88,20.53 -2.66,29.66 -1.77,9.12 -4.18,17.99 -7.22,26.61 -3.55,8.11 -7.73,15.97 -12.55,23.57 -4.81,7.61 -10.52,14.45 -17.11,20.53 -6.59,6.59 -13.81,12.42 -21.67,17.49 -7.85,5.07 -16.6,9.63 -26.23,13.69 -9.63,3.55 -19.9,6.84 -30.8,9.88 -10.89,3.05 -22.68,5.33 -35.35,6.85 1.01,0.5 2.15,1.14 3.42,1.9 1.27,0.76 2.41,1.39 3.42,1.9 1.01,0.51 2.03,1.01 3.04,1.52 1.01,0.51 2.03,1.01 3.04,1.52l3.04 1.52 2.29 0.76 3.04 1.52 2.28 1.52 1.52 1.52 2.28 0.76 1.52 1.53 1.52 1.52 3.04 2.28 4.57 2.28 2.28 2.28 2.28 2.28 2.28 2.28 3.04 2.28 2.28 2.28 2.28 2.29 2.28 3.04 3.05 2.28c1.01,1.01 1.9,2.03 2.66,3.04 0.76,1.01 1.39,2.03 1.9,3.04 0.5,0.51 1.01,1.01 1.52,1.52 0.51,0.51 1.01,0.76 1.52,0.76 0.51,0.51 1.01,1.02 1.52,1.52 0.51,0.51 1.01,1.02 1.52,1.52 1.01,1.02 2.03,2.16 3.04,3.43 1.02,1.26 2.03,2.66 3.04,4.18 1.02,1.52 2.03,2.91 3.04,4.18 1.02,1.27 2.03,2.41 3.05,3.42 0.5,0.51 1.01,1.14 1.52,1.9 0.5,0.76 1.01,1.4 1.52,1.9 0,1.02 0.25,1.78 0.76,2.28 0.51,0.51 1.01,1.02 1.52,1.52 1.01,1.53 2.03,2.92 3.04,4.19 1.01,1.26 2.03,2.4 3.04,3.42l3.04 4.56 3.05 4.56 1.52 2.28 1.52 1.53 0.76 1.52 1.52 0.76 95.05 147.51 -30.42 0 -90.49 0 -72.23 -111.02c-2.54,-4.05 -4.94,-7.85 -7.22,-11.4 -2.29,-3.55 -4.44,-6.84 -6.47,-9.89 -2.03,-3.04 -3.93,-5.95 -5.7,-8.74 -1.78,-2.79 -3.42,-5.2 -4.94,-7.22 -1.52,-2.03 -3.04,-3.93 -4.57,-5.71 -1.52,-1.77 -2.78,-3.67 -3.8,-5.7 -1.01,-2.03 -2.15,-3.93 -3.42,-5.7 -1.27,-1.78 -2.41,-3.68 -3.42,-5.71l-1.52 -0.76 -0.76 -1.52 -1.52 -1.52 -0.76 -1.52 -3.04 -3.04 -3.05 -3.8 -3.04 -3.04 -3.04 -4.57 -2.28 -3.04 -2.28 -2.28 -3.04 -3.04 -2.28 -2.28 -2.29 -2.28 -2.28 -3.04 -3.04 -2.28 -2.28 -2.29 -3.04 -2.28 -2.28 -2.28 -3.04 -1.52 -2.28 -2.28 -4.57 -3.8 -4.56 -3.8 -1.52 -0.76 -1.52 -1.52 -1.52 0 -1.52 -1.53 -3.04 -1.52 -3.05 -1.52c-0.5,0 -1.26,-0.12 -2.28,-0.38 -1.01,-0.25 -1.77,-0.63 -2.28,-1.14 -1.01,0 -1.9,-0.12 -2.66,-0.38 -0.76,-0.25 -1.65,-0.38 -2.66,-0.38 -1.52,-0.51 -3.17,-0.89 -4.94,-1.14 -1.78,-0.25 -3.68,-0.63 -5.71,-1.14 -1.01,0 -2.02,0 -3.04,0 -1.01,0 -2.02,-0.25 -3.04,-0.76 -1.52,0 -2.91,0 -4.18,0 -1.27,0 -2.66,0 -4.18,0 -3.04,0 -6.09,-0.25 -9.13,-0.76 -3.04,-0.51 -6.33,-1.01 -9.88,-1.52l-52.47 0 0 241.8 -30.41 0 -72.24 0zm102.65 -303.39l0 0 0 0 139.91 1.52c1.02,0 2.03,0 3.04,0 1.02,0 1.78,-0.25 2.28,-0.76 1.02,0 2.03,0 3.05,0 1.01,0 1.77,0 2.28,0 4.05,0 7.6,-0.13 10.64,-0.38 3.04,-0.25 6.09,-0.64 9.13,-1.14 2.53,-0.51 5.19,-1.02 7.98,-1.52 2.79,-0.51 5.45,-1.02 7.98,-1.52 2.54,-1.02 5.2,-1.9 7.99,-2.66 2.79,-0.77 5.45,-1.65 7.98,-2.67l1.52 0 2.28 -1.52 2.29 -0.76 2.28 -1.52c3.55,-1.52 6.84,-3.42 9.88,-5.7 3.04,-2.28 6.08,-4.69 9.13,-7.22 3.04,-2.54 5.83,-5.33 8.36,-8.37 2.54,-3.04 4.82,-6.34 6.84,-9.88 2.03,-3.55 3.81,-7.23 5.33,-11.03 1.52,-3.8 2.78,-7.48 3.8,-11.02 1.01,-4.06 1.9,-7.99 2.66,-11.79 0.76,-3.8 1.14,-7.73 1.14,-11.79 0,-2.02 -0.13,-3.93 -0.38,-5.7 -0.25,-1.77 -0.38,-3.67 -0.38,-5.7 -0.51,-1.52 -0.89,-3.17 -1.14,-4.94 -0.25,-1.78 -0.63,-3.68 -1.14,-5.71 -0.51,-4.05 -1.52,-7.73 -3.04,-11.02 -1.52,-3.3 -3.3,-6.72 -5.33,-10.27 -2.02,-3.55 -4.05,-6.84 -6.08,-9.88 -2.03,-3.04 -4.31,-5.83 -6.84,-8.37 -2.54,-2.53 -5.32,-4.81 -8.37,-6.84 -3.04,-2.03 -6.08,-4.06 -9.12,-6.08 -2.53,-1.02 -5.07,-2.16 -7.6,-3.43 -2.54,-1.26 -5.07,-2.15 -7.61,-2.66 -2.53,-1.01 -5.19,-1.9 -7.98,-2.66 -2.79,-0.76 -5.45,-1.39 -7.99,-1.9 -3.04,-0.51 -6.08,-0.89 -9.12,-1.14 -3.04,-0.25 -6.59,-0.63 -10.65,-1.14 -3.54,-0.51 -7.35,-1.01 -11.4,-1.52 -4.06,-0.51 -8.11,-1.01 -12.17,-1.52l-141.43 0 0 180.21zm610.59 303.39l0 0 0 0 0 -479.8 -179.45 0 0 -63.87 30.41 0 431.9 0 0 63.87 -180.21 0 0 479.8 -30.42 0 -72.23 0zm368.02 0l0 0 0 0 0 -543.67 30.42 0 72.24 0 0 543.67 -30.42 0 -72.24 0zm-8.36 -580.17l0 0 0 0 49.43 -104.17 30.41 0 87.44 0 -81.36 104.17 -30.41 0 -55.51 0zm658.49 390.07l0 0 0 0 71.47 19.77c-3.54,14.2 -7.98,27.76 -13.3,40.69 -5.32,12.92 -11.53,24.96 -18.63,36.11 -6.59,11.16 -13.94,21.55 -22.05,31.18 -8.11,9.63 -16.98,18.25 -26.62,25.85 -9.63,8.11 -20.02,14.96 -31.17,20.53 -11.15,5.58 -22.81,10.39 -34.98,14.45 -12.16,3.04 -24.71,5.45 -37.64,7.22 -12.92,1.78 -26.48,2.66 -40.68,2.66l-30.41 0.76c-13.69,-0.5 -26.87,-1.39 -39.54,-2.66 -12.68,-1.26 -24.84,-3.17 -36.5,-5.7 -11.15,-2.03 -21.93,-5.07 -32.32,-9.12 -10.39,-4.06 -20.15,-8.62 -29.27,-13.69 -9.63,-5.58 -18.5,-11.66 -26.62,-18.25 -8.11,-6.59 -15.71,-13.94 -22.81,-22.05 -7.09,-8.62 -13.68,-17.62 -19.77,-26.99 -6.08,-9.38 -11.66,-19.65 -16.72,-30.8 -2.54,-5.58 -4.95,-11.41 -7.23,-17.49 -2.28,-6.08 -4.69,-12.42 -7.22,-19.01 -2.03,-6.08 -3.93,-12.29 -5.7,-18.63 -1.78,-6.33 -3.17,-12.8 -4.19,-19.39 -1.52,-6.59 -2.66,-13.18 -3.42,-19.77 -0.76,-6.59 -1.65,-13.18 -2.66,-19.77 -0.51,-6.59 -0.89,-13.3 -1.14,-20.15 -0.25,-6.84 -0.38,-13.56 -0.38,-20.15 0,-20.78 1.39,-40.68 4.18,-59.69 2.79,-19.01 7.23,-36.88 13.31,-53.6 5.57,-16.73 12.8,-32.45 21.67,-47.15 8.87,-14.7 19.14,-28.38 30.79,-41.06 11.66,-12.67 24.21,-23.7 37.64,-33.07 13.44,-9.38 28.01,-17.37 43.73,-23.96 15.71,-6.08 32.31,-10.77 49.8,-14.06 17.49,-3.3 36.12,-4.95 55.89,-4.95l30.41 0c13.18,0 26.11,0.89 38.78,2.67 12.68,1.77 24.59,4.43 35.74,7.98 11.66,3.55 22.56,7.73 32.7,12.55 10.14,4.81 20.02,10.77 29.65,17.86 9.13,6.59 17.49,14.07 25.09,22.44 7.61,8.36 14.7,17.61 21.29,27.75 6.59,9.63 12.55,20.02 17.87,31.18 5.33,11.15 9.76,22.81 13.31,34.97l-70.72 18.25 -30.41 0c-3.55,-9.63 -7.22,-18.63 -11.03,-26.99 -3.8,-8.37 -7.98,-16.1 -12.54,-23.19 -4.56,-7.1 -9.51,-13.69 -14.83,-19.77 -5.32,-6.09 -10.77,-11.41 -16.35,-15.97 -5.57,-4.56 -11.66,-8.62 -18.25,-12.17 -6.59,-3.55 -13.68,-6.33 -21.29,-8.36 -5.07,-1.52 -10.64,-2.79 -16.73,-3.8 -6.08,-1.02 -12.42,-1.78 -19.01,-2.28 -11.15,0.5 -21.92,1.9 -32.31,4.18 -10.39,2.28 -20.15,5.45 -29.28,9.5 -11.15,4.56 -21.41,10.39 -30.79,17.49 -9.38,7.1 -18.12,15.46 -26.23,25.09 -8.12,9.64 -15.09,20.03 -20.92,31.18 -5.82,11.15 -10.77,23.32 -14.82,36.5 -4.06,13.18 -7.1,27.37 -9.13,42.58 -2.02,15.21 -3.04,31.17 -3.04,47.9 0,17.75 1.02,34.6 3.04,50.57 2.03,15.97 4.82,30.79 8.37,44.48 4.05,13.69 8.87,26.36 14.44,38.02 5.58,11.66 12.42,22.56 20.53,32.7 7.61,9.63 15.97,18.24 25.1,25.85 9.12,7.6 19.01,13.69 29.65,18.25 8.62,4.05 17.87,7.22 27.76,9.5 9.88,2.28 20.4,3.68 31.55,4.18 7.1,-0.5 14.2,-1.39 21.29,-2.66 7.1,-1.26 13.94,-2.91 20.53,-4.94 8.62,-3.04 16.98,-6.84 25.1,-11.4 8.11,-4.57 15.71,-9.89 22.81,-15.97 7.09,-5.58 13.43,-12.04 19.01,-19.39 5.57,-7.35 10.64,-15.34 15.2,-23.95 4.57,-8.62 8.62,-18 12.17,-28.14 3.55,-10.14 6.34,-21.04 8.36,-32.7l30.42 0zm547.47 -353.57l0 0 0 0 72.24 0 0 315.56c0,8.11 -0.13,15.71 -0.38,22.81 -0.25,7.09 -0.63,13.68 -1.14,19.77 -0.51,6.59 -0.89,12.54 -1.14,17.87 -0.26,5.32 -0.64,10.26 -1.14,14.82 -0.51,4.57 -1.27,9.13 -2.28,13.69 -1.02,4.56 -2.03,8.87 -3.05,12.93 -1.01,4.56 -2.15,8.74 -3.42,12.54 -1.26,3.81 -2.66,7.73 -4.18,11.79l-1.52 2.28 0 2.28 -1.52 2.28 -0.76 2.28 -1.52 2.28 0 1.53 -1.52 2.28 -0.76 2.28c-3.55,8.11 -7.86,15.59 -12.93,22.43 -5.07,6.84 -10.39,13.05 -15.97,18.63 -6.08,6.08 -12.54,11.53 -19.39,16.35 -6.84,4.81 -14.32,9.25 -22.43,13.3 -8.11,3.55 -16.6,6.72 -25.47,9.51 -8.87,2.79 -18.38,4.94 -28.51,6.46 -9.64,2.03 -19.65,3.55 -30.04,4.56 -10.39,1.02 -21.16,1.52 -32.32,1.52l-30.41 0.76c-12.67,-0.5 -24.59,-1.26 -35.74,-2.28 -11.15,-1.01 -21.8,-2.53 -31.94,-4.56 -10.13,-1.52 -19.76,-3.67 -28.89,-6.46 -9.12,-2.79 -17.74,-5.96 -25.85,-9.51 -8.11,-4.05 -15.72,-8.36 -22.81,-12.92 -7.1,-4.57 -13.69,-9.89 -19.77,-15.97 -6.09,-6.08 -11.41,-12.55 -15.97,-19.39 -4.56,-6.84 -8.62,-14.32 -12.17,-22.43l-2.28 -4.56 -2.28 -4.57 -1.52 -4.56 -1.52 -4.56c-1.52,-4.06 -2.92,-8.11 -4.18,-12.17 -1.27,-4.05 -2.41,-8.36 -3.43,-12.92 -1.01,-4.06 -1.9,-8.37 -2.66,-12.93 -0.76,-4.56 -1.39,-9.12 -1.9,-13.69 -0.5,-4.56 -1.14,-9.5 -1.9,-14.82 -0.76,-5.33 -1.14,-11.03 -1.14,-17.11 -0.51,-6.09 -0.76,-12.8 -0.76,-20.15 0,-7.35 0,-15.08 0,-23.19l0 -314.04 30.42 0 72.23 0 0 315.56c0,6.59 0,12.67 0,18.25 0,5.57 0.26,11.15 0.76,16.72 0,5.07 0.26,10.14 0.76,15.21 0.51,5.07 1.02,9.63 1.52,13.69 0.51,4.05 1.14,7.98 1.9,11.78 0.76,3.81 1.4,7.73 1.91,11.79 1.01,3.55 2.02,6.97 3.04,10.26 1.01,3.3 2.28,6.47 3.8,9.51 2.03,5.07 4.56,10.14 7.6,15.21 3.04,5.07 6.34,9.63 9.89,13.68 4.05,4.06 8.36,7.86 12.92,11.41 4.57,3.55 9.64,6.59 15.21,9.12 5.58,3.05 11.28,5.71 17.11,7.99 5.83,2.28 12.04,4.18 18.63,5.7 4.05,1.01 8.49,1.78 13.31,2.28 4.81,0.51 9.75,1.02 14.82,1.52 5.58,-0.5 10.9,-1.01 15.97,-1.52 5.07,-0.5 10.14,-1.27 15.21,-2.28 7.1,-1.52 13.81,-3.29 20.15,-5.32 6.34,-2.03 12.29,-4.56 17.87,-7.61 5.57,-2.53 10.9,-5.57 15.97,-9.12 5.07,-3.55 9.37,-7.35 12.92,-11.41 4.06,-4.05 7.48,-8.61 10.27,-13.68 2.79,-5.07 5.19,-10.39 7.22,-15.97 1.01,-3.04 2.16,-6.46 3.42,-10.27 1.27,-3.8 2.16,-7.47 2.66,-11.02 1.02,-4.06 1.91,-7.99 2.67,-11.79 0.76,-3.8 1.39,-7.73 1.9,-11.78 0.5,-4.06 0.88,-8.49 1.14,-13.31 0.25,-4.82 0.63,-9.76 1.14,-14.83 0.5,-5.57 0.88,-11.28 1.14,-17.11 0.25,-5.83 0.38,-12.03 0.38,-18.62l0 -314.04 30.41 0zm188.58 543.67l0 0 0 0 0 -543.67 30.41 0 72.24 0 0 479.8 267.65 0 0 63.87 -30.41 0 -339.89 0zm430.38 -269.17c0,-20.79 1.39,-40.56 4.18,-59.31 2.79,-18.76 7.22,-36.76 13.31,-53.99 6.08,-17.24 13.56,-33.46 22.43,-48.67 8.87,-15.2 19.39,-29.4 31.55,-42.58 11.66,-13.18 24.46,-24.58 38.4,-34.21 13.94,-9.64 28.77,-17.75 44.48,-24.34 16.23,-6.59 33.08,-11.53 50.57,-14.82 17.49,-3.3 35.86,-4.95 55.13,-4.95l30.41 0c19.27,0 37.77,1.65 55.51,4.95 17.74,3.29 34.47,8.23 50.19,14.82 15.71,6.59 30.41,14.7 44.1,24.34 13.68,9.63 26.61,21.03 38.78,34.21 11.66,12.68 22.05,26.62 31.17,41.82 9.13,15.21 16.73,31.43 22.81,48.67 6.09,17.23 10.65,35.36 13.69,54.37 3.04,19.01 4.56,38.9 4.56,59.69 0,20.78 -1.52,40.55 -4.56,59.31 -3.04,18.75 -7.6,36.49 -13.69,53.22 -6.08,16.73 -13.68,32.44 -22.81,47.15 -9.12,14.7 -19.51,28.64 -31.17,41.82 -12.17,12.67 -25.22,23.95 -39.16,33.83 -13.94,9.89 -28.77,17.87 -44.48,23.96 -15.72,6.08 -32.19,10.64 -49.43,13.68 -17.23,3.04 -35.48,4.56 -54.75,4.56l-30.41 0.76c-19.27,-0.5 -37.64,-2.28 -55.13,-5.32 -17.49,-3.04 -34.09,-7.6 -49.8,-13.68 -15.72,-6.09 -30.42,-14.07 -44.11,-23.96 -13.68,-9.88 -26.61,-21.16 -38.78,-33.83 -12.16,-13.18 -22.81,-27.12 -31.93,-41.82 -9.13,-14.71 -16.73,-30.42 -22.81,-47.15 -6.09,-16.73 -10.65,-34.47 -13.69,-53.22 -3.04,-18.76 -4.56,-38.53 -4.56,-59.31zm104.93 -1.53l0 0 0 1.53c0,16.72 1.01,32.69 3.04,47.9 2.03,15.21 5.07,29.4 9.13,42.58 4.05,13.18 9.37,25.47 15.96,36.88 6.59,11.4 13.94,22.18 22.06,32.32 8.61,9.63 17.74,18.24 27.37,25.85 9.63,7.6 20.02,13.94 31.17,19.01 9.64,4.05 19.52,7.22 29.66,9.5 10.14,2.28 20.78,3.68 31.94,4.18 11.15,-0.5 21.79,-1.9 31.93,-4.18 10.14,-2.28 20.02,-5.45 29.66,-9.5 11.65,-5.07 22.43,-11.41 32.31,-19.01 9.89,-7.61 18.88,-16.22 27,-25.85 8.61,-10.14 15.96,-20.92 22.05,-32.32 6.08,-11.41 11.15,-23.95 15.2,-37.64 4.06,-13.18 7.23,-27.37 9.51,-42.58 2.28,-15.21 3.42,-31.18 3.42,-47.9 0,-16.73 -1.14,-32.57 -3.42,-47.53 -2.28,-14.95 -5.45,-29.02 -9.51,-42.2 -4.05,-13.18 -9.12,-25.73 -15.2,-37.64 -6.09,-11.91 -13.44,-22.68 -22.05,-32.31 -8.12,-10.14 -17.11,-18.89 -27,-26.24 -9.88,-7.35 -20.4,-13.56 -31.55,-18.63 -9.64,-4.05 -19.39,-7.35 -29.28,-9.88 -9.88,-2.54 -20.4,-4.06 -31.55,-4.56 -11.66,0.5 -22.69,2.02 -33.08,4.56 -10.39,2.53 -20.4,5.83 -30.04,9.88 -11.15,5.07 -21.67,11.16 -31.55,18.25 -9.89,7.1 -19.14,15.46 -27.76,25.09 -8.11,9.64 -15.33,20.41 -21.67,32.32 -6.33,11.91 -11.53,24.46 -15.58,37.64 -4.06,13.18 -7.1,27.37 -9.13,42.58 -2.03,15.21 -3.04,31.18 -3.04,47.9zm515.54 95.81l0 0 0 0 67.67 -3.8 30.42 0c0,2.54 0,4.94 0,7.22 0,2.29 0.25,4.69 0.76,7.23 0.5,2.03 0.88,3.93 1.14,5.7 0.25,1.77 0.63,3.42 1.14,4.94 0.5,1.52 0.88,3.04 1.14,4.57 0.25,1.52 0.63,3.04 1.14,4.56 0.51,1.52 1.01,2.91 1.52,4.18 0.51,1.27 1.01,2.41 1.52,3.42l1.52 3.04 1.52 3.04 0.76 1.53 1.52 1.52 0 2.28 1.52 1.52c2.54,5.57 5.71,10.9 9.51,15.97 3.8,5.07 8.24,9.63 13.31,13.68 4.56,4.57 9.63,8.62 15.2,12.17 5.58,3.55 11.66,6.84 18.25,9.88 6.59,3.55 13.31,6.47 20.15,8.75 6.85,2.28 14.07,4.18 21.67,5.7 5.58,1.01 11.03,1.9 16.35,2.66 5.32,0.76 10.77,1.4 16.35,1.9 7.1,-0.5 13.94,-1.26 20.53,-2.28 6.59,-1.01 12.93,-2.28 19.01,-3.8 8.11,-2.53 15.71,-5.32 22.81,-8.36 7.1,-3.05 13.69,-6.59 19.77,-10.65 6.08,-4.05 11.41,-8.62 15.97,-13.69 4.56,-5.07 8.36,-10.39 11.4,-15.96 3.05,-5.58 5.45,-11.54 7.23,-17.87 1.77,-6.34 2.66,-13.06 2.66,-20.15 0,-3.55 -0.25,-6.97 -0.76,-10.27 -0.51,-3.29 -1.27,-6.71 -2.28,-10.26 -0.51,-1.52 -1.02,-3.04 -1.52,-4.57 -0.51,-1.52 -1.02,-3.29 -1.52,-5.32 -1.02,-1.52 -1.91,-3.04 -2.67,-4.56 -0.76,-1.52 -1.64,-3.04 -2.66,-4.56 -2.02,-2.54 -4.05,-5.2 -6.08,-7.99 -2.03,-2.78 -4.31,-5.19 -6.84,-7.22 -2.54,-2.53 -5.33,-4.69 -8.37,-6.46 -3.04,-1.78 -6.08,-3.68 -9.12,-5.71l-3.04 -1.52 -3.05 -1.52 -3.04 -1.52 -3.04 -1.52 -3.8 -0.76 -3.04 -1.52 -3.8 -1.52 -3.05 -1.52c-2.02,-1.02 -4.43,-1.9 -7.22,-2.66 -2.79,-0.76 -5.45,-1.4 -7.98,-1.9 -3.04,-1.02 -6.09,-1.91 -9.13,-2.67 -3.04,-0.76 -6.33,-1.64 -9.88,-2.66 -3.55,-1.01 -7.48,-2.02 -11.79,-3.04 -4.31,-1.01 -9.25,-2.28 -14.83,-3.8 -5.06,-1.01 -10.51,-2.28 -16.34,-3.8 -5.83,-1.52 -12.3,-3.3 -19.39,-5.33 -1.52,-0.5 -3.04,-0.88 -4.57,-1.14 -1.52,-0.25 -3.04,-0.63 -4.56,-1.14 -1.52,0 -2.91,-0.25 -4.18,-0.76 -1.27,-0.5 -2.41,-1.01 -3.42,-1.52 -1.52,0 -3.04,-0.12 -4.56,-0.38 -1.52,-0.25 -2.79,-0.63 -3.81,-1.14 -1.01,-0.5 -2.15,-0.89 -3.42,-1.14 -1.26,-0.25 -2.41,-0.63 -3.42,-1.14 -2.53,-0.51 -4.94,-1.01 -7.22,-1.52 -2.28,-0.51 -4.44,-1.01 -6.47,-1.52 -1.01,-0.51 -2.02,-0.89 -3.04,-1.14 -1.01,-0.25 -2.03,-0.63 -3.04,-1.14 -1.01,0 -2.03,-0.13 -3.04,-0.38 -1.01,-0.26 -2.03,-0.64 -3.04,-1.14 -3.55,-1.02 -7.23,-2.16 -11.03,-3.42 -3.8,-1.27 -7.22,-2.67 -10.26,-4.19 -3.04,-1.01 -6.09,-2.15 -9.13,-3.42 -3.04,-1.27 -5.83,-2.66 -8.36,-4.18 -2.54,-1.01 -5.07,-2.15 -7.61,-3.42 -2.53,-1.27 -5.06,-2.66 -7.6,-4.18 -2.03,-1.52 -4.18,-3.05 -6.46,-4.57 -2.28,-1.52 -4.69,-3.29 -7.23,-5.32l-0.76 0 0 -0.76 -0.76 0 0 0 -1.52 0 0 -1.52c-4.05,-2.53 -7.85,-5.45 -11.4,-8.74 -3.55,-3.3 -6.85,-6.72 -9.89,-10.27 -3.04,-4.05 -5.83,-8.11 -8.36,-12.17 -2.54,-4.05 -5.07,-8.36 -7.61,-12.92 -2.02,-4.06 -3.92,-8.37 -5.7,-12.93 -1.77,-4.56 -3.17,-9.38 -4.18,-14.45 -1.01,-4.56 -1.78,-9.37 -2.28,-14.44 -0.51,-5.07 -0.76,-10.14 -0.76,-15.21 0,-11.15 1.01,-21.8 3.04,-31.94 2.03,-10.14 5.32,-19.77 9.88,-28.89 4.57,-9.13 10.14,-17.74 16.73,-25.85 6.59,-8.11 14.2,-15.47 22.81,-22.05 8.62,-7.1 18.13,-13.18 28.52,-18.25 10.39,-5.07 21.16,-9.38 32.31,-12.93 11.66,-3.55 24.08,-6.21 37.26,-7.98 13.18,-1.78 26.87,-2.67 41.06,-2.67l30.42 0c15.21,0 29.78,0.89 43.72,2.67 13.94,1.77 26.99,4.43 39.16,7.98 12.17,3.55 23.57,8.11 34.22,13.69 10.64,5.57 20.53,11.91 29.65,19.01 9.13,7.09 17.11,14.82 23.95,23.19 6.85,8.36 12.8,17.61 17.87,27.75 4.56,9.63 8.24,20.15 11.03,31.56 2.79,11.4 4.43,23.19 4.94,35.35l-69.19 6.85 -30.42 0c-1.01,-8.62 -2.66,-16.86 -4.94,-24.71 -2.28,-7.86 -4.94,-15.09 -7.99,-21.68 -3.04,-6.59 -6.59,-12.54 -10.64,-17.86 -4.06,-5.33 -8.87,-10.02 -14.45,-14.07 -5.07,-4.06 -11.02,-7.73 -17.87,-11.03 -6.84,-3.29 -14.06,-5.95 -21.67,-7.98 -6.08,-1.52 -12.42,-2.79 -19.01,-3.8 -6.59,-1.02 -13.43,-1.78 -20.53,-2.28 -6.59,0.5 -13.05,1.14 -19.39,1.9 -6.33,0.76 -12.29,1.9 -17.87,3.42 -7.6,2.03 -14.7,4.31 -21.29,6.84 -6.59,2.54 -12.67,5.58 -18.25,9.13 -5.57,3.55 -10.51,7.6 -14.82,12.16 -4.31,4.57 -7.73,9.38 -10.27,14.45 -3.04,5.07 -5.19,10.39 -6.46,15.97 -1.27,5.57 -1.9,11.4 -1.9,17.49 0,5.07 0.25,9.63 0.76,13.68 0.5,4.06 1.52,8.11 3.04,12.17 1.52,3.55 3.29,6.97 5.32,10.27 2.03,3.29 4.56,6.2 7.61,8.74 2.53,2.53 5.95,5.07 10.26,7.6 4.31,2.54 9,5.07 14.07,7.61 5.57,2.53 11.66,4.94 18.25,7.22 6.59,2.28 13.94,4.69 22.05,7.22 1.52,0.51 3.17,1.02 4.94,1.53 1.77,0.5 3.68,1.01 5.7,1.52 2.03,0.5 3.93,1.01 5.71,1.52 1.77,0.5 3.67,1.01 5.7,1.52 2.03,0.5 4.05,1.01 6.08,1.52 2.03,0.51 4.06,1.01 6.08,1.52 2.54,0.51 4.95,1.01 7.23,1.52 2.28,0.51 4.43,1.01 6.46,1.52 5.07,1.01 9.89,2.15 14.45,3.42 4.56,1.27 9.12,2.41 13.69,3.42 4.05,1.02 8.11,1.9 12.16,2.67 4.06,0.76 7.86,1.64 11.41,2.66 3.55,1.01 6.97,2.02 10.26,3.04 3.3,1.01 6.72,2.03 10.27,3.04 3.04,0.51 6.08,1.14 9.12,1.9 3.04,0.76 5.83,1.65 8.37,2.66 1.01,0.51 2.02,0.89 3.04,1.14 1.01,0.26 2.28,0.64 3.8,1.14 1.01,0.51 2.03,0.89 3.04,1.14 1.02,0.26 2.03,0.64 3.04,1.14 2.03,0.51 3.93,1.14 5.71,1.91 1.77,0.76 3.67,1.64 5.7,2.66 0.51,0 1.01,0.12 1.52,0.38 0.51,0.25 1.01,0.38 1.52,0.38 0,0.5 0.25,0.88 0.76,1.14 0.51,0.25 1.01,0.38 1.52,0.38 1.02,0.5 2.03,1.01 3.04,1.52 1.02,0.51 2.03,1.01 3.04,1.52l4.57 2.28c1.01,0.51 2.02,1.01 3.04,1.52 1.01,0.51 2.03,1.01 3.04,1.52l0.76 0.76 1.52 0 0 1.52 1.52 0 2.28 1.52 2.28 0.76c5.58,3.55 10.78,7.23 15.59,11.03 4.82,3.8 9.25,7.73 13.31,11.79 4.05,4.56 7.98,9.12 11.78,13.68 3.81,4.56 7.23,9.38 10.27,14.45 3.04,5.07 5.7,10.52 7.98,16.35 2.28,5.83 4.19,11.53 5.71,17.11 1.52,5.57 2.66,11.4 3.42,17.48 0.76,6.09 1.14,12.17 1.14,18.25 0,12.17 -1.27,23.58 -3.8,34.22 -2.54,10.65 -6.09,21.04 -10.65,31.18 -4.56,9.63 -10.39,18.75 -17.49,27.37 -7.09,8.62 -15.21,16.73 -24.33,24.33 -9.63,7.61 -19.77,14.2 -30.41,19.77 -10.65,5.58 -22.06,10.14 -34.22,13.69 -12.17,3.04 -24.84,5.45 -38.02,7.22 -13.18,1.78 -27.12,2.66 -41.82,2.66l-30.42 0.76c-18.25,-0.5 -35.35,-1.77 -51.32,-3.8 -15.97,-2.03 -31.05,-4.56 -45.25,-7.6 -14.19,-4.06 -27.37,-9 -39.54,-14.83 -12.16,-5.83 -23.31,-12.8 -33.45,-20.91 -10.14,-8.11 -19.01,-16.98 -26.62,-26.61 -7.6,-9.63 -14.19,-20.03 -19.76,-31.18 -5.07,-11.66 -9,-23.95 -11.79,-36.88 -2.79,-12.92 -4.18,-26.99 -4.18,-42.2z"/>
    <path class="fil6" d="M8093.94 6479.15c0,-20.79 1.39,-40.56 4.18,-59.31 2.79,-18.76 7.22,-36.76 13.31,-53.99 6.08,-17.24 13.56,-33.46 22.43,-48.67 8.87,-15.2 19.39,-29.4 31.55,-42.58 11.66,-13.18 24.46,-24.58 38.4,-34.21 13.94,-9.64 28.77,-17.75 44.48,-24.34 16.23,-6.59 33.08,-11.53 50.57,-14.82 17.49,-3.3 35.86,-4.95 55.13,-4.95l30.41 0c19.27,0 37.77,1.65 55.51,4.95 17.74,3.29 34.47,8.23 50.19,14.82 15.71,6.59 30.41,14.7 44.1,24.34 13.68,9.63 26.61,21.03 38.78,34.21 11.66,12.68 22.05,26.62 31.17,41.82 9.13,15.21 16.73,31.43 22.81,48.67 6.09,17.23 10.65,35.36 13.69,54.37 3.04,19.01 4.56,38.9 4.56,59.69 0,20.78 -1.52,40.55 -4.56,59.31 -3.04,18.75 -7.6,36.49 -13.69,53.22 -6.08,16.73 -13.68,32.44 -22.81,47.15 -9.12,14.7 -19.51,28.64 -31.17,41.82 -12.17,12.67 -25.22,23.95 -39.16,33.83 -13.94,9.89 -28.77,17.87 -44.48,23.96 -15.72,6.08 -32.19,10.64 -49.43,13.68 -17.23,3.04 -35.48,4.56 -54.75,4.56l-30.41 0.76c-19.27,-0.5 -37.64,-2.28 -55.13,-5.32 -17.49,-3.04 -34.09,-7.6 -49.8,-13.68 -15.72,-6.09 -30.42,-14.07 -44.11,-23.96 -13.68,-9.88 -26.61,-21.16 -38.78,-33.83 -12.16,-13.18 -22.81,-27.12 -31.93,-41.82 -9.13,-14.71 -16.73,-30.42 -22.81,-47.15 -6.09,-16.73 -10.65,-34.47 -13.69,-53.22 -3.04,-18.76 -4.56,-38.53 -4.56,-59.31zm104.93 -1.53l0 0 0 1.53c0,16.72 1.01,32.69 3.04,47.9 2.03,15.21 5.07,29.4 9.13,42.58 4.05,13.18 9.37,25.47 15.96,36.88 6.59,11.4 13.94,22.18 22.06,32.32 8.61,9.63 17.74,18.24 27.37,25.85 9.63,7.6 20.02,13.94 31.17,19.01 9.64,4.05 19.52,7.22 29.66,9.5 10.14,2.28 20.78,3.68 31.94,4.18 11.15,-0.5 21.79,-1.9 31.93,-4.18 10.14,-2.28 20.02,-5.45 29.66,-9.5 11.65,-5.07 22.43,-11.41 32.31,-19.01 9.89,-7.61 18.88,-16.22 27,-25.85 8.61,-10.14 15.96,-20.92 22.05,-32.32 6.08,-11.41 11.15,-23.95 15.2,-37.64 4.06,-13.18 7.23,-27.37 9.51,-42.58 2.28,-15.21 3.42,-31.18 3.42,-47.9 0,-16.73 -1.14,-32.57 -3.42,-47.53 -2.28,-14.95 -5.45,-29.02 -9.51,-42.2 -4.05,-13.18 -9.12,-25.73 -15.2,-37.64 -6.09,-11.91 -13.44,-22.68 -22.05,-32.31 -8.12,-10.14 -17.11,-18.89 -27,-26.24 -9.88,-7.35 -20.4,-13.56 -31.55,-18.63 -9.64,-4.05 -19.39,-7.35 -29.28,-9.88 -9.88,-2.54 -20.4,-4.06 -31.55,-4.56 -11.66,0.5 -22.69,2.02 -33.08,4.56 -10.39,2.53 -20.4,5.83 -30.04,9.88 -11.15,5.07 -21.67,11.16 -31.55,18.25 -9.89,7.1 -19.14,15.46 -27.76,25.09 -8.11,9.64 -15.33,20.41 -21.67,32.32 -6.33,11.91 -11.53,24.46 -15.58,37.64 -4.06,13.18 -7.1,27.37 -9.13,42.58 -2.03,15.21 -3.04,31.18 -3.04,47.9zm542.15 270.7l0 0 0 0 0 -543.67 30.42 0 241.04 1.52c3.04,0 5.83,0 8.36,0 2.53,0 5.32,0 8.36,0 2.54,0.51 5.07,0.76 7.61,0.76 2.53,0 4.81,0 6.84,0 2.54,0 4.82,0 6.85,0 2.02,0 4.05,0 6.08,0 2.03,0.51 4.05,0.76 6.08,0.76 2.03,0 3.8,0 5.32,0 3.55,0.51 6.97,0.89 10.27,1.14 3.29,0.25 6.46,0.89 9.5,1.9 1.52,0.51 3.05,0.89 4.57,1.14 1.52,0.26 3.04,0.38 4.56,0.38 1.52,0.51 3.04,0.89 4.56,1.14 1.52,0.26 3.04,0.64 4.56,1.14l3.04 1.52 4.57 1.52 3.04 1.53 4.56 0.76c6.59,2.53 12.8,5.57 18.63,9.12 5.83,3.55 11.28,7.35 16.35,11.41 5.07,4.56 9.88,9.37 14.45,14.44 4.56,5.07 8.61,10.65 12.16,16.73 4.06,6.08 7.48,12.42 10.27,19.01 2.78,6.59 5.19,13.43 7.22,20.53 2.03,6.59 3.55,13.56 4.56,20.91 1.02,7.35 1.52,14.83 1.52,22.43 0,10.65 -0.88,20.53 -2.66,29.66 -1.77,9.12 -4.18,17.99 -7.22,26.61 -3.55,8.11 -7.73,15.97 -12.55,23.57 -4.81,7.61 -10.52,14.45 -17.11,20.53 -6.59,6.59 -13.81,12.42 -21.67,17.49 -7.85,5.07 -16.6,9.63 -26.23,13.69 -9.63,3.55 -19.9,6.84 -30.8,9.88 -10.89,3.05 -22.68,5.33 -35.35,6.85 1.01,0.5 2.15,1.14 3.42,1.9 1.27,0.76 2.41,1.39 3.42,1.9 1.01,0.51 2.03,1.01 3.04,1.52 1.01,0.51 2.03,1.01 3.04,1.52l3.04 1.52 2.29 0.76 3.04 1.52 2.28 1.52 1.52 1.52 2.28 0.76 1.52 1.53 1.52 1.52 3.04 2.28 4.57 2.28 2.28 2.28 2.28 2.28 2.28 2.28 3.04 2.28 2.28 2.28 2.28 2.29 2.28 3.04 3.05 2.28c1.01,1.01 1.9,2.03 2.66,3.04 0.76,1.01 1.39,2.03 1.9,3.04 0.5,0.51 1.01,1.01 1.52,1.52 0.51,0.51 1.01,0.76 1.52,0.76 0.51,0.51 1.01,1.02 1.52,1.52 0.51,0.51 1.01,1.02 1.52,1.52 1.01,1.02 2.03,2.16 3.04,3.43 1.02,1.26 2.03,2.66 3.04,4.18 1.02,1.52 2.03,2.91 3.04,4.18 1.02,1.27 2.03,2.41 3.05,3.42 0.5,0.51 1.01,1.14 1.52,1.9 0.5,0.76 1.01,1.4 1.52,1.9 0,1.02 0.25,1.78 0.76,2.28 0.51,0.51 1.01,1.02 1.52,1.52 1.01,1.53 2.03,2.92 3.04,4.19 1.01,1.26 2.03,2.4 3.04,3.42l3.04 4.56 3.05 4.56 1.52 2.28 1.52 1.53 0.76 1.52 1.52 0.76 95.05 147.51 -30.42 0 -90.49 0 -72.23 -111.02c-2.54,-4.05 -4.94,-7.85 -7.22,-11.4 -2.29,-3.55 -4.44,-6.84 -6.47,-9.89 -2.03,-3.04 -3.93,-5.95 -5.7,-8.74 -1.78,-2.79 -3.42,-5.2 -4.94,-7.22 -1.52,-2.03 -3.04,-3.93 -4.57,-5.71 -1.52,-1.77 -2.78,-3.67 -3.8,-5.7 -1.01,-2.03 -2.15,-3.93 -3.42,-5.7 -1.27,-1.78 -2.41,-3.68 -3.42,-5.71l-1.52 -0.76 -0.76 -1.52 -1.52 -1.52 -0.76 -1.52 -3.04 -3.04 -3.05 -3.8 -3.04 -3.04 -3.04 -4.57 -2.28 -3.04 -2.28 -2.28 -3.04 -3.04 -2.28 -2.28 -2.29 -2.28 -2.28 -3.04 -3.04 -2.28 -2.28 -2.29 -3.04 -2.28 -2.28 -2.28 -3.04 -1.52 -2.28 -2.28 -4.57 -3.8 -4.56 -3.8 -1.52 -0.76 -1.52 -1.52 -1.52 0 -1.52 -1.53 -3.04 -1.52 -3.05 -1.52c-0.5,0 -1.26,-0.12 -2.28,-0.38 -1.01,-0.25 -1.77,-0.63 -2.28,-1.14 -1.01,0 -1.9,-0.12 -2.66,-0.38 -0.76,-0.25 -1.65,-0.38 -2.66,-0.38 -1.52,-0.51 -3.17,-0.89 -4.94,-1.14 -1.78,-0.25 -3.68,-0.63 -5.71,-1.14 -1.01,0 -2.02,0 -3.04,0 -1.01,0 -2.02,-0.25 -3.04,-0.76 -1.52,0 -2.91,0 -4.18,0 -1.27,0 -2.66,0 -4.18,0 -3.04,0 -6.09,-0.25 -9.13,-0.76 -3.04,-0.51 -6.33,-1.01 -9.88,-1.52l-52.47 0 0 241.8 -30.41 0 -72.24 0zm102.65 -303.39l0 0 0 0 139.91 1.52c1.02,0 2.03,0 3.04,0 1.02,0 1.78,-0.25 2.28,-0.76 1.02,0 2.03,0 3.05,0 1.01,0 1.77,0 2.28,0 4.05,0 7.6,-0.13 10.64,-0.38 3.04,-0.25 6.09,-0.64 9.13,-1.14 2.53,-0.51 5.19,-1.02 7.98,-1.52 2.79,-0.51 5.45,-1.02 7.98,-1.52 2.54,-1.02 5.2,-1.9 7.99,-2.66 2.79,-0.77 5.45,-1.65 7.98,-2.67l1.52 0 2.28 -1.52 2.29 -0.76 2.28 -1.52c3.55,-1.52 6.84,-3.42 9.88,-5.7 3.04,-2.28 6.08,-4.69 9.13,-7.22 3.04,-2.54 5.83,-5.33 8.36,-8.37 2.54,-3.04 4.82,-6.34 6.84,-9.88 2.03,-3.55 3.81,-7.23 5.33,-11.03 1.52,-3.8 2.78,-7.48 3.8,-11.02 1.01,-4.06 1.9,-7.99 2.66,-11.79 0.76,-3.8 1.14,-7.73 1.14,-11.79 0,-2.02 -0.13,-3.93 -0.38,-5.7 -0.25,-1.77 -0.38,-3.67 -0.38,-5.7 -0.51,-1.52 -0.89,-3.17 -1.14,-4.94 -0.25,-1.78 -0.63,-3.68 -1.14,-5.71 -0.51,-4.05 -1.52,-7.73 -3.04,-11.02 -1.52,-3.3 -3.3,-6.72 -5.33,-10.27 -2.02,-3.55 -4.05,-6.84 -6.08,-9.88 -2.03,-3.04 -4.31,-5.83 -6.84,-8.37 -2.54,-2.53 -5.32,-4.81 -8.37,-6.84 -3.04,-2.03 -6.08,-4.06 -9.12,-6.08 -2.53,-1.02 -5.07,-2.16 -7.6,-3.43 -2.54,-1.26 -5.07,-2.15 -7.61,-2.66 -2.53,-1.01 -5.19,-1.9 -7.98,-2.66 -2.79,-0.76 -5.45,-1.39 -7.99,-1.9 -3.04,-0.51 -6.08,-0.89 -9.12,-1.14 -3.04,-0.25 -6.59,-0.63 -10.65,-1.14 -3.54,-0.51 -7.35,-1.01 -11.4,-1.52 -4.06,-0.51 -8.11,-1.01 -12.17,-1.52l-141.43 0 0 180.21zm610.59 303.39l0 0 0 0 0 -479.8 -179.45 0 0 -63.87 30.41 0 431.9 0 0 63.87 -180.21 0 0 479.8 -30.42 0 -72.23 0zm333.81 -269.17c0,-20.79 1.39,-40.56 4.18,-59.31 2.79,-18.76 7.22,-36.76 13.31,-53.99 6.08,-17.24 13.56,-33.46 22.43,-48.67 8.87,-15.2 19.39,-29.4 31.55,-42.58 11.66,-13.18 24.46,-24.58 38.4,-34.21 13.94,-9.64 28.77,-17.75 44.48,-24.34 16.23,-6.59 33.08,-11.53 50.57,-14.82 17.49,-3.3 35.86,-4.95 55.13,-4.95l30.41 0c19.27,0 37.77,1.65 55.51,4.95 17.74,3.29 34.47,8.23 50.19,14.82 15.71,6.59 30.41,14.7 44.1,24.34 13.68,9.63 26.61,21.03 38.78,34.21 11.66,12.68 22.05,26.62 31.17,41.82 9.13,15.21 16.73,31.43 22.81,48.67 6.09,17.23 10.65,35.36 13.69,54.37 3.04,19.01 4.56,38.9 4.56,59.69 0,20.78 -1.52,40.55 -4.56,59.31 -3.04,18.75 -7.6,36.49 -13.69,53.22 -6.08,16.73 -13.68,32.44 -22.81,47.15 -9.12,14.7 -19.51,28.64 -31.17,41.82 -12.17,12.67 -25.22,23.95 -39.16,33.83 -13.94,9.89 -28.77,17.87 -44.48,23.96 -15.72,6.08 -32.19,10.64 -49.43,13.68 -17.23,3.04 -35.48,4.56 -54.75,4.56l-30.41 0.76c-19.27,-0.5 -37.64,-2.28 -55.13,-5.32 -17.49,-3.04 -34.09,-7.6 -49.8,-13.68 -15.72,-6.09 -30.42,-14.07 -44.11,-23.96 -13.68,-9.88 -26.61,-21.16 -38.78,-33.83 -12.16,-13.18 -22.81,-27.12 -31.93,-41.82 -9.13,-14.71 -16.73,-30.42 -22.81,-47.15 -6.09,-16.73 -10.65,-34.47 -13.69,-53.22 -3.04,-18.76 -4.56,-38.53 -4.56,-59.31zm104.93 -1.53l0 0 0 1.53c0,16.72 1.01,32.69 3.04,47.9 2.03,15.21 5.07,29.4 9.13,42.58 4.05,13.18 9.37,25.47 15.96,36.88 6.59,11.4 13.94,22.18 22.06,32.32 8.61,9.63 17.74,18.24 27.37,25.85 9.63,7.6 20.02,13.94 31.17,19.01 9.64,4.05 19.52,7.22 29.66,9.5 10.14,2.28 20.78,3.68 31.94,4.18 11.15,-0.5 21.79,-1.9 31.93,-4.18 10.14,-2.28 20.02,-5.45 29.66,-9.5 11.65,-5.07 22.43,-11.41 32.31,-19.01 9.89,-7.61 18.88,-16.22 27,-25.85 8.61,-10.14 15.96,-20.92 22.05,-32.32 6.08,-11.41 11.15,-23.95 15.2,-37.64 4.06,-13.18 7.23,-27.37 9.51,-42.58 2.28,-15.21 3.42,-31.18 3.42,-47.9 0,-16.73 -1.14,-32.57 -3.42,-47.53 -2.28,-14.95 -5.45,-29.02 -9.51,-42.2 -4.05,-13.18 -9.12,-25.73 -15.2,-37.64 -6.09,-11.91 -13.44,-22.68 -22.05,-32.31 -8.12,-10.14 -17.11,-18.89 -27,-26.24 -9.88,-7.35 -20.4,-13.56 -31.55,-18.63 -9.64,-4.05 -19.39,-7.35 -29.28,-9.88 -9.88,-2.54 -20.4,-4.06 -31.55,-4.56 -11.66,0.5 -22.69,2.02 -33.08,4.56 -10.39,2.53 -20.4,5.83 -30.04,9.88 -11.15,5.07 -21.67,11.16 -31.55,18.25 -9.89,7.1 -19.14,15.46 -27.76,25.09 -8.11,9.64 -15.33,20.41 -21.67,32.32 -6.33,11.91 -11.53,24.46 -15.58,37.64 -4.06,13.18 -7.1,27.37 -9.13,42.58 -2.03,15.21 -3.04,31.18 -3.04,47.9zm539.87 270.7l0 0 0 0 0 -543.67 30.41 0 205.31 1.52c3.04,0 5.95,0 8.74,0 2.79,0 5.7,0 8.75,0 2.53,0.51 5.07,0.76 7.6,0.76 2.53,0 4.82,0 6.84,0 2.54,0 4.82,0 6.85,0 2.02,0 4.05,0 6.08,0 2.03,0.51 4.05,0.76 6.08,0.76 2.03,0 3.8,0 5.33,0 3.54,0.51 6.97,0.89 10.26,1.14 3.3,0.25 6.46,0.63 9.51,1.14 1.52,0 3.04,0.13 4.56,0.38 1.52,0.25 3.04,0.63 4.56,1.14 1.01,0 2.28,0.13 3.8,0.38 1.52,0.26 3.04,0.64 4.56,1.14l3.05 1.52 3.04 0 3.04 1.52 3.04 0.76 3.04 1.53 3.04 0 3.04 1.52 3.81 0.76c7.09,2.53 13.81,5.57 20.15,9.12 6.33,3.55 12.29,7.35 17.87,11.41 5.57,4.56 10.77,9.5 15.58,14.82 4.82,5.33 9.25,11.28 13.31,17.87 4.06,6.59 7.6,13.31 10.65,20.15 3.04,6.85 5.57,14.07 7.6,21.67 2.03,7.61 3.55,15.46 4.56,23.58 1.02,8.11 1.52,16.47 1.52,25.09 0,8.11 -0.5,16.09 -1.52,23.95 -1.01,7.86 -2.53,15.33 -4.56,22.43 -2.03,7.61 -4.31,14.83 -6.84,21.67 -2.54,6.85 -5.83,13.56 -9.89,20.15 -3.55,6.59 -7.6,12.68 -12.17,18.25 -4.56,5.58 -9.63,10.65 -15.2,15.21 -5.07,5.07 -10.52,9.5 -16.35,13.31 -5.83,3.8 -12.04,6.97 -18.63,9.5l-0.76 0 0 0 -0.76 0.76 0 0 -0.76 0 0 0 -0.76 0.76 0 0c-4.06,2.03 -8.24,3.8 -12.55,5.32 -4.31,1.52 -8.49,2.79 -12.54,3.81 -4.06,1.01 -8.24,1.9 -12.55,2.66 -4.31,0.76 -8.49,1.64 -12.55,2.66 -4.56,0.51 -9.25,1.14 -14.06,1.9 -4.82,0.76 -10.02,1.14 -15.59,1.14l-30.42 0c-5.07,0.51 -10.64,0.63 -16.73,0.38 -6.08,-0.25 -12.42,-0.63 -19.01,-1.14l-108.73 0 0 221.27 -30.41 0 -72.24 0zm102.65 -285.14l0 0 0 0 124.7 1.52c1.02,0 1.9,0 2.66,0 0.76,0 1.65,-0.26 2.67,-0.76 0.5,0 1.26,0 2.28,0 1.01,0 1.77,0 2.28,0 4.05,0 7.86,-0.38 11.4,-1.14 3.55,-0.76 7.1,-1.4 10.65,-1.9 1.52,0 3.04,-0.26 4.56,-0.76 1.52,-0.51 3.3,-0.76 5.32,-0.76 1.52,-0.51 3.05,-1.02 4.57,-1.53 1.52,-0.5 3.04,-1.01 4.56,-1.52 3.04,-1.01 5.95,-2.02 8.74,-3.04 2.79,-1.01 5.45,-2.28 7.99,-3.8 3.55,-1.52 6.84,-3.42 9.88,-5.7 3.04,-2.28 6.08,-4.69 9.13,-7.23 2.53,-2.53 5.07,-5.57 7.6,-9.12 2.53,-3.55 4.82,-7.1 6.84,-10.65 2.03,-4.05 3.81,-7.98 5.33,-11.78 1.52,-3.8 2.78,-7.73 3.8,-11.79 1.01,-4.05 1.77,-8.36 2.28,-12.92 0.51,-4.57 0.76,-9.38 0.76,-14.45 0,-1.01 0,-2.03 0,-3.04 0,-1.02 0,-2.03 0,-3.04 -0.51,-1.02 -0.76,-2.03 -0.76,-3.05 0,-1.01 0,-2.02 0,-3.04 0,-1.01 -0.13,-2.02 -0.38,-3.04 -0.25,-1.01 -0.38,-2.28 -0.38,-3.8 -0.51,-1.01 -0.89,-2.03 -1.14,-3.04 -0.26,-1.02 -0.38,-2.03 -0.38,-3.04 -0.51,-2.03 -0.89,-3.93 -1.14,-5.71 -0.26,-1.77 -0.89,-3.67 -1.9,-5.7 -0.51,-2.03 -1.14,-3.93 -1.9,-5.7 -0.76,-1.78 -1.65,-3.68 -2.67,-5.71 -2.02,-4.56 -4.43,-8.87 -7.22,-12.92 -2.79,-4.06 -5.7,-7.61 -8.74,-10.65 -3.05,-3.04 -6.34,-5.83 -9.89,-8.36 -3.55,-2.54 -7.35,-4.56 -11.4,-6.08 -4.06,-1.52 -8.75,-2.92 -14.07,-4.19 -5.32,-1.26 -11.53,-2.15 -18.63,-2.66 -6.59,-1.01 -14.07,-1.9 -22.43,-2.66 -8.37,-0.76 -17.36,-1.39 -27,-1.9l-107.97 0 0 194.66zm435.7 285.14l0 0 0 0 0 -543.67 30.42 0 393.11 0 0 63.87 -320.88 0 0 166.52 300.35 0 0 63.88 -300.35 0 0 185.53 333.81 0 0 63.87 -30.42 0 -406.04 0zm149.03 -580.17l0 0 0 0 49.43 -104.17 30.41 0 87.45 0 -81.36 104.17 -30.42 0 -55.51 0zm387.8 580.17l0 0 0 0 0 -543.67 30.41 0 187.82 1.52c3.55,0 6.97,0 10.26,0 3.3,0 6.47,0 9.51,0 3.04,0.51 6.08,0.76 9.12,0.76 3.04,0 5.83,0 8.37,0 5.57,0 10.77,0.13 15.59,0.38 4.81,0.25 9.25,0.63 13.3,1.14 2.03,0 3.93,0.13 5.7,0.38 1.78,0.25 3.68,0.63 5.71,1.14 1.52,0 3.17,0.13 4.94,0.38 1.77,0.25 3.68,0.63 5.7,1.14 4.06,0.51 7.73,1.14 11.03,1.9 3.29,0.76 6.71,1.65 10.26,2.66l3.04 1.52 3.81 0.77 3.04 1.52 3.04 1.52c1.01,0.5 2.15,0.88 3.42,1.14 1.27,0.25 2.41,0.88 3.42,1.9 1.02,0.51 2.16,1.01 3.43,1.52 1.26,0.51 2.66,1.01 4.18,1.52 0.5,0.51 1.01,0.89 1.52,1.14 0.5,0.25 1.27,0.38 2.28,0.38 0.51,0.51 1.14,0.89 1.9,1.14 0.76,0.25 1.39,0.63 1.9,1.14 0.51,0.51 1.14,0.89 1.9,1.14 0.76,0.26 1.4,0.38 1.9,0.38 1.02,0.51 1.9,0.89 2.66,1.14 0.76,0.26 1.4,0.64 1.91,1.14 0.5,0.51 1.01,1.02 1.52,1.52 0.5,0.51 1.26,0.76 2.28,0.76 0.5,0.51 1.14,1.02 1.9,1.53 0.76,0.5 1.39,1.01 1.9,1.52 0.51,0.5 1.01,1.01 1.52,1.52 0.51,0.5 1.27,0.76 2.28,0.76 0.51,0.5 1.14,1.01 1.9,1.52 0.76,0.5 1.4,1.01 1.9,1.52 2.54,2.03 5.2,3.93 7.99,5.7 2.78,1.78 5.19,3.93 7.22,6.46 1.01,1.02 2.03,2.16 3.04,3.43 1.02,1.26 2.28,2.4 3.8,3.42 1.02,1.52 2.03,2.91 3.05,4.18 1.01,1.27 2.02,2.41 3.04,3.42 5.57,6.59 10.64,13.31 15.2,20.15 4.57,6.85 8.88,14.07 12.93,21.67 4.06,7.61 7.86,15.21 11.41,22.81 3.54,7.61 6.84,15.72 9.88,24.34 2.54,8.11 4.82,16.72 6.84,25.85 2.03,9.12 3.81,18.25 5.33,27.37 1.52,9.63 2.66,19.39 3.42,29.28 0.76,9.88 1.14,19.89 1.14,30.03 0,14.7 -0.63,28.9 -1.9,42.58 -1.27,13.69 -3.17,27.12 -5.7,40.3 -2.54,12.68 -5.71,25.1 -9.51,37.26 -3.8,12.17 -8.24,23.57 -13.31,34.22 -5.06,11.15 -10.77,21.42 -17.1,30.8 -6.34,9.37 -13.06,17.86 -20.15,25.47 -7.1,8.11 -14.7,15.33 -22.82,21.67 -8.11,6.34 -16.72,11.78 -25.85,16.35l-3.8 1.52 -3.04 1.52 -3.8 1.52 -3.05 1.52c-4.05,2.03 -8.23,3.8 -12.54,5.32 -4.31,1.52 -8.75,3.04 -13.31,4.57 -4.56,1.52 -9.12,2.66 -13.68,3.42 -4.57,0.76 -9.13,1.64 -13.69,2.66 -5.07,0.51 -10.27,1.14 -15.59,1.9 -5.32,0.76 -10.77,1.14 -16.35,1.14 -6.08,0.51 -12.29,0.76 -18.63,0.76 -6.33,0 -13.05,0 -20.15,0l-30.41 0 -196.18 0zm102.65 -63.87l0 0 0 0 105.69 1.52c1.52,0 2.92,0 4.19,0 1.26,0 2.66,-0.25 4.18,-0.76 1.01,0 2.15,0 3.42,0 1.27,0 2.66,0 4.18,0 5.58,-0.51 10.77,-1.14 15.59,-1.9 4.82,-0.76 9.25,-1.4 13.31,-1.9 4.05,-1.02 8.11,-1.9 12.16,-2.66 4.06,-0.77 7.86,-1.91 11.41,-3.43 3.55,-1.52 6.97,-3.04 10.26,-4.56 3.3,-1.52 6.72,-3.29 10.27,-5.32 6.08,-4.06 11.91,-8.37 17.49,-12.93 5.57,-4.56 10.9,-9.88 15.96,-15.97 4.57,-6.08 8.88,-12.67 12.93,-19.77 4.06,-7.09 7.86,-14.7 11.41,-22.81 3.55,-8.11 6.59,-16.73 9.12,-25.85 2.54,-9.12 4.56,-18.5 6.08,-28.13 1.53,-10.14 2.79,-20.66 3.81,-31.56 1.01,-10.9 1.52,-22.43 1.52,-34.6 0,-8.11 -0.13,-15.97 -0.38,-23.57 -0.26,-7.6 -0.89,-14.7 -1.9,-21.29 -0.51,-7.1 -1.4,-13.81 -2.67,-20.15 -1.26,-6.34 -2.66,-12.29 -4.18,-17.87 -1.52,-5.57 -3.17,-11.15 -4.94,-16.73 -1.77,-5.57 -3.93,-10.9 -6.46,-15.96 -2.03,-5.07 -4.57,-10.02 -7.61,-14.83 -3.04,-4.82 -6.08,-9.76 -9.12,-14.83 -0.51,-1.01 -1.27,-2.03 -2.28,-3.04 -1.02,-1.02 -1.78,-2.03 -2.28,-3.04 -1.02,-1.02 -1.9,-2.03 -2.66,-3.04 -0.77,-1.02 -1.65,-2.03 -2.67,-3.05 -1.52,-2.02 -3.16,-3.92 -4.94,-5.7 -1.77,-1.77 -3.67,-3.67 -5.7,-5.7 -1.02,-1.02 -2.03,-1.9 -3.04,-2.66 -1.02,-0.76 -2.03,-1.65 -3.04,-2.66 -1.53,-0.51 -2.79,-1.27 -3.81,-2.29 -1.01,-1.01 -2.02,-1.77 -3.04,-2.28 -2.03,-1.52 -4.05,-2.91 -6.08,-4.18 -2.03,-1.27 -4.06,-2.41 -6.08,-3.42l-4.57 -1.52 -3.04 -1.52 -3.04 -1.52 -3.04 -1.52c-2.54,-1.02 -5.2,-2.16 -7.98,-3.43 -2.79,-1.26 -5.71,-2.15 -8.75,-2.66 -1.52,-0.5 -3.04,-0.88 -4.56,-1.14 -1.52,-0.25 -3.04,-0.38 -4.56,-0.38 -2.03,-0.5 -3.81,-0.88 -5.33,-1.14 -1.52,-0.25 -3.04,-0.38 -4.56,-0.38 -3.55,-0.5 -7.35,-0.88 -11.4,-1.14 -4.06,-0.25 -8.37,-0.38 -12.93,-0.38 -5.07,0 -10.27,-0.25 -15.59,-0.76 -5.32,-0.51 -11.02,-1.01 -17.11,-1.52l-83.64 0 0 415.93zm485.88 63.87l0 0 0 0 0 -543.67 30.42 0 72.24 0 0 543.67 -30.42 0 -72.24 0z"/>
    <path class="fil6" d="M12746.71 6558.22l0 0 0 0 71.47 19.77c-3.54,14.2 -7.98,27.76 -13.3,40.69 -5.32,12.92 -11.53,24.96 -18.63,36.11 -6.59,11.16 -13.94,21.55 -22.05,31.18 -8.11,9.63 -16.98,18.25 -26.62,25.85 -9.63,8.11 -20.02,14.96 -31.17,20.53 -11.15,5.58 -22.81,10.39 -34.98,14.45 -12.16,3.04 -24.71,5.45 -37.64,7.22 -12.92,1.78 -26.48,2.66 -40.68,2.66l-30.41 0.76c-13.69,-0.5 -26.87,-1.39 -39.54,-2.66 -12.68,-1.26 -24.84,-3.17 -36.5,-5.7 -11.15,-2.03 -21.93,-5.07 -32.32,-9.12 -10.39,-4.06 -20.15,-8.62 -29.27,-13.69 -9.63,-5.58 -18.5,-11.66 -26.62,-18.25 -8.11,-6.59 -15.71,-13.94 -22.81,-22.05 -7.09,-8.62 -13.68,-17.62 -19.77,-26.99 -6.08,-9.38 -11.66,-19.65 -16.72,-30.8 -2.54,-5.58 -4.95,-11.41 -7.23,-17.49 -2.28,-6.08 -4.69,-12.42 -7.22,-19.01 -2.03,-6.08 -3.93,-12.29 -5.7,-18.63 -1.78,-6.33 -3.17,-12.8 -4.19,-19.39 -1.52,-6.59 -2.66,-13.18 -3.42,-19.77 -0.76,-6.59 -1.65,-13.18 -2.66,-19.77 -0.51,-6.59 -0.89,-13.3 -1.14,-20.15 -0.25,-6.84 -0.38,-13.56 -0.38,-20.15 0,-20.78 1.39,-40.68 4.18,-59.69 2.79,-19.01 7.23,-36.88 13.31,-53.6 5.57,-16.73 12.8,-32.45 21.67,-47.15 8.87,-14.7 19.14,-28.38 30.79,-41.06 11.66,-12.67 24.21,-23.7 37.64,-33.07 13.44,-9.38 28.01,-17.37 43.73,-23.96 15.71,-6.08 32.31,-10.77 49.8,-14.06 17.49,-3.3 36.12,-4.95 55.89,-4.95l30.41 0c13.18,0 26.11,0.89 38.78,2.67 12.68,1.77 24.59,4.43 35.74,7.98 11.66,3.55 22.56,7.73 32.7,12.55 10.14,4.81 20.02,10.77 29.65,17.86 9.13,6.59 17.49,14.07 25.09,22.44 7.61,8.36 14.7,17.61 21.29,27.75 6.59,9.63 12.55,20.02 17.87,31.18 5.33,11.15 9.76,22.81 13.31,34.97l-70.72 18.25 -30.41 0c-3.55,-9.63 -7.22,-18.63 -11.03,-26.99 -3.8,-8.37 -7.98,-16.1 -12.54,-23.19 -4.56,-7.1 -9.51,-13.69 -14.83,-19.77 -5.32,-6.09 -10.77,-11.41 -16.35,-15.97 -5.57,-4.56 -11.66,-8.62 -18.25,-12.17 -6.59,-3.55 -13.68,-6.33 -21.29,-8.36 -5.07,-1.52 -10.64,-2.79 -16.73,-3.8 -6.08,-1.02 -12.42,-1.78 -19.01,-2.28 -11.15,0.5 -21.92,1.9 -32.31,4.18 -10.39,2.28 -20.15,5.45 -29.28,9.5 -11.15,4.56 -21.41,10.39 -30.79,17.49 -9.38,7.1 -18.12,15.46 -26.23,25.09 -8.12,9.64 -15.09,20.03 -20.92,31.18 -5.82,11.15 -10.77,23.32 -14.82,36.5 -4.06,13.18 -7.1,27.37 -9.13,42.58 -2.02,15.21 -3.04,31.17 -3.04,47.9 0,17.75 1.02,34.6 3.04,50.57 2.03,15.97 4.82,30.79 8.37,44.48 4.05,13.69 8.87,26.36 14.44,38.02 5.58,11.66 12.42,22.56 20.53,32.7 7.61,9.63 15.97,18.24 25.1,25.85 9.12,7.6 19.01,13.69 29.65,18.25 8.62,4.05 17.87,7.22 27.76,9.5 9.88,2.28 20.4,3.68 31.55,4.18 7.1,-0.5 14.2,-1.39 21.29,-2.66 7.1,-1.26 13.94,-2.91 20.53,-4.94 8.62,-3.04 16.98,-6.84 25.1,-11.4 8.11,-4.57 15.71,-9.89 22.81,-15.97 7.09,-5.58 13.43,-12.04 19.01,-19.39 5.57,-7.35 10.64,-15.34 15.2,-23.95 4.57,-8.62 8.62,-18 12.17,-28.14 3.55,-10.14 6.34,-21.04 8.36,-32.7l30.42 0zm135.35 -79.07c0,-20.79 1.39,-40.56 4.18,-59.31 2.79,-18.76 7.22,-36.76 13.31,-53.99 6.08,-17.24 13.56,-33.46 22.43,-48.67 8.87,-15.2 19.39,-29.4 31.55,-42.58 11.66,-13.18 24.46,-24.58 38.4,-34.21 13.94,-9.64 28.77,-17.75 44.48,-24.34 16.23,-6.59 33.08,-11.53 50.57,-14.82 17.49,-3.3 35.86,-4.95 55.13,-4.95l30.41 0c19.27,0 37.77,1.65 55.51,4.95 17.74,3.29 34.47,8.23 50.19,14.82 15.71,6.59 30.41,14.7 44.1,24.34 13.68,9.63 26.61,21.03 38.78,34.21 11.66,12.68 22.05,26.62 31.17,41.82 9.13,15.21 16.73,31.43 22.81,48.67 6.09,17.23 10.65,35.36 13.69,54.37 3.04,19.01 4.56,38.9 4.56,59.69 0,20.78 -1.52,40.55 -4.56,59.31 -3.04,18.75 -7.6,36.49 -13.69,53.22 -6.08,16.73 -13.68,32.44 -22.81,47.15 -9.12,14.7 -19.51,28.64 -31.17,41.82 -12.17,12.67 -25.22,23.95 -39.16,33.83 -13.94,9.89 -28.77,17.87 -44.48,23.96 -15.72,6.08 -32.19,10.64 -49.43,13.68 -17.23,3.04 -35.48,4.56 -54.75,4.56l-30.41 0.76c-19.27,-0.5 -37.64,-2.28 -55.13,-5.32 -17.49,-3.04 -34.09,-7.6 -49.8,-13.68 -15.72,-6.09 -30.42,-14.07 -44.11,-23.96 -13.68,-9.88 -26.61,-21.16 -38.78,-33.83 -12.16,-13.18 -22.81,-27.12 -31.93,-41.82 -9.13,-14.71 -16.73,-30.42 -22.81,-47.15 -6.09,-16.73 -10.65,-34.47 -13.69,-53.22 -3.04,-18.76 -4.56,-38.53 -4.56,-59.31zm104.93 -1.53l0 0 0 1.53c0,16.72 1.01,32.69 3.04,47.9 2.03,15.21 5.07,29.4 9.13,42.58 4.05,13.18 9.37,25.47 15.96,36.88 6.59,11.4 13.94,22.18 22.06,32.32 8.61,9.63 17.74,18.24 27.37,25.85 9.63,7.6 20.02,13.94 31.17,19.01 9.64,4.05 19.52,7.22 29.66,9.5 10.14,2.28 20.78,3.68 31.94,4.18 11.15,-0.5 21.79,-1.9 31.93,-4.18 10.14,-2.28 20.02,-5.45 29.66,-9.5 11.65,-5.07 22.43,-11.41 32.31,-19.01 9.89,-7.61 18.88,-16.22 27,-25.85 8.61,-10.14 15.96,-20.92 22.05,-32.32 6.08,-11.41 11.15,-23.95 15.2,-37.64 4.06,-13.18 7.23,-27.37 9.51,-42.58 2.28,-15.21 3.42,-31.18 3.42,-47.9 0,-16.73 -1.14,-32.57 -3.42,-47.53 -2.28,-14.95 -5.45,-29.02 -9.51,-42.2 -4.05,-13.18 -9.12,-25.73 -15.2,-37.64 -6.09,-11.91 -13.44,-22.68 -22.05,-32.31 -8.12,-10.14 -17.11,-18.89 -27,-26.24 -9.88,-7.35 -20.4,-13.56 -31.55,-18.63 -9.64,-4.05 -19.39,-7.35 -29.28,-9.88 -9.88,-2.54 -20.4,-4.06 -31.55,-4.56 -11.66,0.5 -22.69,2.02 -33.08,4.56 -10.39,2.53 -20.4,5.83 -30.04,9.88 -11.15,5.07 -21.67,11.16 -31.55,18.25 -9.89,7.1 -19.14,15.46 -27.76,25.09 -8.11,9.64 -15.33,20.41 -21.67,32.32 -6.33,11.91 -11.53,24.46 -15.58,37.64 -4.06,13.18 -7.1,27.37 -9.13,42.58 -2.03,15.21 -3.04,31.18 -3.04,47.9zm515.54 95.81l0 0 0 0 67.67 -3.8 30.42 0c0,2.54 0,4.94 0,7.22 0,2.29 0.25,4.69 0.76,7.23 0.5,2.03 0.88,3.93 1.14,5.7 0.25,1.77 0.63,3.42 1.14,4.94 0.5,1.52 0.88,3.04 1.14,4.57 0.25,1.52 0.63,3.04 1.14,4.56 0.51,1.52 1.01,2.91 1.52,4.18 0.51,1.27 1.01,2.41 1.52,3.42l1.52 3.04 1.52 3.04 0.76 1.53 1.52 1.52 0 2.28 1.52 1.52c2.54,5.57 5.71,10.9 9.51,15.97 3.8,5.07 8.24,9.63 13.31,13.68 4.56,4.57 9.63,8.62 15.2,12.17 5.58,3.55 11.66,6.84 18.25,9.88 6.59,3.55 13.31,6.47 20.15,8.75 6.85,2.28 14.07,4.18 21.67,5.7 5.58,1.01 11.03,1.9 16.35,2.66 5.32,0.76 10.77,1.4 16.35,1.9 7.1,-0.5 13.94,-1.26 20.53,-2.28 6.59,-1.01 12.93,-2.28 19.01,-3.8 8.11,-2.53 15.71,-5.32 22.81,-8.36 7.1,-3.05 13.69,-6.59 19.77,-10.65 6.08,-4.05 11.41,-8.62 15.97,-13.69 4.56,-5.07 8.36,-10.39 11.4,-15.96 3.05,-5.58 5.45,-11.54 7.23,-17.87 1.77,-6.34 2.66,-13.06 2.66,-20.15 0,-3.55 -0.25,-6.97 -0.76,-10.27 -0.51,-3.29 -1.27,-6.71 -2.28,-10.26 -0.51,-1.52 -1.02,-3.04 -1.52,-4.57 -0.51,-1.52 -1.02,-3.29 -1.52,-5.32 -1.02,-1.52 -1.91,-3.04 -2.67,-4.56 -0.76,-1.52 -1.64,-3.04 -2.66,-4.56 -2.02,-2.54 -4.05,-5.2 -6.08,-7.99 -2.03,-2.78 -4.31,-5.19 -6.84,-7.22 -2.54,-2.53 -5.33,-4.69 -8.37,-6.46 -3.04,-1.78 -6.08,-3.68 -9.12,-5.71l-3.04 -1.52 -3.05 -1.52 -3.04 -1.52 -3.04 -1.52 -3.8 -0.76 -3.04 -1.52 -3.8 -1.52 -3.05 -1.52c-2.02,-1.02 -4.43,-1.9 -7.22,-2.66 -2.79,-0.76 -5.45,-1.4 -7.98,-1.9 -3.04,-1.02 -6.09,-1.91 -9.13,-2.67 -3.04,-0.76 -6.33,-1.64 -9.88,-2.66 -3.55,-1.01 -7.48,-2.02 -11.79,-3.04 -4.31,-1.01 -9.25,-2.28 -14.83,-3.8 -5.06,-1.01 -10.51,-2.28 -16.34,-3.8 -5.83,-1.52 -12.3,-3.3 -19.39,-5.33 -1.52,-0.5 -3.04,-0.88 -4.57,-1.14 -1.52,-0.25 -3.04,-0.63 -4.56,-1.14 -1.52,0 -2.91,-0.25 -4.18,-0.76 -1.27,-0.5 -2.41,-1.01 -3.42,-1.52 -1.52,0 -3.04,-0.12 -4.56,-0.38 -1.52,-0.25 -2.79,-0.63 -3.81,-1.14 -1.01,-0.5 -2.15,-0.89 -3.42,-1.14 -1.26,-0.25 -2.41,-0.63 -3.42,-1.14 -2.53,-0.51 -4.94,-1.01 -7.22,-1.52 -2.28,-0.51 -4.44,-1.01 -6.47,-1.52 -1.01,-0.51 -2.02,-0.89 -3.04,-1.14 -1.01,-0.25 -2.03,-0.63 -3.04,-1.14 -1.01,0 -2.03,-0.13 -3.04,-0.38 -1.01,-0.26 -2.03,-0.64 -3.04,-1.14 -3.55,-1.02 -7.23,-2.16 -11.03,-3.42 -3.8,-1.27 -7.22,-2.67 -10.26,-4.19 -3.04,-1.01 -6.09,-2.15 -9.13,-3.42 -3.04,-1.27 -5.83,-2.66 -8.36,-4.18 -2.54,-1.01 -5.07,-2.15 -7.61,-3.42 -2.53,-1.27 -5.06,-2.66 -7.6,-4.18 -2.03,-1.52 -4.18,-3.05 -6.46,-4.57 -2.28,-1.52 -4.69,-3.29 -7.23,-5.32l-0.76 0 0 -0.76 -0.76 0 0 0 -1.52 0 0 -1.52c-4.05,-2.53 -7.85,-5.45 -11.4,-8.74 -3.55,-3.3 -6.85,-6.72 -9.89,-10.27 -3.04,-4.05 -5.83,-8.11 -8.36,-12.17 -2.54,-4.05 -5.07,-8.36 -7.61,-12.92 -2.02,-4.06 -3.92,-8.37 -5.7,-12.93 -1.77,-4.56 -3.17,-9.38 -4.18,-14.45 -1.01,-4.56 -1.78,-9.37 -2.28,-14.44 -0.51,-5.07 -0.76,-10.14 -0.76,-15.21 0,-11.15 1.01,-21.8 3.04,-31.94 2.03,-10.14 5.32,-19.77 9.88,-28.89 4.57,-9.13 10.14,-17.74 16.73,-25.85 6.59,-8.11 14.2,-15.47 22.81,-22.05 8.62,-7.1 18.13,-13.18 28.52,-18.25 10.39,-5.07 21.16,-9.38 32.31,-12.93 11.66,-3.55 24.08,-6.21 37.26,-7.98 13.18,-1.78 26.87,-2.67 41.06,-2.67l30.42 0c15.21,0 29.78,0.89 43.72,2.67 13.94,1.77 26.99,4.43 39.16,7.98 12.17,3.55 23.57,8.11 34.22,13.69 10.64,5.57 20.53,11.91 29.65,19.01 9.13,7.09 17.11,14.82 23.95,23.19 6.85,8.36 12.8,17.61 17.87,27.75 4.56,9.63 8.24,20.15 11.03,31.56 2.79,11.4 4.43,23.19 4.94,35.35l-69.19 6.85 -30.42 0c-1.01,-8.62 -2.66,-16.86 -4.94,-24.71 -2.28,-7.86 -4.94,-15.09 -7.99,-21.68 -3.04,-6.59 -6.59,-12.54 -10.64,-17.86 -4.06,-5.33 -8.87,-10.02 -14.45,-14.07 -5.07,-4.06 -11.02,-7.73 -17.87,-11.03 -6.84,-3.29 -14.06,-5.95 -21.67,-7.98 -6.08,-1.52 -12.42,-2.79 -19.01,-3.8 -6.59,-1.02 -13.43,-1.78 -20.53,-2.28 -6.59,0.5 -13.05,1.14 -19.39,1.9 -6.33,0.76 -12.29,1.9 -17.87,3.42 -7.6,2.03 -14.7,4.31 -21.29,6.84 -6.59,2.54 -12.67,5.58 -18.25,9.13 -5.57,3.55 -10.51,7.6 -14.82,12.16 -4.31,4.57 -7.73,9.38 -10.27,14.45 -3.04,5.07 -5.19,10.39 -6.46,15.97 -1.27,5.57 -1.9,11.4 -1.9,17.49 0,5.07 0.25,9.63 0.76,13.68 0.5,4.06 1.52,8.11 3.04,12.17 1.52,3.55 3.29,6.97 5.32,10.27 2.03,3.29 4.56,6.2 7.61,8.74 2.53,2.53 5.95,5.07 10.26,7.6 4.31,2.54 9,5.07 14.07,7.61 5.57,2.53 11.66,4.94 18.25,7.22 6.59,2.28 13.94,4.69 22.05,7.22 1.52,0.51 3.17,1.02 4.94,1.53 1.77,0.5 3.68,1.01 5.7,1.52 2.03,0.5 3.93,1.01 5.71,1.52 1.77,0.5 3.67,1.01 5.7,1.52 2.03,0.5 4.05,1.01 6.08,1.52 2.03,0.51 4.06,1.01 6.08,1.52 2.54,0.51 4.95,1.01 7.23,1.52 2.28,0.51 4.43,1.01 6.46,1.52 5.07,1.01 9.89,2.15 14.45,3.42 4.56,1.27 9.12,2.41 13.69,3.42 4.05,1.02 8.11,1.9 12.16,2.67 4.06,0.76 7.86,1.64 11.41,2.66 3.55,1.01 6.97,2.02 10.26,3.04 3.3,1.01 6.72,2.03 10.27,3.04 3.04,0.51 6.08,1.14 9.12,1.9 3.04,0.76 5.83,1.65 8.37,2.66 1.01,0.51 2.02,0.89 3.04,1.14 1.01,0.26 2.28,0.64 3.8,1.14 1.01,0.51 2.03,0.89 3.04,1.14 1.02,0.26 2.03,0.64 3.04,1.14 2.03,0.51 3.93,1.14 5.71,1.91 1.77,0.76 3.67,1.64 5.7,2.66 0.51,0 1.01,0.12 1.52,0.38 0.51,0.25 1.01,0.38 1.52,0.38 0,0.5 0.25,0.88 0.76,1.14 0.51,0.25 1.01,0.38 1.52,0.38 1.02,0.5 2.03,1.01 3.04,1.52 1.02,0.51 2.03,1.01 3.04,1.52l4.57 2.28c1.01,0.51 2.02,1.01 3.04,1.52 1.01,0.51 2.03,1.01 3.04,1.52l0.76 0.76 1.52 0 0 1.52 1.52 0 2.28 1.52 2.28 0.76c5.58,3.55 10.78,7.23 15.59,11.03 4.82,3.8 9.25,7.73 13.31,11.79 4.05,4.56 7.98,9.12 11.78,13.68 3.81,4.56 7.23,9.38 10.27,14.45 3.04,5.07 5.7,10.52 7.98,16.35 2.28,5.83 4.19,11.53 5.71,17.11 1.52,5.57 2.66,11.4 3.42,17.48 0.76,6.09 1.14,12.17 1.14,18.25 0,12.17 -1.27,23.58 -3.8,34.22 -2.54,10.65 -6.09,21.04 -10.65,31.18 -4.56,9.63 -10.39,18.75 -17.49,27.37 -7.09,8.62 -15.21,16.73 -24.33,24.33 -9.63,7.61 -19.77,14.2 -30.41,19.77 -10.65,5.58 -22.06,10.14 -34.22,13.69 -12.17,3.04 -24.84,5.45 -38.02,7.22 -13.18,1.78 -27.12,2.66 -41.82,2.66l-30.42 0.76c-18.25,-0.5 -35.35,-1.77 -51.32,-3.8 -15.97,-2.03 -31.05,-4.56 -45.25,-7.6 -14.19,-4.06 -27.37,-9 -39.54,-14.83 -12.16,-5.83 -23.31,-12.8 -33.45,-20.91 -10.14,-8.11 -19.01,-16.98 -26.62,-26.61 -7.6,-9.63 -14.19,-20.03 -19.76,-31.18 -5.07,-11.66 -9,-23.95 -11.79,-36.88 -2.79,-12.92 -4.18,-26.99 -4.18,-42.2zm526.18 11.41l0 0 0 0 0 -66.92 30.42 0 205.3 0 0 66.92 -30.42 0 -205.3 0zm418.97 -190.86l0 354.34 -30.42 0 -72.99 0 0 -543.67 30.41 0 104.94 0 132.3 390.07 10.65 33.46 13.68 -41.06 133.83 -382.47 30.42 0 93.52 0 0 543.67 -30.41 0 -73 0 0 -355.1 -124.7 355.1 -30.42 0 -64.63 0 -123.18 -354.34zm563.44 354.34l0 0 0 0 0 -543.67 30.42 0 393.11 0 0 63.87 -320.88 0 0 166.52 300.35 0 0 63.88 -300.35 0 0 185.53 333.81 0 0 63.87 -30.42 0 -406.04 0zm149.03 -580.17l0 0 0 0 49.43 -104.17 30.41 0 87.45 0 -81.36 104.17 -30.42 0 -55.51 0zm387.8 580.17l0 0 0 0 0 -543.67 30.41 0 187.82 1.52c3.55,0 6.97,0 10.26,0 3.3,0 6.47,0 9.51,0 3.04,0.51 6.08,0.76 9.12,0.76 3.04,0 5.83,0 8.37,0 5.57,0 10.77,0.13 15.59,0.38 4.81,0.25 9.25,0.63 13.3,1.14 2.03,0 3.93,0.13 5.7,0.38 1.78,0.25 3.68,0.63 5.71,1.14 1.52,0 3.17,0.13 4.94,0.38 1.77,0.25 3.68,0.63 5.7,1.14 4.06,0.51 7.73,1.14 11.03,1.9 3.29,0.76 6.71,1.65 10.26,2.66l3.04 1.52 3.81 0.77 3.04 1.52 3.04 1.52c1.01,0.5 2.15,0.88 3.42,1.14 1.27,0.25 2.41,0.88 3.42,1.9 1.02,0.51 2.16,1.01 3.43,1.52 1.26,0.51 2.66,1.01 4.18,1.52 0.5,0.51 1.01,0.89 1.52,1.14 0.5,0.25 1.27,0.38 2.28,0.38 0.51,0.51 1.14,0.89 1.9,1.14 0.76,0.25 1.39,0.63 1.9,1.14 0.51,0.51 1.14,0.89 1.9,1.14 0.76,0.26 1.4,0.38 1.9,0.38 1.02,0.51 1.9,0.89 2.66,1.14 0.76,0.26 1.4,0.64 1.91,1.14 0.5,0.51 1.01,1.02 1.52,1.52 0.5,0.51 1.26,0.76 2.28,0.76 0.5,0.51 1.14,1.02 1.9,1.53 0.76,0.5 1.39,1.01 1.9,1.52 0.51,0.5 1.01,1.01 1.52,1.52 0.51,0.5 1.27,0.76 2.28,0.76 0.51,0.5 1.14,1.01 1.9,1.52 0.76,0.5 1.4,1.01 1.9,1.52 2.54,2.03 5.2,3.93 7.99,5.7 2.78,1.78 5.19,3.93 7.22,6.46 1.01,1.02 2.03,2.16 3.04,3.43 1.02,1.26 2.28,2.4 3.8,3.42 1.02,1.52 2.03,2.91 3.05,4.18 1.01,1.27 2.02,2.41 3.04,3.42 5.57,6.59 10.64,13.31 15.2,20.15 4.57,6.85 8.88,14.07 12.93,21.67 4.06,7.61 7.86,15.21 11.41,22.81 3.54,7.61 6.84,15.72 9.88,24.34 2.54,8.11 4.82,16.72 6.84,25.85 2.03,9.12 3.81,18.25 5.33,27.37 1.52,9.63 2.66,19.39 3.42,29.28 0.76,9.88 1.14,19.89 1.14,30.03 0,14.7 -0.63,28.9 -1.9,42.58 -1.27,13.69 -3.17,27.12 -5.7,40.3 -2.54,12.68 -5.71,25.1 -9.51,37.26 -3.8,12.17 -8.24,23.57 -13.31,34.22 -5.06,11.15 -10.77,21.42 -17.1,30.8 -6.34,9.37 -13.06,17.86 -20.15,25.47 -7.1,8.11 -14.7,15.33 -22.82,21.67 -8.11,6.34 -16.72,11.78 -25.85,16.35l-3.8 1.52 -3.04 1.52 -3.8 1.52 -3.05 1.52c-4.05,2.03 -8.23,3.8 -12.54,5.32 -4.31,1.52 -8.75,3.04 -13.31,4.57 -4.56,1.52 -9.12,2.66 -13.68,3.42 -4.57,0.76 -9.13,1.64 -13.69,2.66 -5.07,0.51 -10.27,1.14 -15.59,1.9 -5.32,0.76 -10.77,1.14 -16.35,1.14 -6.08,0.51 -12.29,0.76 -18.63,0.76 -6.33,0 -13.05,0 -20.15,0l-30.41 0 -196.18 0zm102.65 -63.87l0 0 0 0 105.69 1.52c1.52,0 2.92,0 4.19,0 1.26,0 2.66,-0.25 4.18,-0.76 1.01,0 2.15,0 3.42,0 1.27,0 2.66,0 4.18,0 5.58,-0.51 10.77,-1.14 15.59,-1.9 4.82,-0.76 9.25,-1.4 13.31,-1.9 4.05,-1.02 8.11,-1.9 12.16,-2.66 4.06,-0.77 7.86,-1.91 11.41,-3.43 3.55,-1.52 6.97,-3.04 10.26,-4.56 3.3,-1.52 6.72,-3.29 10.27,-5.32 6.08,-4.06 11.91,-8.37 17.49,-12.93 5.57,-4.56 10.9,-9.88 15.96,-15.97 4.57,-6.08 8.88,-12.67 12.93,-19.77 4.06,-7.09 7.86,-14.7 11.41,-22.81 3.55,-8.11 6.59,-16.73 9.12,-25.85 2.54,-9.12 4.56,-18.5 6.08,-28.13 1.53,-10.14 2.79,-20.66 3.81,-31.56 1.01,-10.9 1.52,-22.43 1.52,-34.6 0,-8.11 -0.13,-15.97 -0.38,-23.57 -0.26,-7.6 -0.89,-14.7 -1.9,-21.29 -0.51,-7.1 -1.4,-13.81 -2.67,-20.15 -1.26,-6.34 -2.66,-12.29 -4.18,-17.87 -1.52,-5.57 -3.17,-11.15 -4.94,-16.73 -1.77,-5.57 -3.93,-10.9 -6.46,-15.96 -2.03,-5.07 -4.57,-10.02 -7.61,-14.83 -3.04,-4.82 -6.08,-9.76 -9.12,-14.83 -0.51,-1.01 -1.27,-2.03 -2.28,-3.04 -1.02,-1.02 -1.78,-2.03 -2.28,-3.04 -1.02,-1.02 -1.9,-2.03 -2.66,-3.04 -0.77,-1.02 -1.65,-2.03 -2.67,-3.05 -1.52,-2.02 -3.16,-3.92 -4.94,-5.7 -1.77,-1.77 -3.67,-3.67 -5.7,-5.7 -1.02,-1.02 -2.03,-1.9 -3.04,-2.66 -1.02,-0.76 -2.03,-1.65 -3.04,-2.66 -1.53,-0.51 -2.79,-1.27 -3.81,-2.29 -1.01,-1.01 -2.02,-1.77 -3.04,-2.28 -2.03,-1.52 -4.05,-2.91 -6.08,-4.18 -2.03,-1.27 -4.06,-2.41 -6.08,-3.42l-4.57 -1.52 -3.04 -1.52 -3.04 -1.52 -3.04 -1.52c-2.54,-1.02 -5.2,-2.16 -7.98,-3.43 -2.79,-1.26 -5.71,-2.15 -8.75,-2.66 -1.52,-0.5 -3.04,-0.88 -4.56,-1.14 -1.52,-0.25 -3.04,-0.38 -4.56,-0.38 -2.03,-0.5 -3.81,-0.88 -5.33,-1.14 -1.52,-0.25 -3.04,-0.38 -4.56,-0.38 -3.55,-0.5 -7.35,-0.88 -11.4,-1.14 -4.06,-0.25 -8.37,-0.38 -12.93,-0.38 -5.07,0 -10.27,-0.25 -15.59,-0.76 -5.32,-0.51 -11.02,-1.01 -17.11,-1.52l-83.64 0 0 415.93zm485.88 63.87l0 0 0 0 0 -543.67 30.42 0 72.24 0 0 543.67 -30.42 0 -72.24 0zm650.13 -190.1l0 0 0 0 71.47 19.77c-3.54,14.2 -7.98,27.76 -13.3,40.69 -5.32,12.92 -11.53,24.96 -18.63,36.11 -6.59,11.16 -13.94,21.55 -22.05,31.18 -8.11,9.63 -16.98,18.25 -26.62,25.85 -9.63,8.11 -20.02,14.96 -31.17,20.53 -11.15,5.58 -22.81,10.39 -34.98,14.45 -12.16,3.04 -24.71,5.45 -37.64,7.22 -12.92,1.78 -26.48,2.66 -40.68,2.66l-30.41 0.76c-13.69,-0.5 -26.87,-1.39 -39.54,-2.66 -12.68,-1.26 -24.84,-3.17 -36.5,-5.7 -11.15,-2.03 -21.93,-5.07 -32.32,-9.12 -10.39,-4.06 -20.15,-8.62 -29.27,-13.69 -9.63,-5.58 -18.5,-11.66 -26.62,-18.25 -8.11,-6.59 -15.71,-13.94 -22.81,-22.05 -7.09,-8.62 -13.68,-17.62 -19.77,-26.99 -6.08,-9.38 -11.66,-19.65 -16.72,-30.8 -2.54,-5.58 -4.95,-11.41 -7.23,-17.49 -2.28,-6.08 -4.69,-12.42 -7.22,-19.01 -2.03,-6.08 -3.93,-12.29 -5.7,-18.63 -1.78,-6.33 -3.17,-12.8 -4.19,-19.39 -1.52,-6.59 -2.66,-13.18 -3.42,-19.77 -0.76,-6.59 -1.65,-13.18 -2.66,-19.77 -0.51,-6.59 -0.89,-13.3 -1.14,-20.15 -0.25,-6.84 -0.38,-13.56 -0.38,-20.15 0,-20.78 1.39,-40.68 4.18,-59.69 2.79,-19.01 7.23,-36.88 13.31,-53.6 5.57,-16.73 12.8,-32.45 21.67,-47.15 8.87,-14.7 19.14,-28.38 30.79,-41.06 11.66,-12.67 24.21,-23.7 37.64,-33.07 13.44,-9.38 28.01,-17.37 43.73,-23.96 15.71,-6.08 32.31,-10.77 49.8,-14.06 17.49,-3.3 36.12,-4.95 55.89,-4.95l30.41 0c13.18,0 26.11,0.89 38.78,2.67 12.68,1.77 24.59,4.43 35.74,7.98 11.66,3.55 22.56,7.73 32.7,12.55 10.14,4.81 20.02,10.77 29.65,17.86 9.13,6.59 17.49,14.07 25.09,22.44 7.61,8.36 14.7,17.61 21.29,27.75 6.59,9.63 12.55,20.02 17.87,31.18 5.33,11.15 9.76,22.81 13.31,34.97l-70.72 18.25 -30.41 0c-3.55,-9.63 -7.22,-18.63 -11.03,-26.99 -3.8,-8.37 -7.98,-16.1 -12.54,-23.19 -4.56,-7.1 -9.51,-13.69 -14.83,-19.77 -5.32,-6.09 -10.77,-11.41 -16.35,-15.97 -5.57,-4.56 -11.66,-8.62 -18.25,-12.17 -6.59,-3.55 -13.68,-6.33 -21.29,-8.36 -5.07,-1.52 -10.64,-2.79 -16.73,-3.8 -6.08,-1.02 -12.42,-1.78 -19.01,-2.28 -11.15,0.5 -21.92,1.9 -32.31,4.18 -10.39,2.28 -20.15,5.45 -29.28,9.5 -11.15,4.56 -21.41,10.39 -30.79,17.49 -9.38,7.1 -18.12,15.46 -26.23,25.09 -8.12,9.64 -15.09,20.03 -20.92,31.18 -5.82,11.15 -10.77,23.32 -14.82,36.5 -4.06,13.18 -7.1,27.37 -9.13,42.58 -2.02,15.21 -3.04,31.17 -3.04,47.9 0,17.75 1.02,34.6 3.04,50.57 2.03,15.97 4.82,30.79 8.37,44.48 4.05,13.69 8.87,26.36 14.44,38.02 5.58,11.66 12.42,22.56 20.53,32.7 7.61,9.63 15.97,18.24 25.1,25.85 9.12,7.6 19.01,13.69 29.65,18.25 8.62,4.05 17.87,7.22 27.76,9.5 9.88,2.28 20.4,3.68 31.55,4.18 7.1,-0.5 14.2,-1.39 21.29,-2.66 7.1,-1.26 13.94,-2.91 20.53,-4.94 8.62,-3.04 16.98,-6.84 25.1,-11.4 8.11,-4.57 15.71,-9.89 22.81,-15.97 7.09,-5.58 13.43,-12.04 19.01,-19.39 5.57,-7.35 10.64,-15.34 15.2,-23.95 4.57,-8.62 8.62,-18 12.17,-28.14 3.55,-10.14 6.34,-21.04 8.36,-32.7l30.42 0z"/>
    <path class="fil6" d="M16921.96 6479.15c0,-20.79 1.39,-40.56 4.18,-59.31 2.79,-18.76 7.22,-36.76 13.31,-53.99 6.08,-17.24 13.56,-33.46 22.43,-48.67 8.87,-15.2 19.39,-29.4 31.55,-42.58 11.66,-13.18 24.46,-24.58 38.4,-34.21 13.94,-9.64 28.77,-17.75 44.48,-24.34 16.23,-6.59 33.08,-11.53 50.57,-14.82 17.49,-3.3 35.86,-4.95 55.13,-4.95l30.41 0c19.27,0 37.77,1.65 55.51,4.95 17.74,3.29 34.47,8.23 50.19,14.82 15.71,6.59 30.41,14.7 44.1,24.34 13.68,9.63 26.61,21.03 38.78,34.21 11.66,12.68 22.05,26.62 31.17,41.82 9.13,15.21 16.73,31.43 22.81,48.67 6.09,17.23 10.65,35.36 13.69,54.37 3.04,19.01 4.56,38.9 4.56,59.69 0,20.78 -1.52,40.55 -4.56,59.31 -3.04,18.75 -7.6,36.49 -13.69,53.22 -6.08,16.73 -13.68,32.44 -22.81,47.15 -9.12,14.7 -19.51,28.64 -31.17,41.82 -12.17,12.67 -25.22,23.95 -39.16,33.83 -13.94,9.89 -28.77,17.87 -44.48,23.96 -15.72,6.08 -32.19,10.64 -49.43,13.68 -17.23,3.04 -35.48,4.56 -54.75,4.56l-30.41 0.76c-19.27,-0.5 -37.64,-2.28 -55.13,-5.32 -17.49,-3.04 -34.09,-7.6 -49.8,-13.68 -15.72,-6.09 -30.42,-14.07 -44.11,-23.96 -13.68,-9.88 -26.61,-21.16 -38.78,-33.83 -12.16,-13.18 -22.81,-27.12 -31.93,-41.82 -9.13,-14.71 -16.73,-30.42 -22.81,-47.15 -6.09,-16.73 -10.65,-34.47 -13.69,-53.22 -3.04,-18.76 -4.56,-38.53 -4.56,-59.31zm104.93 -1.53l0 0 0 1.53c0,16.72 1.01,32.69 3.04,47.9 2.03,15.21 5.07,29.4 9.13,42.58 4.05,13.18 9.37,25.47 15.96,36.88 6.59,11.4 13.94,22.18 22.06,32.32 8.61,9.63 17.74,18.24 27.37,25.85 9.63,7.6 20.02,13.94 31.17,19.01 9.64,4.05 19.52,7.22 29.66,9.5 10.14,2.28 20.78,3.68 31.94,4.18 11.15,-0.5 21.79,-1.9 31.93,-4.18 10.14,-2.28 20.02,-5.45 29.66,-9.5 11.65,-5.07 22.43,-11.41 32.31,-19.01 9.89,-7.61 18.88,-16.22 27,-25.85 8.61,-10.14 15.96,-20.92 22.05,-32.32 6.08,-11.41 11.15,-23.95 15.2,-37.64 4.06,-13.18 7.23,-27.37 9.51,-42.58 2.28,-15.21 3.42,-31.18 3.42,-47.9 0,-16.73 -1.14,-32.57 -3.42,-47.53 -2.28,-14.95 -5.45,-29.02 -9.51,-42.2 -4.05,-13.18 -9.12,-25.73 -15.2,-37.64 -6.09,-11.91 -13.44,-22.68 -22.05,-32.31 -8.12,-10.14 -17.11,-18.89 -27,-26.24 -9.88,-7.35 -20.4,-13.56 -31.55,-18.63 -9.64,-4.05 -19.39,-7.35 -29.28,-9.88 -9.88,-2.54 -20.4,-4.06 -31.55,-4.56 -11.66,0.5 -22.69,2.02 -33.08,4.56 -10.39,2.53 -20.4,5.83 -30.04,9.88 -11.15,5.07 -21.67,11.16 -31.55,18.25 -9.89,7.1 -19.14,15.46 -27.76,25.09 -8.11,9.64 -15.33,20.41 -21.67,32.32 -6.33,11.91 -11.53,24.46 -15.58,37.64 -4.06,13.18 -7.1,27.37 -9.13,42.58 -2.03,15.21 -3.04,31.18 -3.04,47.9zm515.54 95.81l0 0 0 0 67.67 -3.8 30.42 0c0,2.54 0,4.94 0,7.22 0,2.29 0.25,4.69 0.76,7.23 0.5,2.03 0.88,3.93 1.14,5.7 0.25,1.77 0.63,3.42 1.14,4.94 0.5,1.52 0.88,3.04 1.14,4.57 0.25,1.52 0.63,3.04 1.14,4.56 0.51,1.52 1.01,2.91 1.52,4.18 0.51,1.27 1.01,2.41 1.52,3.42l1.52 3.04 1.52 3.04 0.76 1.53 1.52 1.52 0 2.28 1.52 1.52c2.54,5.57 5.71,10.9 9.51,15.97 3.8,5.07 8.24,9.63 13.31,13.68 4.56,4.57 9.63,8.62 15.2,12.17 5.58,3.55 11.66,6.84 18.25,9.88 6.59,3.55 13.31,6.47 20.15,8.75 6.85,2.28 14.07,4.18 21.67,5.7 5.58,1.01 11.03,1.9 16.35,2.66 5.32,0.76 10.77,1.4 16.35,1.9 7.1,-0.5 13.94,-1.26 20.53,-2.28 6.59,-1.01 12.93,-2.28 19.01,-3.8 8.11,-2.53 15.71,-5.32 22.81,-8.36 7.1,-3.05 13.69,-6.59 19.77,-10.65 6.08,-4.05 11.41,-8.62 15.97,-13.69 4.56,-5.07 8.36,-10.39 11.4,-15.96 3.05,-5.58 5.45,-11.54 7.23,-17.87 1.77,-6.34 2.66,-13.06 2.66,-20.15 0,-3.55 -0.25,-6.97 -0.76,-10.27 -0.51,-3.29 -1.27,-6.71 -2.28,-10.26 -0.51,-1.52 -1.02,-3.04 -1.52,-4.57 -0.51,-1.52 -1.02,-3.29 -1.52,-5.32 -1.02,-1.52 -1.91,-3.04 -2.67,-4.56 -0.76,-1.52 -1.64,-3.04 -2.66,-4.56 -2.02,-2.54 -4.05,-5.2 -6.08,-7.99 -2.03,-2.78 -4.31,-5.19 -6.84,-7.22 -2.54,-2.53 -5.33,-4.69 -8.37,-6.46 -3.04,-1.78 -6.08,-3.68 -9.12,-5.71l-3.04 -1.52 -3.05 -1.52 -3.04 -1.52 -3.04 -1.52 -3.8 -0.76 -3.04 -1.52 -3.8 -1.52 -3.05 -1.52c-2.02,-1.02 -4.43,-1.9 -7.22,-2.66 -2.79,-0.76 -5.45,-1.4 -7.98,-1.9 -3.04,-1.02 -6.09,-1.91 -9.13,-2.67 -3.04,-0.76 -6.33,-1.64 -9.88,-2.66 -3.55,-1.01 -7.48,-2.02 -11.79,-3.04 -4.31,-1.01 -9.25,-2.28 -14.83,-3.8 -5.06,-1.01 -10.51,-2.28 -16.34,-3.8 -5.83,-1.52 -12.3,-3.3 -19.39,-5.33 -1.52,-0.5 -3.04,-0.88 -4.57,-1.14 -1.52,-0.25 -3.04,-0.63 -4.56,-1.14 -1.52,0 -2.91,-0.25 -4.18,-0.76 -1.27,-0.5 -2.41,-1.01 -3.42,-1.52 -1.52,0 -3.04,-0.12 -4.56,-0.38 -1.52,-0.25 -2.79,-0.63 -3.81,-1.14 -1.01,-0.5 -2.15,-0.89 -3.42,-1.14 -1.26,-0.25 -2.41,-0.63 -3.42,-1.14 -2.53,-0.51 -4.94,-1.01 -7.22,-1.52 -2.28,-0.51 -4.44,-1.01 -6.47,-1.52 -1.01,-0.51 -2.02,-0.89 -3.04,-1.14 -1.01,-0.25 -2.03,-0.63 -3.04,-1.14 -1.01,0 -2.03,-0.13 -3.04,-0.38 -1.01,-0.26 -2.03,-0.64 -3.04,-1.14 -3.55,-1.02 -7.23,-2.16 -11.03,-3.42 -3.8,-1.27 -7.22,-2.67 -10.26,-4.19 -3.04,-1.01 -6.09,-2.15 -9.13,-3.42 -3.04,-1.27 -5.83,-2.66 -8.36,-4.18 -2.54,-1.01 -5.07,-2.15 -7.61,-3.42 -2.53,-1.27 -5.06,-2.66 -7.6,-4.18 -2.03,-1.52 -4.18,-3.05 -6.46,-4.57 -2.28,-1.52 -4.69,-3.29 -7.23,-5.32l-0.76 0 0 -0.76 -0.76 0 0 0 -1.52 0 0 -1.52c-4.05,-2.53 -7.85,-5.45 -11.4,-8.74 -3.55,-3.3 -6.85,-6.72 -9.89,-10.27 -3.04,-4.05 -5.83,-8.11 -8.36,-12.17 -2.54,-4.05 -5.07,-8.36 -7.61,-12.92 -2.02,-4.06 -3.92,-8.37 -5.7,-12.93 -1.77,-4.56 -3.17,-9.38 -4.18,-14.45 -1.01,-4.56 -1.78,-9.37 -2.28,-14.44 -0.51,-5.07 -0.76,-10.14 -0.76,-15.21 0,-11.15 1.01,-21.8 3.04,-31.94 2.03,-10.14 5.32,-19.77 9.88,-28.89 4.57,-9.13 10.14,-17.74 16.73,-25.85 6.59,-8.11 14.2,-15.47 22.81,-22.05 8.62,-7.1 18.13,-13.18 28.52,-18.25 10.39,-5.07 21.16,-9.38 32.31,-12.93 11.66,-3.55 24.08,-6.21 37.26,-7.98 13.18,-1.78 26.87,-2.67 41.06,-2.67l30.42 0c15.21,0 29.78,0.89 43.72,2.67 13.94,1.77 26.99,4.43 39.16,7.98 12.17,3.55 23.57,8.11 34.22,13.69 10.64,5.57 20.53,11.91 29.65,19.01 9.13,7.09 17.11,14.82 23.95,23.19 6.85,8.36 12.8,17.61 17.87,27.75 4.56,9.63 8.24,20.15 11.03,31.56 2.79,11.4 4.43,23.19 4.94,35.35l-69.19 6.85 -30.42 0c-1.01,-8.62 -2.66,-16.86 -4.94,-24.71 -2.28,-7.86 -4.94,-15.09 -7.99,-21.68 -3.04,-6.59 -6.59,-12.54 -10.64,-17.86 -4.06,-5.33 -8.87,-10.02 -14.45,-14.07 -5.07,-4.06 -11.02,-7.73 -17.87,-11.03 -6.84,-3.29 -14.06,-5.95 -21.67,-7.98 -6.08,-1.52 -12.42,-2.79 -19.01,-3.8 -6.59,-1.02 -13.43,-1.78 -20.53,-2.28 -6.59,0.5 -13.05,1.14 -19.39,1.9 -6.33,0.76 -12.29,1.9 -17.87,3.42 -7.6,2.03 -14.7,4.31 -21.29,6.84 -6.59,2.54 -12.67,5.58 -18.25,9.13 -5.57,3.55 -10.51,7.6 -14.82,12.16 -4.31,4.57 -7.73,9.38 -10.27,14.45 -3.04,5.07 -5.19,10.39 -6.46,15.97 -1.27,5.57 -1.9,11.4 -1.9,17.49 0,5.07 0.25,9.63 0.76,13.68 0.5,4.06 1.52,8.11 3.04,12.17 1.52,3.55 3.29,6.97 5.32,10.27 2.03,3.29 4.56,6.2 7.61,8.74 2.53,2.53 5.95,5.07 10.26,7.6 4.31,2.54 9,5.07 14.07,7.61 5.57,2.53 11.66,4.94 18.25,7.22 6.59,2.28 13.94,4.69 22.05,7.22 1.52,0.51 3.17,1.02 4.94,1.53 1.77,0.5 3.68,1.01 5.7,1.52 2.03,0.5 3.93,1.01 5.71,1.52 1.77,0.5 3.67,1.01 5.7,1.52 2.03,0.5 4.05,1.01 6.08,1.52 2.03,0.51 4.06,1.01 6.08,1.52 2.54,0.51 4.95,1.01 7.23,1.52 2.28,0.51 4.43,1.01 6.46,1.52 5.07,1.01 9.89,2.15 14.45,3.42 4.56,1.27 9.12,2.41 13.69,3.42 4.05,1.02 8.11,1.9 12.16,2.67 4.06,0.76 7.86,1.64 11.41,2.66 3.55,1.01 6.97,2.02 10.26,3.04 3.3,1.01 6.72,2.03 10.27,3.04 3.04,0.51 6.08,1.14 9.12,1.9 3.04,0.76 5.83,1.65 8.37,2.66 1.01,0.51 2.02,0.89 3.04,1.14 1.01,0.26 2.28,0.64 3.8,1.14 1.01,0.51 2.03,0.89 3.04,1.14 1.02,0.26 2.03,0.64 3.04,1.14 2.03,0.51 3.93,1.14 5.71,1.91 1.77,0.76 3.67,1.64 5.7,2.66 0.51,0 1.01,0.12 1.52,0.38 0.51,0.25 1.01,0.38 1.52,0.38 0,0.5 0.25,0.88 0.76,1.14 0.51,0.25 1.01,0.38 1.52,0.38 1.02,0.5 2.03,1.01 3.04,1.52 1.02,0.51 2.03,1.01 3.04,1.52l4.57 2.28c1.01,0.51 2.02,1.01 3.04,1.52 1.01,0.51 2.03,1.01 3.04,1.52l0.76 0.76 1.52 0 0 1.52 1.52 0 2.28 1.52 2.28 0.76c5.58,3.55 10.78,7.23 15.59,11.03 4.82,3.8 9.25,7.73 13.31,11.79 4.05,4.56 7.98,9.12 11.78,13.68 3.81,4.56 7.23,9.38 10.27,14.45 3.04,5.07 5.7,10.52 7.98,16.35 2.28,5.83 4.19,11.53 5.71,17.11 1.52,5.57 2.66,11.4 3.42,17.48 0.76,6.09 1.14,12.17 1.14,18.25 0,12.17 -1.27,23.58 -3.8,34.22 -2.54,10.65 -6.09,21.04 -10.65,31.18 -4.56,9.63 -10.39,18.75 -17.49,27.37 -7.09,8.62 -15.21,16.73 -24.33,24.33 -9.63,7.61 -19.77,14.2 -30.41,19.77 -10.65,5.58 -22.06,10.14 -34.22,13.69 -12.17,3.04 -24.84,5.45 -38.02,7.22 -13.18,1.78 -27.12,2.66 -41.82,2.66l-30.42 0.76c-18.25,-0.5 -35.35,-1.77 -51.32,-3.8 -15.97,-2.03 -31.05,-4.56 -45.25,-7.6 -14.19,-4.06 -27.37,-9 -39.54,-14.83 -12.16,-5.83 -23.31,-12.8 -33.45,-20.91 -10.14,-8.11 -19.01,-16.98 -26.62,-26.61 -7.6,-9.63 -14.19,-20.03 -19.76,-31.18 -5.07,-11.66 -9,-23.95 -11.79,-36.88 -2.79,-12.92 -4.18,-26.99 -4.18,-42.2z"/>
   </g>
   <polygon class="fil7" points="7033.69,3536.89 8574.08,3536.89 8574.08,4950.43 7033.69,4950.43 "/>
   <polygon class="fil8" style="mask:url(#id8)" points="10900.62,2063.49 11832.27,2063.49 12513.79,4238.27 13196.23,2063.49 14093.9,2063.49 14555.47,5693.8 13812.61,5693.8 13493.57,3139.55 12692.17,5693.8 12336.33,5693.8 11517,3116.9 11213.05,5693.8 10455.08,5693.8 "/>
   <polygon class="fil7 str1" points="2667.09,4650.86 19844.1,4650.86 19844.1,4823.4 2667.09,4823.4 "/>
   <polygon class="fil9 str1" style="mask:url(#id10)" points="1745.91,4662.46 19511.65,4662.46 19511.65,5777.9 1745.91,5777.9 "/>
   <path class="fil10" d="M3578.75 1310.39c0,-32.9 2.2,-64.2 6.62,-93.9 4.41,-29.69 11.44,-58.18 21.07,-85.47 9.63,-27.29 21.47,-52.97 35.51,-77.05 14.05,-24.08 30.7,-46.55 49.96,-67.41 18.46,-20.87 38.72,-38.93 60.8,-54.18 22.07,-15.25 45.54,-28.09 70.42,-38.52 25.68,-10.44 52.37,-18.26 80.06,-23.48 27.69,-5.21 56.78,-7.82 87.28,-7.82l48.15 0c30.5,0 59.79,2.61 87.88,7.82 28.09,5.22 54.58,13.04 79.46,23.48 24.88,10.43 48.15,23.27 69.82,38.52 21.67,15.25 42.14,33.31 61.4,54.18 18.46,20.06 34.91,42.13 49.36,66.21 14.44,24.07 26.48,49.76 36.11,77.04 9.63,27.29 16.86,55.98 21.67,86.08 4.82,30.1 7.23,61.6 7.23,94.5 0,32.91 -2.41,64.21 -7.23,93.9 -4.81,29.7 -12.04,57.79 -21.67,84.27 -9.63,26.49 -21.67,51.37 -36.11,74.64 -14.45,23.28 -30.9,45.35 -49.36,66.22 -19.26,20.06 -39.93,37.92 -62,53.57 -22.07,15.65 -45.55,28.29 -70.43,37.92 -24.88,9.63 -50.96,16.85 -78.25,21.67 -27.28,4.81 -56.18,7.22 -86.67,7.22l-48.16 1.21c-30.5,-0.81 -59.59,-3.62 -87.28,-8.43 -27.69,-4.82 -53.97,-12.04 -78.85,-21.67 -24.88,-9.63 -48.16,-22.27 -69.83,-37.92 -21.66,-15.65 -42.13,-33.51 -61.39,-53.57 -19.26,-20.87 -36.12,-42.94 -50.56,-66.22 -14.45,-23.27 -26.49,-48.15 -36.12,-74.64 -9.63,-26.48 -16.85,-54.57 -21.67,-84.27 -4.81,-29.69 -7.22,-60.99 -7.22,-93.9zm166.13 -2.4l0 0 0 2.4c0,26.49 1.61,51.77 4.82,75.85 3.21,24.07 8.02,46.55 14.44,67.41 6.42,20.87 14.85,40.33 25.28,58.39 10.44,18.06 22.07,35.11 34.91,51.16 13.65,15.25 28.1,28.9 43.34,40.94 15.25,12.03 31.71,22.07 49.36,30.09 15.25,6.42 30.9,11.44 46.95,15.05 16.05,3.61 32.91,5.82 50.56,6.62 17.66,-0.8 34.52,-3.01 50.57,-6.62 16.05,-3.61 31.7,-8.63 46.95,-15.05 18.46,-8.02 35.51,-18.06 51.16,-30.09 15.65,-12.04 29.9,-25.69 42.74,-40.94 13.64,-16.05 25.28,-33.1 34.91,-51.16 9.63,-18.06 17.66,-37.92 24.08,-59.59 6.42,-20.87 11.43,-43.34 15.05,-67.42 3.61,-24.07 5.41,-49.36 5.41,-75.84 0,-26.49 -1.8,-51.57 -5.41,-75.24 -3.62,-23.68 -8.63,-45.95 -15.05,-66.82 -6.42,-20.86 -14.45,-40.73 -24.08,-59.59 -9.63,-18.86 -21.27,-35.91 -34.91,-51.16 -12.84,-16.05 -27.09,-29.9 -42.74,-41.53 -15.65,-11.64 -32.3,-21.47 -49.96,-29.5 -15.25,-6.42 -30.7,-11.64 -46.35,-15.65 -15.65,-4.01 -32.3,-6.42 -49.96,-7.22 -18.46,0.8 -35.91,3.21 -52.37,7.22 -16.45,4.01 -32.3,9.23 -47.55,15.65 -17.65,8.03 -34.31,17.66 -49.96,28.89 -15.65,11.24 -30.3,24.48 -43.94,39.73 -12.84,15.25 -24.28,32.3 -34.31,51.17 -10.03,18.86 -18.26,38.72 -24.68,59.59 -6.42,20.86 -11.23,43.34 -14.44,67.41 -3.21,24.08 -4.82,49.36 -4.82,75.85zm1724.94 428.57l0 0 0 0 0 -860.76 48.15 0 381.63 2.41c4.81,0 9.23,0 13.24,0 4.01,0 8.43,0 13.24,0 4.01,0.8 8.03,1.2 12.04,1.2 4.01,0 7.62,0 10.84,0 4.01,0 7.62,0 10.83,0 3.21,0 6.42,0 9.63,0 3.21,0.8 6.42,1.21 9.63,1.21 3.21,0 6.02,0 8.43,0 5.62,0.8 11.03,1.4 16.25,1.8 5.22,0.4 10.23,1.41 15.05,3.01 2.41,0.8 4.81,1.41 7.22,1.81 2.41,0.4 4.82,0.6 7.23,0.6 2.4,0.8 4.81,1.4 7.22,1.8 2.41,0.41 4.81,1.01 7.22,1.81l4.82 2.41 7.22 2.41 4.82 2.4 7.22 1.21c10.43,4.01 20.26,8.83 29.49,14.44 9.23,5.62 17.86,11.64 25.89,18.06 8.02,7.22 15.65,14.85 22.87,22.87 7.22,8.03 13.64,16.86 19.26,26.49 6.42,9.63 11.84,19.66 16.25,30.1 4.42,10.43 8.23,21.26 11.44,32.5 3.21,10.43 5.62,21.47 7.22,33.11 1.61,11.63 2.41,23.47 2.41,35.51 0,16.85 -1.4,32.5 -4.21,46.95 -2.81,14.45 -6.62,28.49 -11.44,42.14 -5.62,12.84 -12.24,25.28 -19.86,37.32 -7.63,12.03 -16.66,22.87 -27.09,32.5 -10.43,10.43 -21.87,19.66 -34.31,27.69 -12.44,8.02 -26.28,15.25 -41.53,21.67 -15.25,5.62 -31.5,10.83 -48.76,15.65 -17.25,4.81 -35.91,8.43 -55.98,10.83 1.61,0.81 3.41,1.81 5.42,3.01 2.01,1.21 3.81,2.21 5.42,3.01 1.6,0.81 3.21,1.61 4.81,2.41 1.61,0.8 3.21,1.61 4.82,2.41l4.81 2.41 3.61 1.2 4.82 2.41 3.61 2.4 2.41 2.41 3.61 1.21 2.41 2.4 2.41 2.41 4.81 3.61 7.22 3.62 3.62 3.61 3.61 3.61 3.61 3.61 4.81 3.61 3.62 3.61 3.61 3.61 3.61 4.82 4.81 3.61c1.61,1.61 3.01,3.21 4.22,4.82 1.2,1.6 2.21,3.21 3.01,4.81 0.8,0.81 1.6,1.61 2.41,2.41 0.8,0.8 1.6,1.2 2.4,1.2 0.81,0.81 1.61,1.61 2.41,2.41 0.8,0.8 1.61,1.61 2.41,2.41 1.6,1.6 3.21,3.41 4.81,5.42 1.61,2 3.21,4.21 4.82,6.62 1.6,2.41 3.21,4.61 4.82,6.62 1.6,2.01 3.21,3.81 4.81,5.42 0.8,0.8 1.61,1.8 2.41,3.01 0.8,1.2 1.6,2.2 2.41,3.01 0,1.6 0.4,2.81 1.2,3.61 0.8,0.8 1.6,1.6 2.41,2.41 1.6,2.4 3.21,4.61 4.81,6.62 1.61,2 3.21,3.81 4.82,5.41l4.81 7.23 4.82 7.22 2.41 3.61 2.4 2.41 1.21 2.41 2.41 1.2 150.48 233.55 -48.16 0 -143.25 0 -114.37 -175.76c-4.01,-6.42 -7.83,-12.44 -11.44,-18.06 -3.61,-5.62 -7.02,-10.84 -10.23,-15.65 -3.21,-4.82 -6.22,-9.43 -9.03,-13.85 -2.81,-4.41 -5.42,-8.22 -7.83,-11.43 -2.4,-3.21 -4.81,-6.22 -7.22,-9.03 -2.41,-2.81 -4.41,-5.82 -6.02,-9.03 -1.6,-3.21 -3.41,-6.22 -5.41,-9.03 -2.01,-2.81 -3.82,-5.82 -5.42,-9.03l-2.41 -1.2 -1.2 -2.41 -2.41 -2.41 -1.21 -2.41 -4.81 -4.81 -4.82 -6.02 -4.81 -4.82 -4.82 -7.22 -3.61 -4.81 -3.61 -3.62 -4.82 -4.81 -3.61 -3.61 -3.61 -3.61 -3.61 -4.82 -4.82 -3.61 -3.61 -3.61 -4.81 -3.61 -3.61 -3.62 -4.82 -2.4 -3.61 -3.62 -7.22 -6.01 -7.23 -6.02 -2.41 -1.21 -2.4 -2.41 -2.41 0 -2.41 -2.4 -4.81 -2.41 -4.82 -2.41c-0.8,0 -2.01,-0.2 -3.61,-0.6 -1.61,-0.4 -2.81,-1 -3.61,-1.81 -1.61,0 -3.01,-0.2 -4.22,-0.6 -1.2,-0.4 -2.6,-0.6 -4.21,-0.6 -2.41,-0.8 -5.02,-1.4 -7.82,-1.81 -2.81,-0.4 -5.82,-1 -9.03,-1.8 -1.61,0 -3.21,0 -4.82,0 -1.6,0 -3.21,-0.4 -4.81,-1.21 -2.41,0 -4.62,0 -6.63,0 -2,0 -4.21,0 -6.62,0 -4.81,0 -9.63,-0.4 -14.44,-1.2 -4.82,-0.8 -10.04,-1.6 -15.65,-2.41l-83.07 0 0 382.83 -48.15 0 -114.37 0zm162.52 -480.34l0 0 0 0 221.51 2.41c1.61,0 3.21,0 4.82,0 1.6,0 2.8,-0.4 3.61,-1.21 1.6,0 3.21,0 4.81,0 1.61,0 2.81,0 3.61,0 6.42,0 12.04,-0.2 16.86,-0.6 4.81,-0.4 9.63,-1 14.44,-1.8 4.02,-0.81 8.23,-1.61 12.65,-2.41 4.41,-0.8 8.62,-1.61 12.64,-2.41 4.01,-1.6 8.22,-3.01 12.64,-4.21 4.41,-1.21 8.62,-2.61 12.64,-4.22l2.4 0 3.62 -2.4 3.61 -1.21 3.61 -2.41c5.62,-2.4 10.83,-5.41 15.65,-9.02 4.81,-3.62 9.63,-7.43 14.45,-11.44 4.81,-4.01 9.23,-8.43 13.24,-13.24 4.01,-4.82 7.62,-10.04 10.83,-15.65 3.21,-5.62 6.02,-11.44 8.43,-17.46 2.41,-6.02 4.41,-11.84 6.02,-17.46 1.6,-6.42 3.01,-12.64 4.21,-18.66 1.21,-6.02 1.81,-12.24 1.81,-18.66 0,-3.21 -0.2,-6.22 -0.6,-9.02 -0.4,-2.81 -0.61,-5.82 -0.61,-9.03 -0.8,-2.41 -1.4,-5.02 -1.8,-7.83 -0.4,-2.81 -1,-5.82 -1.81,-9.03 -0.8,-6.42 -2.4,-12.24 -4.81,-17.45 -2.41,-5.22 -5.22,-10.64 -8.43,-16.26 -3.21,-5.61 -6.42,-10.83 -9.63,-15.65 -3.21,-4.81 -6.82,-9.23 -10.84,-13.24 -4.01,-4.01 -8.42,-7.62 -13.24,-10.83 -4.81,-3.21 -9.63,-6.42 -14.44,-9.63 -4.02,-1.61 -8.03,-3.41 -12.04,-5.42 -4.02,-2.01 -8.03,-3.41 -12.04,-4.21 -4.01,-1.61 -8.23,-3.01 -12.64,-4.22 -4.42,-1.2 -8.63,-2.21 -12.64,-3.01 -4.82,-0.8 -9.63,-1.4 -14.45,-1.8 -4.81,-0.41 -10.43,-1.01 -16.85,-1.81 -5.62,-0.8 -11.64,-1.6 -18.06,-2.41 -6.42,-0.8 -12.84,-1.6 -19.26,-2.4l-223.92 0 0 285.31zm1833.29 480.34l0 0 0 0 0 -759.64 -284.11 0 0 -101.12 48.16 0 683.79 0 0 101.12 -285.32 0 0 759.64 -48.15 0 -114.37 0zm1395.09 -426.17c0,-32.9 2.2,-64.2 6.62,-93.9 4.41,-29.69 11.44,-58.18 21.07,-85.47 9.63,-27.29 21.47,-52.97 35.51,-77.05 14.05,-24.08 30.7,-46.55 49.96,-67.41 18.46,-20.87 38.72,-38.93 60.8,-54.18 22.07,-15.25 45.54,-28.09 70.42,-38.52 25.68,-10.44 52.37,-18.26 80.06,-23.48 27.69,-5.21 56.78,-7.82 87.28,-7.82l48.15 0c30.5,0 59.79,2.61 87.88,7.82 28.09,5.22 54.58,13.04 79.46,23.48 24.88,10.43 48.15,23.27 69.82,38.52 21.67,15.25 42.14,33.31 61.4,54.18 18.46,20.06 34.91,42.13 49.36,66.21 14.44,24.07 26.48,49.76 36.11,77.04 9.63,27.29 16.86,55.98 21.67,86.08 4.82,30.1 7.23,61.6 7.23,94.5 0,32.91 -2.41,64.21 -7.23,93.9 -4.81,29.7 -12.04,57.79 -21.67,84.27 -9.63,26.49 -21.67,51.37 -36.11,74.64 -14.45,23.28 -30.9,45.35 -49.36,66.22 -19.26,20.06 -39.93,37.92 -62,53.57 -22.07,15.65 -45.55,28.29 -70.43,37.92 -24.88,9.63 -50.96,16.85 -78.25,21.67 -27.28,4.81 -56.18,7.22 -86.67,7.22l-48.16 1.21c-30.5,-0.81 -59.59,-3.62 -87.28,-8.43 -27.69,-4.82 -53.97,-12.04 -78.85,-21.67 -24.88,-9.63 -48.16,-22.27 -69.83,-37.92 -21.66,-15.65 -42.13,-33.51 -61.39,-53.57 -19.26,-20.87 -36.12,-42.94 -50.56,-66.22 -14.45,-23.27 -26.49,-48.15 -36.12,-74.64 -9.63,-26.48 -16.85,-54.57 -21.67,-84.27 -4.81,-29.69 -7.22,-60.99 -7.22,-93.9zm166.13 -2.4l0 0 0 2.4c0,26.49 1.61,51.77 4.82,75.85 3.21,24.07 8.02,46.55 14.44,67.41 6.42,20.87 14.85,40.33 25.28,58.39 10.44,18.06 22.07,35.11 34.91,51.16 13.65,15.25 28.1,28.9 43.34,40.94 15.25,12.03 31.71,22.07 49.36,30.09 15.25,6.42 30.9,11.44 46.95,15.05 16.05,3.61 32.91,5.82 50.56,6.62 17.66,-0.8 34.52,-3.01 50.57,-6.62 16.05,-3.61 31.7,-8.63 46.95,-15.05 18.46,-8.02 35.51,-18.06 51.16,-30.09 15.65,-12.04 29.9,-25.69 42.74,-40.94 13.64,-16.05 25.28,-33.1 34.91,-51.16 9.63,-18.06 17.66,-37.92 24.08,-59.59 6.42,-20.87 11.43,-43.34 15.05,-67.42 3.61,-24.07 5.41,-49.36 5.41,-75.84 0,-26.49 -1.8,-51.57 -5.41,-75.24 -3.62,-23.68 -8.63,-45.95 -15.05,-66.82 -6.42,-20.86 -14.45,-40.73 -24.08,-59.59 -9.63,-18.86 -21.27,-35.91 -34.91,-51.16 -12.84,-16.05 -27.09,-29.9 -42.74,-41.53 -15.65,-11.64 -32.3,-21.47 -49.96,-29.5 -15.25,-6.42 -30.7,-11.64 -46.35,-15.65 -15.65,-4.01 -32.3,-6.42 -49.96,-7.22 -18.46,0.8 -35.91,3.21 -52.37,7.22 -16.45,4.01 -32.3,9.23 -47.55,15.65 -17.65,8.03 -34.31,17.66 -49.96,28.89 -15.65,11.24 -30.3,24.48 -43.94,39.73 -12.84,15.25 -24.28,32.3 -34.31,51.17 -10.03,18.86 -18.26,38.72 -24.68,59.59 -6.42,20.86 -11.23,43.34 -14.44,67.41 -3.21,24.08 -4.82,49.36 -4.82,75.85zm1722.53 428.57l0 0 0 0 0 -860.76 48.16 0 297.35 2.41c5.62,0 11.03,0 16.25,0 5.22,0 10.23,0 15.05,0 4.81,0.8 9.63,1.2 14.45,1.2 4.81,0 9.23,0 13.24,0 8.83,0 17.05,0.2 24.68,0.6 7.62,0.4 14.64,1.01 21.06,1.81 3.22,0 6.22,0.2 9.03,0.6 2.81,0.4 5.82,1 9.03,1.81 2.41,0 5.02,0.2 7.83,0.6 2.81,0.4 5.82,1 9.03,1.8 6.42,0.81 12.24,1.81 17.45,3.01 5.22,1.21 10.64,2.61 16.25,4.22l4.82 2.41 6.02 1.2 4.81 2.41 4.82 2.41c1.61,0.8 3.41,1.4 5.42,1.8 2,0.4 3.81,1.41 5.42,3.01 1.6,0.8 3.41,1.61 5.41,2.41 2.01,0.8 4.22,1.6 6.62,2.41 0.81,0.8 1.61,1.4 2.41,1.8 0.8,0.4 2.01,0.6 3.61,0.6 0.81,0.81 1.81,1.41 3.01,1.81 1.21,0.4 2.21,1 3.01,1.81 0.8,0.8 1.81,1.4 3.01,1.8 1.21,0.4 2.21,0.6 3.01,0.6 1.61,0.81 3.01,1.41 4.22,1.81 1.2,0.4 2.2,1 3,1.8 0.81,0.81 1.61,1.61 2.41,2.41 0.81,0.8 2.01,1.21 3.61,1.21 0.81,0.8 1.81,1.6 3.01,2.4 1.21,0.81 2.21,1.61 3.01,2.41 0.81,0.8 1.61,1.61 2.41,2.41 0.8,0.8 2.01,1.2 3.61,1.2 0.81,0.81 1.81,1.61 3.01,2.41 1.21,0.8 2.21,1.61 3.01,2.41 4.01,3.21 8.23,6.22 12.64,9.03 4.42,2.81 8.23,6.22 11.44,10.23 1.6,1.61 3.21,3.41 4.81,5.42 1.61,2 3.62,3.81 6.02,5.42 1.61,2.4 3.21,4.61 4.82,6.62 1.6,2 3.21,3.81 4.81,5.41 8.83,10.44 16.86,21.07 24.08,31.91 7.23,10.83 14.05,22.27 20.47,34.31 6.42,12.03 12.44,24.07 18.06,36.11 5.61,12.04 10.83,24.88 15.65,38.53 4.01,12.84 7.62,26.48 10.83,40.93 3.21,14.44 6.02,28.89 8.43,43.34 2.41,15.24 4.21,30.69 5.41,46.34 1.21,15.65 1.81,31.51 1.81,47.56 0,23.27 -1,45.74 -3.01,67.41 -2.01,21.67 -5.02,42.94 -9.03,63.81 -4.01,20.06 -9.03,39.72 -15.05,58.99 -6.02,19.26 -13.04,37.32 -21.06,54.17 -8.03,17.66 -17.06,33.91 -27.09,48.76 -10.03,14.84 -20.67,28.29 -31.9,40.33 -11.24,12.84 -23.28,24.27 -36.12,34.31 -12.84,10.03 -26.48,18.66 -40.93,25.88l-6.02 2.41 -4.81 2.4 -6.02 2.41 -4.82 2.41c-6.42,3.21 -13.04,6.02 -19.86,8.43 -6.83,2.4 -13.85,4.81 -21.07,7.22 -7.22,2.41 -14.45,4.21 -21.67,5.42 -7.22,1.2 -14.45,2.61 -21.67,4.21 -8.03,0.8 -16.25,1.81 -24.68,3.01 -8.43,1.2 -17.05,1.81 -25.88,1.81 -9.63,0.8 -19.46,1.2 -29.5,1.2 -10.03,0 -20.66,0 -31.9,0l-48.15 0 -310.6 0zm162.52 -101.12l0 0 0 0 167.34 2.4c2.41,0 4.61,0 6.62,0 2.01,0 4.21,-0.4 6.62,-1.2 1.61,0 3.41,0 5.42,0 2,0 4.21,0 6.62,0 8.83,-0.8 17.05,-1.81 24.68,-3.01 7.62,-1.2 14.65,-2.21 21.07,-3.01 6.42,-1.6 12.84,-3.01 19.26,-4.21 6.42,-1.21 12.44,-3.01 18.06,-5.42 5.61,-2.41 11.03,-4.82 16.25,-7.22 5.21,-2.41 10.63,-5.22 16.25,-8.43 9.63,-6.42 18.86,-13.24 27.69,-20.47 8.83,-7.22 17.25,-15.65 25.28,-25.28 7.22,-9.63 14.05,-20.06 20.47,-31.3 6.42,-11.23 12.44,-23.27 18.05,-36.11 5.62,-12.84 10.44,-26.49 14.45,-40.93 4.01,-14.45 7.22,-29.3 9.63,-44.55 2.41,-16.05 4.42,-32.7 6.02,-49.96 1.61,-17.25 2.41,-35.51 2.41,-54.77 0,-12.84 -0.2,-25.28 -0.6,-37.32 -0.41,-12.04 -1.41,-23.28 -3.01,-33.71 -0.81,-11.24 -2.21,-21.87 -4.22,-31.9 -2,-10.04 -4.21,-19.47 -6.62,-28.29 -2.41,-8.83 -5.01,-17.66 -7.82,-26.49 -2.81,-8.83 -6.22,-17.25 -10.24,-25.28 -3.21,-8.03 -7.22,-15.85 -12.03,-23.48 -4.82,-7.62 -9.64,-15.44 -14.45,-23.47 -0.8,-1.61 -2.01,-3.21 -3.61,-4.82 -1.61,-1.6 -2.81,-3.21 -3.61,-4.81 -1.61,-1.61 -3.01,-3.21 -4.22,-4.82 -1.2,-1.6 -2.61,-3.21 -4.21,-4.81 -2.41,-3.21 -5.02,-6.22 -7.83,-9.03 -2.81,-2.81 -5.82,-5.82 -9.03,-9.03 -1.6,-1.61 -3.21,-3.01 -4.81,-4.21 -1.61,-1.21 -3.21,-2.61 -4.82,-4.22 -2.4,-0.8 -4.41,-2 -6.02,-3.61 -1.6,-1.6 -3.21,-2.81 -4.81,-3.61 -3.21,-2.41 -6.42,-4.62 -9.63,-6.62 -3.21,-2.01 -6.42,-3.81 -9.63,-5.42l-7.23 -2.41 -4.81 -2.4 -4.82 -2.41 -4.81 -2.41c-4.02,-1.61 -8.23,-3.41 -12.64,-5.42 -4.42,-2 -9.03,-3.41 -13.85,-4.21 -2.4,-0.8 -4.81,-1.41 -7.22,-1.81 -2.41,-0.4 -4.82,-0.6 -7.22,-0.6 -3.21,-0.8 -6.02,-1.4 -8.43,-1.8 -2.41,-0.41 -4.82,-0.61 -7.22,-0.61 -5.62,-0.8 -11.64,-1.4 -18.06,-1.8 -6.42,-0.4 -13.24,-0.6 -20.47,-0.6 -8.02,0 -16.25,-0.41 -24.68,-1.21 -8.42,-0.8 -17.45,-1.6 -27.08,-2.41l-132.43 0 0 658.52zm1635.86 101.12l0 0 0 0 0 -860.76 48.16 0 114.36 0 0 860.76 -48.15 0 -114.37 0zm1391.47 -561l0 561 -48.15 0 -115.57 0 0 -860.76 48.15 0 166.13 0 209.47 617.58 16.86 52.97 21.67 -65.01 211.88 -605.54 48.15 0 148.08 0 0 860.76 -48.16 0 -115.57 0 0 -562.2 -197.43 562.2 -48.16 0 -102.32 0 -195.03 -561zm1758.65 561l0 0 0 0 0 -860.76 48.16 0 622.39 0 0 101.12 -508.02 0 0 263.65 475.52 0 0 101.12 -475.52 0 0 293.75 528.49 0 0 101.12 -48.15 0 -642.87 0zm1626.24 0l0 0 0 0 333.46 -449.04 -293.74 -411.72 48.16 0 134.83 0 157.71 221.51 45.74 71.03c0,0 0,-0.2 0,-0.6 0,-0.41 0.4,-0.61 1.21,-0.61 0,0 0,-0.2 0,-0.6 0,-0.4 0,-0.6 0,-0.6 1.6,-1.6 3.01,-3.61 4.21,-6.02 1.2,-2.41 2.61,-4.81 4.21,-7.22 1.61,-3.21 3.41,-6.22 5.42,-9.03 2.01,-2.81 4.21,-5.82 6.62,-9.03 1.61,-2.41 3.41,-4.82 5.42,-7.22 2.01,-2.41 3.81,-4.42 5.42,-6.02 1.6,-1.61 3.01,-3.41 4.21,-5.42 1.2,-2.01 2.21,-3.41 3.01,-4.21l3.61 -7.23 173.36 -228.73 48.15 0 124 0 -303.37 405.7 326.24 455.06 -48.15 0 -140.85 0 -216.7 -306.98 -13.24 -20.47 -18.06 27.69 -215.49 299.76 -48.15 0 -137.24 0z"/>
  </g>
 </g>
</svg>
