<?xml version="1.0" encoding="UTF-8"?>
<!DOCTYPE svg PUBLIC "-//W3C//DTD SVG 1.1//EN" "http://www.w3.org/Graphics/SVG/1.1/DTD/svg11.dtd">
<!-- Creator: CorelDRAW Standard 2021 (64-Bit Versión de evaluación) -->
<svg xmlns="http://www.w3.org/2000/svg" xml:space="preserve" width="90.0006mm" height="50.0006mm" version="1.1" style="shape-rendering:geometricPrecision; text-rendering:geometricPrecision; image-rendering:optimizeQuality; fill-rule:evenodd; clip-rule:evenodd"
viewBox="0 0 9000.06 5000.06"
 xmlns:xlink="http://www.w3.org/1999/xlink"
 xmlns:xodm="http://www.corel.com/coreldraw/odm/2003">
 <defs>
  <style type="text/css">
   <![CDATA[
    .fil1 {fill:#D2D3D5}
    .fil9 {fill:#005534}
    .fil0 {fill:#014FA1}
    .fil2 {fill:#A2231D}
    .fil8 {fill:#D2D1D6}
    .fil10 {fill:#8B8B8B}
    .fil3 {fill:#8D8D8D}
    .fil6 {fill:#8E8E8E}
    .fil7 {fill:#8F8F8F}
    .fil4 {fill:#909090}
    .fil5 {fill:#919191}
   ]]>
  </style>
 </defs>
 <g id="Capa_x0020_1">
  <metadata id="CorelCorpID_0Corel-Layer"/>
  <g id="_1173879822896">
   <path class="fil0" d="M1482.94 2067.87l26.18 71.39c55.98,17.26 17.7,13.98 55.4,-4.42 55.51,-27.11 74.14,-69.38 77.41,-132.95 -81.62,-46.15 -110.37,-6.93 -158.99,65.98zm-308.07 307.48c172.92,-6.01 239.63,27.02 388.23,40.01 -9.25,-30.58 -20.7,-62.18 -37.09,-94.68 -1.3,-2.58 -20.59,-36.74 -22.05,-38.81 -44.12,-62.96 -9.89,-19.21 -42.17,-47.19 -120.6,167.07 -138.16,121.39 -180.31,101.2 0.91,-105.77 119.46,-231.18 -17.94,-291.31 -109.6,-47.96 -250.16,96.1 -232.63,159.32l27.88 5.23c2.49,-0.3 10.25,0.47 13.24,-0.2 2.95,-0.65 9.55,-1.77 12.71,-2.91 14.73,-5.28 29.6,-19.84 44.27,-33 42.59,-38.2 30.06,-44.31 85.08,-60.8 61.28,87.5 -22.44,117.59 -39.22,263.14zm-178.21 -688.35l-3.05 708.8 181.26 -20.45c16.78,-145.55 100.5,-175.64 39.22,-263.14 -55.02,16.49 -42.49,22.6 -85.08,60.8 -14.67,13.16 -29.54,27.72 -44.27,33 -3.16,1.14 -9.76,2.26 -12.71,2.91 -2.99,0.67 -10.75,-0.1 -13.24,0.2l-27.88 -5.23c-17.53,-63.22 123.03,-207.28 232.63,-159.32 137.4,60.13 18.85,185.54 17.94,291.31 42.15,20.19 59.71,65.87 180.31,-101.2 -6.41,-64.43 -70.89,-201.47 -110.19,-252.92 -47.32,-6.69 -53.72,-2.83 -89.41,-27.83 12.41,-74.41 140.46,-198.85 267.79,-186.03 57.45,55.74 49.26,90.3 103.55,125.99 48.83,32.09 94.82,25.58 106.99,112.83 14.57,104.46 -130.35,186.95 -165.36,254.4 11.84,196.21 130.56,226.56 326.57,225.41 189.68,-1.13 390.29,6.16 578.3,-3.62 189.73,-74.36 149.4,-287.82 -12.41,-312.91 -162.33,-25.17 -424.57,7.62 -606.76,-7.55 -18.96,-57.03 -23.42,-49.34 -27.41,-107.36 -67.55,-55.37 -229.95,-429.99 -265.78,-515.81l-22.4 -11.08c-240.7,-138.78 -405.44,-120.03 -548.61,158.8zm354.94 294.76l-2.15 -100.8c57.32,30.37 34.83,27.64 68.29,93.04 21.3,41.6 33.2,68.53 65.2,93.87 48.62,-72.91 77.37,-112.13 158.99,-65.98 -3.27,63.57 -21.9,105.84 -77.41,132.95 -37.7,18.4 0.58,21.68 -55.4,4.42 17.89,51.56 -0.72,20.49 26.96,70.77 31.29,56.81 11.12,23.66 39.08,51.09 35.01,-67.45 179.93,-149.94 165.36,-254.4 -12.17,-87.25 -58.16,-80.74 -106.99,-112.83 -54.29,-35.69 -46.1,-70.25 -103.55,-125.99 -127.33,-12.82 -255.38,111.62 -267.79,186.03 35.69,25 42.09,21.14 89.41,27.83z"/>
   <path class="fil1" d="M5824.25 3447.87c21.86,-16.18 82.25,-27.58 -4.49,-187.87 -2.39,-4.41 -7.43,-10.54 -9.53,-14.07 -2.16,-3.59 -6.94,-9.23 -10.4,-13.85 -7.19,97.38 -21.71,150.14 24.42,215.79z"/>
   <path class="fil2" d="M8174.12 2412.3l51.14 59.27c58.65,-89.39 47.19,-180.12 5.29,-276.74l-47.19 91.92c-16.22,66.58 -16,59.42 -9.24,125.55z"/>
   <path class="fil3" d="M2375.72 4102.83c169.76,-74.68 280.25,199.43 101.52,264.4 -169.55,61.62 -296.21,-178.77 -101.52,-264.4zm-53.44 -95.08c-329.84,160.37 -79.86,594.07 213.04,456.23 284.43,-133.86 100.33,-608.58 -213.04,-456.23z"/>
   <path class="fil4" d="M8366.76 1948.54c27.87,-49.01 46.52,-70.76 38.74,-155.19 -29.49,-1.89 -60.49,-2.47 -95.99,8.52 -61.95,186.14 -71.33,229.1 -20.79,429.31 43.56,172.56 93.96,472.28 179.68,611.68 70.52,114.69 26.55,114.89 34.31,236.88 5.77,90.83 33.93,136.35 30.14,256.62 -2.97,93.85 -12.31,183.26 -10.31,277.74 -58.63,-22.43 -183.27,-260.62 -206.2,-322.96 -33.73,-91.71 2.93,-93.29 -85.79,-120.08 -25.32,52.14 -4.46,106.56 21.06,163.09 23.42,51.84 53.48,90.74 79.95,137.07 67.76,118.55 84.42,145.66 124.1,309.24 32.51,134.09 72.18,387.34 149.99,497.8 71.68,101.71 19.36,71.41 57.28,177.59l95.75 1.09c1.74,-94.21 -22.38,-74.67 -31.27,-141.9 -21.26,-160.99 67.84,62.51 -66.04,-464.52 -130.52,-513.86 -14.1,-436.83 -64.57,-681.83 -48.94,-237.54 -283.73,-1054.99 -285.06,-1206.58l55.02 -13.57z"/>
   <path class="fil5" d="M4308.53 3816.55c9.18,-288.08 21.24,-336.43 195.05,-478.82l358.69 -309.97c44.12,87.65 123.02,646.86 134.88,789.76l-688.62 -0.97zm261.76 -1280.13c55.48,45.27 102.37,-11.01 215.55,20.06 28.19,74.16 65.88,282.12 60.55,373.2 -117.06,120.95 -505.03,416.13 -564.58,540.52 -76.28,159.34 -41.47,587.07 -79.09,750.92 -9.64,41.95 -47.5,86.35 -46.78,144.46 0,0.05 -38.19,-27.62 16.41,66.01l115.83 11.39c22.61,-117.55 -11.15,-159.21 -7.72,-268.35 2.75,-88.41 14.71,-184.82 21.2,-275.43l712.42 -4.63c14.95,97.68 27.86,180.98 44.74,273.44 18.24,99.87 -20.18,158.82 12.06,261.15l31.5 8.2c106.81,8.55 -67.08,8.25 31.49,2.58 40.8,-2.33 35.22,-5.47 74.89,-22.17 -6.44,-126.01 -45.94,-116.87 -72.69,-228.31 -21.3,-88.67 -28.62,-191.37 -45.58,-290.1 -31.75,-184.65 -63.9,-379.88 -93.71,-574.76 -30.56,-199.78 -61.39,-377.74 -91.65,-573.83 -14.59,-94.55 -21.79,-210.31 -82.78,-252.67 -63.53,-44.1 -237.55,-45.16 -252.06,38.32z"/>
   <path class="fil6" d="M505.06 3004.23c35.57,-90.2 173.22,-231.2 252.06,-280.55 99.8,-62.51 234.31,-112.3 378.25,-129.56 933.94,-151.38 1387.82,1145.01 593.68,1632.84 -408.98,251.24 -860.05,147.15 -1125.8,-139.72 -413.31,-446.14 -205.94,-1026.74 -98.19,-1083.01zm-46.35 -176.38l-43.64 84.85c-286.34,429.81 -205.13,984.1 143.13,1298.46 662.78,598.27 1337.4,38.55 1364.54,31.85 54.23,-94.78 116.16,-109.02 220.6,-308.31 457.46,-872.8 -523.2,-1815.17 -1379.62,-1342.61 -142.71,78.73 -224.16,197.74 -305.01,235.76z"/>
   <path class="fil6" d="M432.8 2124.87l301.66 4.34 10.69 360.99 98.27 -33.54 -3.61 -426.78c-59.55,-6.83 -171.84,-8.34 -255.79,-9.11 -121.48,-1.13 -173.93,-13.93 -151.22,104.1z"/>
   <path class="fil7" d="M2991.26 3901.17l81.41 -26.86c17.2,-17.13 12.71,-13.04 39.55,-30.37 98.05,-63.25 83.42,-28.42 67.41,-112.07 -76.64,-27.25 -429.19,146.99 -511.75,196.62l46.96 71.52 276.42 -98.84z"/>
   <path class="fil8" d="M5919.98 3472.29c-178.27,45.75 -565.59,91.13 -632.8,232.66 -64.55,135.97 12.06,263.58 105.25,299.22 108.4,41.48 915.72,-129.42 986.47,-270.37 71.41,-142.25 -68.64,-339.7 -144.48,-473.47 -12.98,-22.84 -157.51,-242.16 -158.9,-243.79l58.95 -23.58c-7.26,-98.29 -287.76,-406.25 -256.76,-462.67 -64.31,-153.7 129.4,-792.55 182.4,-837.33 56.62,93.74 -206.64,617.54 -147.5,787.28l284.47 432.97c4.77,7.25 8.44,27.95 14.08,21.66 138.89,-153.99 265.34,-147.81 320.21,-90.55 54.14,56.51 39.04,162.55 -129.91,263.23 97.87,26.84 171.05,-16.54 190.77,-89.69 35.6,-132.2 -114.78,-283.42 -230.01,-455.48 -50.09,-74.73 -121.04,-127.85 -100.72,-238.64 22.86,-124.26 98.96,-457.6 152.4,-539.64 98.8,157.03 -210.05,492.66 -59,674.69 53.19,-53.02 100.61,-291.98 127.56,-390.08 42.88,-156.01 99.04,-293.4 6.35,-439.52 -90.74,-143.05 -474.36,-295.05 -600.94,179.19 -43.36,162.63 -207.97,711.43 -208.59,840.09 -0.91,182.97 58.83,80.46 139.37,398.04 32.43,127.78 87.99,303.95 101.33,425.78z"/>
   <path class="fil9" d="M3755.97 2575.74c-201.6,-79.82 -236.4,-7.16 -260.2,-351.58 -8.01,-115.99 -72.29,-488.53 -9.29,-566.79 57.9,89.66 40.29,547.36 64.59,699.6 29.93,187.47 236.49,172.79 532.08,231.11 73.52,14.52 253.27,57.52 323.56,45.28 89.47,-15.57 179.28,-128.52 99.82,-252.46 -67.41,-105.13 -457.37,-140.57 -618.14,-170.1l-49.84 -500.71c7.29,-100.93 -14.66,-34.43 27.72,-79.67 36.41,92.22 9.55,273.69 52.6,356.67 130.63,-245.8 84.18,-563.05 -180.33,-608.9 -335.71,-58.22 -381.3,261.92 -447.62,511.37 -273.36,1028.16 -180.35,668.75 -4.46,1084.04 290.64,686.32 226.78,432.07 235.22,1195.71 4.16,375.89 425.86,354.86 436.57,20.07 4.91,-154.05 -0.53,-317.95 -0.36,-473.19 0.36,-339.36 -50.45,-401.37 -206.31,-756.23 -102.69,-233.82 0.58,-175.96 4.39,-384.22z"/>
   <path class="fil2" d="M7782.59 3475.56c-127.7,26.61 -388.73,80.31 -507.46,124.96 -175.53,65.99 -198.87,288.78 -48.33,386.76 122.4,79.66 548.5,-67.78 752.27,-115.69 355.74,-83.62 321.43,-163.58 208.59,-590.9 -89.92,-340.52 -417.71,-641.01 -461.65,-797.13 -26.79,-95.15 12.71,-182.21 35.86,-268.18 42.15,-156.47 14.29,-125.41 -54.81,-234.13 -41.15,178.27 -196.42,614.29 -148.32,767.92 22.73,72.65 56.17,88.06 85.3,153.47l138.55 572.92z"/>
   <path class="fil2" d="M8240.32 1833.7c-48.54,-167.89 -125.97,-12.15 -127.61,-341.14 -259.08,-21.89 -342.34,185.39 -379.47,415.18 9.53,-4.49 44.43,-17.87 62.57,-26.84 61.6,-30.53 28.72,-0.28 56.73,-40.9 41.93,-60.81 0.97,-74.16 63.54,-143.48 54.91,109.05 -211.67,643.91 -132.34,808.4 35.2,72.98 384.41,584.07 433.04,609.63 132.72,69.71 282.8,-41.18 239.14,-199.6 -58.72,-213.06 -382.11,-390.45 -313.82,-647.48 31.23,-117.53 101.28,-324.54 98.22,-433.77zm0 0c63.83,-69.19 -62.62,81.59 20.98,-35.92 44.35,-62.32 39.38,-42.68 139.22,-58.39 -41.61,-164.25 -122.56,-210.77 -287.81,-246.83 1.64,328.99 79.07,173.25 127.61,341.14z"/>
   <path class="fil0" d="M1154.85 559.36c-505.19,158.13 -275.95,923.84 247.97,763.72 478.95,-146.37 273.41,-926.92 -247.97,-763.72z"/>
   <path class="fil8" d="M6266.51 643.66c-518.06,195.7 -205.54,934.97 283.02,746.08 451.49,-174.54 237.37,-942.67 -283.02,-746.08z"/>
   <path class="fil9" d="M3451.62 923.94c33.76,323.72 386.04,512.18 658.58,288.77 86.55,-70.92 180.33,-221.28 130.2,-414.22 -53.06,-204.11 -205.02,-236.8 -269.43,-285.43 -313.64,-28.95 -503.83,115.9 -519.35,410.88z"/>
   <path class="fil0" d="M2830.93 3706.99c-31.07,-141.64 -18.85,-135.19 -82.9,-271.41 -36.97,-78.64 -69.92,-160.77 -107.17,-246.47 -35.8,-82.32 -68.22,-153.4 -108.39,-245.16 -64.71,-147.8 -91.85,-120.4 -139.23,-188.56l-300.42 -7.85c25.56,79.65 126.11,191.83 178.55,319.91 121.63,297.11 27.56,636.64 225.97,756.48 195.87,118.28 297.9,-79.67 333.59,-116.94z"/>
   <path class="fil2" d="M8093.67 1362.72c33.32,-10.65 -2.39,8.41 -15.12,-68.31 -24.52,-147.76 54.49,-210.34 146.96,-302.81 55.49,-55.51 251.2,-231.8 280.29,-286.34l-2.45 -31.36c-4.44,-0.75 -11.16,-7.51 -13.02,-3.65l-52.68 -19.06c-95.93,-37.22 -171.29,-50.35 -279.99,-22.19 -405.53,105.08 -341.77,694.47 -63.99,733.72zm0 0c48.59,49.58 120.11,55.92 196.26,53.55 80.44,-2.5 119.42,-19.32 183.46,-54.74 119.81,-107.34 208.94,-187.58 189.81,-438.66l-29.55 -107.08c-59.04,-43.14 -59.6,-67.5 -127.85,-110.53 -29.09,54.54 -224.8,230.83 -280.29,286.34 -92.47,92.47 -171.48,155.05 -146.96,302.81 12.73,76.72 48.44,57.66 15.12,68.31z"/>
   <path class="fil1" d="M5803.75 4005.01c-30.77,220.39 -8.5,503.31 248.34,460.86 232.25,-38.39 183.22,-315.91 180.48,-560.4 -80.77,-3.72 -359.46,65.1 -428.82,99.54z"/>
   <path class="fil2" d="M7661.33 3998.67c-3.76,219.79 -16.61,501.87 248.25,468.76 240.51,-30.07 189.11,-338.92 186.18,-568.58l-434.43 99.82z"/>
   <path class="fil10" d="M1004.63 3535.23c60.92,288.52 558.26,231.89 486.48,-115.64 -64.06,-310.04 -557.84,-222.35 -486.48,115.64z"/>
   <path class="fil2" d="M7680.22 3449.8c73.52,-28.19 54.6,-29.01 29.51,-120.69 -13.53,-49.43 -25.77,-92.11 -44.34,-128.43 -9.69,92.86 -26.46,195.11 14.83,249.12z"/>
   <path class="fil6" d="M6478.79 3478.02c104.82,66.81 65.79,-14.38 137.93,120.69l273.56 494.75c117.43,212.54 52.69,137.81 130.26,397.04 80.58,-15.36 74.51,-14.2 123.61,-64.77l-500.54 -931.14c-86.56,-153.22 -226.71,-321.86 -256.45,-390.15 45.7,-49.64 221.29,-151.18 132.5,-253.6 -84.81,-97.82 -251.49,57.49 -297.67,110.46 -147.27,168.84 75.5,172.46 130.22,234.41 178.5,202.15 128.61,208.96 126.58,282.31z"/>
  </g>
 </g>
</svg>
